<ttFont>
          <CharString index="0">
            hlineto
            -105 callsubr
          </CharString>
          <CharString index="1">
            15 callgsubr
            rrcurveto
            endchar
          </CharString>
          <CharString index="2">
            15 -106 callsubr
          </CharString>
          <CharString index="3">
            rlinecurve
            42 -106 callgsubr
          </CharString>
          <CharString index="4">
            -78 callgsubr
            -6 -86 callgsubr
            return
          </CharString>
          <CharString index="5">
            hlineto
            -14 -103 callsubr
            return
          </CharString>
          <CharString index="6">
            -101 callgsubr
            -20 -22 return
          </CharString>
          <CharString index="7">
            hlineto
            -102 callgsubr
            return
          </CharString>
          <CharString index="8">
            -102 callgsubr
            205 338 callsubr
            -30 -2 -31 -4 -30 vhcurveto
            -64 -31 -64 -28 -54 -23 rrcurveto
            -29 -16 -8 -32 -37 vvcurveto
            29 -52 334 callgsubr
            45 -1 54 16 25 29 36 99 32 169 12 135 rrcurveto
            return
          </CharString>
          <CharString index="9">
            45 58 40 57 36 406 callsubr
            -28 -57 -29 -67 -29 -73 -45 -3 -53 -20 -40 -26 1 -39 29 -31 46 -13 30 24 18 14 32 7 rrcurveto
            6 6 -5 -4 4 hvcurveto
            -7 -48 -57 -40 -61 -15 -87 35 -31 56 -23 72 -48 11 -41 -23 -27 -54 40 -73 113 -80 98 -3 rrcurveto
            96 3 156 84 75 vvcurveto
            18 -17 19 -22 17 vhcurveto
            26 99 22 70 40 100 -31 59 -61 19 -40 -12 -30 -30 -54 -64 -49 -52 -44 14 -41 40 -12 43 54 61 152 59 62 58 108 callsubr
            -17 20 -23 19 -27 16 rrcurveto
            262 -93 callgsubr
          </CharString>
          <CharString index="10">
            -40 72 -11 42 21 -96 callgsubr
          </CharString>
          <CharString index="11">
            45 58 40 57 36 406 callsubr
            -29 -58 -28 -66 -30 -78 rrcurveto
            3 -14 -14 2 -12 hhcurveto
            -60 -77 -71 -40 -39 42 -55 62 -35 hvcurveto
            62 20 24 25 -4 40 -30 17 -29 20 -18 27 5 10 5 6 7 5 102 -37 59 -54 67 -97 63 16 33 37 -6 41 -32 38 -58 43 -60 32 25 97 20 74 43 107 rrcurveto
            -31 59 -61 19 -40 -12 -30 -30 -54 -64 -49 -52 -44 14 -41 40 -12 43 54 61 152 59 62 58 108 callsubr
            -17 20 -23 19 -27 16 rrcurveto
            262 -93 callgsubr
          </CharString>
          <CharString index="12">
            -128 -91 callgsubr
            return
          </CharString>
          <CharString index="13">
            133 callsubr
            -7 -30 rcurveline
            return
          </CharString>
          <CharString index="14">
            369 callsubr
            29 299 43 41 49 44 27 return
          </CharString>
          <CharString index="15">
            -45 callsubr
            -416 -100 callsubr
            116 -75 callgsubr
            return
          </CharString>
          <CharString index="16">
            rmoveto
            -55 -47 -62 -53 -60 -52 rrcurveto
            -36 21 -12 33 43 vvcurveto
            108 60 104 103 46 vhcurveto
            39 -24 25 -30 20 -42 rrcurveto
            22 72 rmoveto
            -25 43 -34 43 -38 23 -185 -4 -139 -186 2 -159 rrcurveto
            -103 63 476 callsubr
            vhcurveto
            45 48 54 54 44 46 13 -13 rcurveline
            -44 -108 46 -41 84 -11 43 25 rlinecurve
            123 3 113 10 99 vhcurveto
            85 158 -20 44 -44 9 -90 -11 rlinecurve
            -12 -25 -5 -33 -49 vvcurveto
            return
          </CharString>
          <CharString index="17">
            -128 -94 callsubr
            return
          </CharString>
          <CharString index="18">
            hlineto
            -92 callsubr
            return
          </CharString>
          <CharString index="19">
            299 callsubr
            253 hlineto
            36 -17 38 -17 22 -27 -3 -67 callsubr
            71 20 90 18 63 33 34 29 16 52 -10 30 -16 18 -19 14 -19 108 callgsubr
          </CharString>
          <CharString index="20">
            rmoveto
            2 67 50 87 74 50 17 6 rcurveline
            46 -26 20 -40 -9 -70 -61 -30 -64 -25 -75 -22 rrcurveto
            175 294 rmoveto
            -125 -35 -80 -71 -62 -65 -30 -44 -20 -49 -2 -54 -3 -114 65 -99 154 -28 77 11 126 47 45 49 7 47 -16 17 -37 -1 -51 -40 -68 -28 -65 -15 -54 29 -24 38 -9 53 rrcurveto
            106 21 118 43 98 47 29 115 -39 103 -140 23 rrcurveto
            endchar
          </CharString>
          <CharString index="21">
            hlineto
            -27 48 -46 41 -52 9 -93 -6 -96 -89 -10 -63 6 362 callsubr
            126 -20 rcurveline
            -31 callsubr
            107 -55 49 17 30 33 callsubr
            155 257 callgsubr
            13 -2 14 -3 13 vhcurveto
            return
          </CharString>
          <CharString index="22">
            rmoveto
            26 134 18 126 21 120 rrcurveto
            9 292 callgsubr
            -34 280 callsubr
            20 -224 -26 -169 -28 -126 -77 -97 rlinecurve
            -145 -34 -53 89 9 103 7 141 45 169 51 167 rrcurveto
            9 -18 -20 4 -22 hhcurveto
            -34 280 callsubr
            -18 -193 -22 -135 -35 -195 rrcurveto
            -90 14 83 -103 149 hhcurveto
            192 77 139 216 43 hvcurveto
            return
          </CharString>
          <CharString index="23">
            -23 31 -40 6 -86 -7 -7 -30 rcurveline
            -126 -76 callgsubr
            -120 -528 236 callgsubr
            41 21 rlinecurve
            42 420 66 -55 callsubr
            104 callsubr
            return
          </CharString>
          <CharString index="24">
            rmoveto
            -22 41 -44 9 -90 -10 -25 -82 -19 -91 -21 -115 -42 -61 -48 -46 -51 -48 -44 13 -19 15 -7 21 47 154 30 121 6 80 -38 45 -66 9 -61 -16 5 -93 -3 -100 1 -66 -63 -163 rcurveline
            15 -53 46 -53 148 -18 56 60 48 52 39 51 12 -10 rcurveline
            -47 -113 46 -40 78 -11 44 25 rlinecurve
            -3 123 2 113 8 99 rrcurveto
            endchar
          </CharString>
          <CharString index="25">
            hlineto
            -15 -103 callsubr
            return
          </CharString>
          <CharString index="26">
            -71 callgsubr
            53 -13 return
          </CharString>
          <CharString index="27">
            -90 callgsubr
            221 hlineto
            -9 -37 -7 -35 -5 -34 -10 -34 -5 -33 1 -28 -4 -39 4 -37 6 -29 4 338 callgsubr
            24 11 51 59 15 72 3 9 3 10 2 10 8 49 5 43 2 42 rrcurveto
            6 28 6 28 7 26 rrcurveto
            return
          </CharString>
          <CharString index="28">
            69 -55 callsubr
            return
          </CharString>
          <CharString index="29">
            -24 26 -40 10 -78 -6 return
          </CharString>
          <CharString index="30">
            rmoveto
            -135 132 -175 125 148 207 225 165 -3 vhcurveto
            177 -2 -134 183 -102 hhcurveto
            -188 -184 -222 -218 1 hvcurveto
            475 57 rmoveto
            -35 -117 -69 -101 -115 -72 rrcurveto
            -72 55 -41 96 97 vvcurveto
            132 92 142 128 74 vhcurveto
            74 -85 25 -101 13 -120 rrcurveto
            return
          </CharString>
          <CharString index="31">
            -23 31 -40 6 -85 -7 -7 -30 rcurveline
            -121 -100 callsubr
            124 hlineto
            -121 -528 29 callsubr
            41 420 66 -55 callsubr
            104 callsubr
            return
          </CharString>
          <CharString index="32">
            -18 rrcurveto
            -31 -44 35 29 4 -52 callsubr
            return
          </CharString>
          <CharString index="33">
            47 -40 73 -11 41 21 -41 callsubr
          </CharString>
          <CharString index="34">
            rmoveto
            485 callgsubr
            232 -72 callgsubr
            -14 5 -14 6 -11 9 -9 62 -36 104 -130 -13 -69 callgsubr
            return
          </CharString>
          <CharString index="35">
            -46 -20 -22 -51 -14 -61 25 -80 62 -71 86 -66 40 14 21 22 -2 26 -48 51 -39 50 -17 59 402 callsubr
            11 12 return
          </CharString>
          <CharString index="36">
            rmoveto
            52 -55 31 -69 8 -78 -22 -95 -51 -66 -98 -51 -47 42 -28 58 -2 69 13 94 52 89 92 62 rrcurveto
            -290 -248 rmoveto
            -126 114 -113 87 140 168 168 134 -2 vhcurveto
            99 -2 -110 160 -89 hhcurveto
            -160 -146 -199 -123 hvcurveto
            return
          </CharString>
          <CharString index="37">
            rmoveto
            -23 -138 -27 -108 -23 -107 -50 95 rcurveline
            -56 173 -38 142 -39 156 rrcurveto
            11 -20 -15 5 -24 hhcurveto
            -34 -37 -8 -25 -48 hvcurveto
            -10 -195 -30 -175 -29 -120 -53 -178 rlinecurve
            20 -40 97 -14 51 26 14 150 18 143 10 120 43 167 rcurveline
            40 -180 55 -184 96 -197 39 -31 73 -13 55 25 14 157 19 147 10 109 85 303 rcurveline
            8 454 callgsubr
            280 callsubr
            endchar
          </CharString>
          <CharString index="38">
            -64 callsubr
            121 hlineto
            return
          </CharString>
          <CharString index="39">
            10 callgsubr
            131 hlineto
            -125 73 callgsubr
            14 return
          </CharString>
          <CharString index="40">
            -9 rcurveline
            -62 -31 -80 -16 -86 -17 -56 -32 -20 -62 20 -46 -52 callgsubr
            return
          </CharString>
          <CharString index="41">
            283 callsubr
            30 16 31 3 return
          </CharString>
          <CharString index="42">
            65 -82 134 -54 callgsubr
            return
          </CharString>
          <CharString index="43">
            97 93 vvcurveto
            16 -8 16 -15 15 vhcurveto
            return
          </CharString>
          <CharString index="44">
            rmoveto
            -29 11 -22 17 -18 28 38 18 38 18 38 20 -10 -38 -12 -36 -13 -31 rrcurveto
            return
          </CharString>
          <CharString index="45">
            -100 callsubr
            115 hlineto
            return
          </CharString>
          <CharString index="46">
            -50 callgsubr
            29 16 return
          </CharString>
          <CharString index="47">
            327 callgsubr
            117 callgsubr
            return
          </CharString>
          <CharString index="48">
            390 rmoveto
            -58 -83 -104 -77 -63 -75 callsubr
            return
          </CharString>
          <CharString index="49">
            340 callgsubr
            4 8 rcurveline
            136 13 159 105 111 vvcurveto
            20 -15 26 -23 23 vhcurveto
            return
          </CharString>
          <CharString index="50">
            22 40 vvcurveto
            83 61 213 callsubr
            return
          </CharString>
          <CharString index="51">
            -102 callsubr
            130 hlineto
            return
          </CharString>
          <CharString index="52">
            138 rlineto
            return
          </CharString>
          <CharString index="53">
            50 callgsubr
            -34 23 return
          </CharString>
          <CharString index="54">
            243 callgsubr
            241 hlineto
            41 -22 39 -26 19 -25 -3 -8 rcurveline
            -63 -42 -88 -33 -86 -27 rrcurveto
            -60 -45 -38 -48 -58 vvcurveto
            -77 85 -84 122 -23 vhcurveto
            112 2 102 51 63 44 callsubr
            275 hlineto
            167 callsubr
            rrcurveto
            endchar
          </CharString>
          <CharString index="55">
            hvcurveto
            43 -51 callsubr
            return
          </CharString>
          <CharString index="56">
            56 195 -69 callsubr
            return
          </CharString>
          <CharString index="57">
            -13 15 -15 return
          </CharString>
          <CharString index="58">
            -12 callsubr
            33 61 31 63 rrcurveto
            return
          </CharString>
          <CharString index="59">
            -6 -7 -30 rcurveline
            return
          </CharString>
          <CharString index="60">
            rmoveto
            -623 -102 callsubr
            256 hlineto
            36 -17 34 -21 22 -26 -3 -6 rcurveline
            -53 -24 -106 -22 -63 -12 -54 -34 -23 -64 18 -42 85 -49 128 -8 55 -35 2 -8 rcurveline
            -24 -32 -64 -40 -50 -3 -29 8 -37 31 -20 23 -49 11 -44 -42 -26 -60 65 -70 60 -112 36 -85 64 -2 44 30 1 31 -36 62 -54 73 -49 46 6 6 rcurveline
            23 -15 38 -23 22 -4 84 3 109 58 27 52 25 53 -6 36 -28 21 -69 35 -132 17 -48 27 4 14 rcurveline
            57 13 105 22 58 28 112 callgsubr
            241 -93 callgsubr
          </CharString>
          <CharString index="61">
            32 47 7 50 0 21 -8 27 rlinecurve
            -47 7 -54 -7 -50 -43 29 -150 rcurveline
            -23 -98 -32 -111 -38 -110 331 callgsubr
            15 102 12 93 8 98 59 64 52 43 58 29 21 -11 13 -15 6 -28 -24 -104 -27 -124 -14 -121 44 -40 77 -11 45 25 rrcurveto
            -5 108 3 108 5 66 return
          </CharString>
          <CharString index="62">
            -24 26 -41 10 -77 -48 callsubr
            return
          </CharString>
          <CharString index="63">
            rmoveto
            15 74 19 66 502 callsubr
            -65 -79 -60 -69 -46 rlinecurve
            return
          </CharString>
          <CharString index="64">
            420 -79 callsubr
            124 -93 callgsubr
          </CharString>
          <CharString index="65">
            rmoveto
            -70 -65 -79 469 callgsubr
            142 hlineto
            -613 -193 rmoveto
            271 callgsubr
            212 hlineto
            -10 -29 -9 -28 -8 -28 -26 23 -37 15 -51 -3 -50 -49 -57 -55 -53 -49 rrcurveto
            -326 -117 -44 callsubr
            1463 379 rmoveto
            -382 -91 callgsubr
            -516 -79 callgsubr
            40 31 -42 -47 -1 hvcurveto
            -10 -38 -10 -39 -9 -40 13 -50 70 -29 65 -1 69 58 67 60 67 63 8 -7 rcurveline
            -27 -48 -54 -237 236 callgsubr
            41 21 rlinecurve
            30 296 51 44 57 172 callsubr
            105 309 callgsubr
            -73 313 callgsubr
          </CharString>
          <CharString index="66">
            rlinecurve
            41 -43 callsubr
          </CharString>
          <CharString index="67">
            -322 127 518 rmoveto
            -31 -183 -28 -124 -50 -169 306 callsubr
            14 158 15 146 10 109 84 303 rcurveline
            9 454 callgsubr
            -39 -10 -23 -42 hvcurveto
            return
          </CharString>
          <CharString index="68">
            -56 150 -312 81 -3 78 -1 42 94 62 72 19 34 -31 28 -36 19 -77 83 -14 43 25 12 56 -40 76 -75 56 -98 20 -133 -13 -131 -79 -53 -117 28 -184 334 -60 1 -77 rrcurveto
            -68 -72 -58 -92 -21 vhcurveto
            -66 56 -28 42 -20 80 -77 24 -39 -38 -33 -58 return
          </CharString>
          <CharString index="69">
            rmoveto
            -47 -69 -103 -74 -52 -16 -36 3 -34 25 3 24 rrcurveto
            38 357 callgsubr
            39 -44 26 -63 12 -109 -7 -114 -24 -114 -43 -25 16 -28 12 -28 6 -49 -7 -44 -44 -22 -36 -3 -66 32 -58 44 -49 -74 -63 -99 -54 -85 -18 -9 9 rcurveline
            27 52 68 83 53 44 13 56 -35 37 -57 21 -41 -10 -41 -15 -36 -4 -7 12 rcurveline
            49 49 89 76 92 45 rrcurveto
            779 hlineto
            -637 -272 rmoveto
            -24 39 -6 40 2 28 3 8 10 9 10 4 18 -6 27 -20 13 -22 -10 -26 -19 -27 -24 -27 rrcurveto
            926 326 -92 callgsubr
            -1151 13 callsubr
            -1 17 -6 16 -11 15 105 33 104 17 86 -8 439 callgsubr
            64 vhcurveto
            64 -1 105 76 76 77 10 -10 rcurveline
            -42 -67 -36 -152 -28 callsubr
          </CharString>
          <CharString index="70">
            109 callgsubr
            9 -7 rcurveline
            -45 -108 return
          </CharString>
          <CharString index="71">
            rmoveto
            -22 -108 -55 -47 -62 -53 -60 -52 rlinecurve
            -35 21 -13 33 47 vvcurveto
            1 108 60 103 104 46 37 -24 22 -31 22 -44 rrcurveto
            -30 -215 rmoveto
            -39 -88 -14 -91 -7 -57 -25 -96 rlinecurve
            -10 -14 -21 -8 -22 1 -49 48 -23 45 -7 60 -48 28 -57 -21 -39 -60 18 -75 62 -69 106 -51 98 4 85 27 44 65 19 147 29 232 31 149 91 177 rcurveline
            -23 43 -42 11 -90 -14 -11 -22 -5 -32 -1 -46 -23 44 -32 45 -41 14 -181 -2 -139 -187 -1 -160 -1 -103 66 476 callsubr
            46 50 55 55 45 46 rrcurveto
            endchar
          </CharString>
          <CharString index="72">
            rmoveto
            -16 16 -15 22 17 vvcurveto
            28 43 43 31 5 vhcurveto
            40 -11 18 -46 -48 vvcurveto
            -17 -3 -18 -6 -16 vhcurveto
            return
          </CharString>
          <CharString index="73">
            -77 128 -27 8 -28 -10 -11 -21 rlinecurve
            92 -149 33 -19 53 3 46 17 rlinecurve
            return
          </CharString>
          <CharString index="74">
            8 callsubr
            31 36 48 24 44 hhcurveto
            return
          </CharString>
          <CharString index="75">
            476 callgsubr
            17 -30 52 -10 callsubr
            return
          </CharString>
          <CharString index="76">
            -37 -53 -63 -42 -68 -10 -16 7 -15 8 -14 177 callsubr
            63 -78 124 -118 return
          </CharString>
          <CharString index="77">
            28 callgsubr
            -65 34 callsubr
            return
          </CharString>
          <CharString index="78">
            9 -6 rcurveline
            -31 -66 -50 -121 -39 -103 8 -36 48 -24 66 4 34 136 37 149 callsubr
            return
          </CharString>
          <CharString index="79">
            39 callsubr
            14 15 callgsubr
            rrcurveto
            endchar
          </CharString>
          <CharString index="80">
            rmoveto
            15 -64 68 -48 132 -18 47 43 33 32 34 41 13 -12 rcurveline
            -44 -81 -16 -93 -10 -60 -21 -91 rlinecurve
            -10 -12 -21 -5 -22 2 -46 43 -23 46 -10 64 -45 27 -58 -21 -40 -59 15 -70 62 -74 99 -47 103 -3 84 23 45 59 14 141 37 262 26 142 94 173 rcurveline
            -23 42 -43 11 -90 -13 -19 -59 -16 -93 -22 -135 -38 -51 -39 -35 -51 -39 -48 16 -16 16 -11 26 39 128 21 71 14 115 -44 47 -69 8 -55 -16 6 -69 2 -96 -3 -77 rrcurveto
            endchar
          </CharString>
          <CharString index="81">
            77 callsubr
            -724 -13 callsubr
            -99 -102 -138 -65 -110 -40 84 callsubr
            127 hlineto
            167 callsubr
            rrcurveto
            endchar
          </CharString>
          <CharString index="82">
            -21 callsubr
            69 return
          </CharString>
          <CharString index="83">
            25 callgsubr
            21 callgsubr
            122 hlineto
            return
          </CharString>
          <CharString index="84">
            -102 callsubr
            131 hlineto
            196 callsubr
            33 39 47 22 39 hhcurveto
            25 20 -22 -19 5 hvcurveto
            -5 -78 -113 -72 -98 -13 -14 7 -12 8 -12 442 callgsubr
            return
          </CharString>
          <CharString index="85">
            -2 -151 -38 -130 -154 -32 -85 -3 -50 45 -44 58 -27 53 8 42 15 34 14 5 131 callsubr
            69 -17 vhcurveto
            return
          </CharString>
          <CharString index="86">
            55 -1 66 -34 28 -52 374 callsubr
            -74 -20 rrcurveto
            -66 27 -31 42 43 vvcurveto
            -1 28 22 27 32 24 return
          </CharString>
          <CharString index="87">
            48 17 31 56 -21 36 return
          </CharString>
          <CharString index="88">
            188 callsubr
            -21 -1 -22 -3 -22 vhcurveto
            -63 -31 -63 -28 -54 -22 -28 -17 -10 -34 -2 -33 27 -55 59 -37 69 -14 40 4 54 16 25 29 37 92 29 163 10 121 rrcurveto
            return
          </CharString>
          <CharString index="89">
            rmoveto
            -928 -89 callgsubr
            37 27 44 32 44 32 rrcurveto
            -5 vlineto
            -77 85 128 callsubr
            80 34 59 -28 callgsubr
          </CharString>
          <CharString index="90">
            -95 -410 47 -40 73 56 callsubr
            return
          </CharString>
          <CharString index="91">
            -7 483 647 -88 callgsubr
            return
          </CharString>
          <CharString index="92">
            -25 -19 -12 -33 4 -42 34 89 callsubr
            16 28 return
          </CharString>
          <CharString index="93">
            hlineto
            -45 callsubr
            return
          </CharString>
          <CharString index="94">
            -102 callsubr
            137 hlineto
            -5 -4 -4 -5 -4 148 callgsubr
            32 31 45 21 34 hhcurveto
            20 441 callgsubr
            -91 -66 -115 354 callgsubr
            -88 94 -75 104 -22 115 26 198 90 73 73 12 -13 rcurveline
            return
          </CharString>
          <CharString index="95">
            26 callgsubr
            199 callgsubr
            return
          </CharString>
          <CharString index="96">
            -21 5 -29 22 -17 18 -46 4 -38 -41 -8 -61 16 -7 20 -11 5 -15 -1 -39 -50 -57 -53 -12 rrcurveto
            -36 23 -17 46 48 vvcurveto
            42 25 41 40 34 vhcurveto
            -6 42 -38 28 -54 -2 -62 -45 -29 -71 -3 -55 7 -101 78 -96 85 -14 75 2 128 77 5 91 -10 32 rcurveline
            5 6 22 -6 rlineto
            return
          </CharString>
          <CharString index="97">
            -22 95 -37 callsubr
            return
          </CharString>
          <CharString index="98">
            77 callgsubr
            -724 hlineto
            -94 callgsubr
            445 callsubr
            72 -11 42 21 rlinecurve
            42 420 385 callsubr
            128 -107 callsubr
          </CharString>
          <CharString index="99">
            166 callgsubr
            36 -18 37 -21 21 -25 -3 -7 rcurveline
            -55 -23 -104 -23 -62 -11 -54 -34 -24 -65 18 -42 81 -51 135 -5 52 -37 2 -8 rcurveline
            -29 -37 -60 -31 -67 -3 -28 15 -23 21 -18 23 412 callgsubr
            65 -50 49 7 7 rcurveline
            19 -15 22 -14 23 -10 82 -4 76 28 48 31 rrcurveto
            35 39 23 39 34 vvcurveto
            return
          </CharString>
          <CharString index="100">
            18 callgsubr
            41 420 -79 callsubr
            return
          </CharString>
          <CharString index="101">
            138 callsubr
            70 -55 callsubr
            123 hlineto
            return
          </CharString>
          <CharString index="102">
            28 81 34 58 -28 callgsubr
          </CharString>
          <CharString index="103">
            -6 callsubr
            14 15 callgsubr
            return
          </CharString>
          <CharString index="104">
            88 2 79 30 46 45 -1 41 -28 27 -36 3 -38 -39 -49 -24 -51 -10 -78 23 -38 46 -4 47 23 63 73 40 48 6 16 -2 8 -7 2 -12 -6 -12 -14 -15 -16 -13 rrcurveto
            1 -21 41 -25 50 10 rrcurveto
            31 35 18 45 36 vvcurveto
            50 -75 453 callgsubr
            60 15 60 28 rlinecurve
            34 183 callgsubr
            180 -107 callsubr
          </CharString>
          <CharString index="105">
            rmoveto
            8 8 8 8 9 -8 6 -8 -10 -9 -6 -9 -8 9 -8 10 hvcurveto
            -216 -53 rmoveto
            39 30 32 37 38 -30 30 -39 -39 -31 -30 -38 -37 31 -32 39 hvcurveto
            return
          </CharString>
          <CharString index="106">
            57 callsubr
            31 3 21 185 callsubr
            return
          </CharString>
          <CharString index="107">
            rmoveto
            2 -25 26 -10 29 -1 144 127 rcurveline
            56 -117 26 -13 61 -13 44 39 rlinecurve
            -85 156 -33 20 -44 7 -53 -11 rlinecurve
            return
          </CharString>
          <CharString index="108">
            -59 -4 -63 -45 -35 -49 rrcurveto
            -481 -100 callsubr
            470 hlineto
            -1 -6 4 -19 7 -17 11 -15 rlinecurve
            -130 -74 -190 -86 -113 -49 337 callgsubr
            15 28 10 55 0 64 -17 57 80 40 85 43 76 43 6 -4 6 -5 7 -4 84 -16 rcurveline
            -84 201 callgsubr
            return
          </CharString>
          <CharString index="109">
            -28 -98 -32 rrcurveto
            -67 -48 -46 -49 -61 vvcurveto
            -46 callgsubr
          </CharString>
          <CharString index="110">
            -45 -38 -48 -58 245 callsubr
            102 51 63 -25 callsubr
            return
          </CharString>
          <CharString index="111">
            197 callsubr
            62 44 callsubr
            return
          </CharString>
          <CharString index="112">
            -34 callgsubr
            -32 -53 -56 328 callsubr
            return
          </CharString>
          <CharString index="113">
            3 -53 46 -58 58 -46 -61 -38 -68 -30 -57 -21 82 callsubr
            148 34 88 -30 46 -40 21 -51 -8 -20 -36 -31 -50 178 callgsubr
            51 24 64 35 59 42 rrcurveto
            -19 37 37 -11 29 hhcurveto
            return
          </CharString>
          <CharString index="114">
            -31 -43 429 callgsubr
            42 88 callgsubr
            return
          </CharString>
          <CharString index="115">
            -34 50 -15 rrcurveto
            return
          </CharString>
          <CharString index="116">
            12 callsubr
            -1 return
          </CharString>
          <CharString index="117">
            -101 callsubr
            1 -33 return
          </CharString>
          <CharString index="118">
            122 callsubr
            11 19 rcurveline
            35 -39 40 -39 34 -31 -53 -44 -60 -44 -46 -33 rrcurveto
            return
          </CharString>
          <CharString index="119">
            413 callsubr
            20 -95 return
          </CharString>
          <CharString index="120">
            -82 callsubr
            231 hlineto
            -81 -40 -75 -52 -48 -47 -15 -48 44 -59 54 -26 46 8 49 16 35 12 6 -8 rcurveline
            -74 -47 -67 -74 -23 -70 -1 -50 58 -44 69 -19 167 28 271 192 12 140 return
          </CharString>
          <CharString index="121">
            rrcurveto
            7 callsubr
            return
          </CharString>
          <CharString index="122">
            246 callgsubr
            360 -107 callsubr
          </CharString>
          <CharString index="123">
            -16 callgsubr
            34 return
          </CharString>
          <CharString index="124">
            664 302 callgsubr
            286 hlineto
            26 -11 24 -13 19 -21 -3 -8 rcurveline
            -51 -20 -79 -16 -107 -5 -22 -17 -20 -52 19 -32 27 -15 50 -28 29 -11 -3 -8 rcurveline
            -121 -2 -109 -73 -78 vvcurveto
            -85 107 -85 105 -16 vhcurveto
            82 3 90 28 45 45 rrcurveto
            41 -1 -30 21 -34 hhcurveto
            -38 -32 -48 -23 -51 -6 -69 20 -38 42 -8 50 21 59 71 37 48 5 rrcurveto
            16 -1 8 -7 -12 vvcurveto
            -3 -11 -12 -16 -16 -14 10 -20 40 -21 38 8 rrcurveto
            32 36 16 45 32 vvcurveto
            49 -75 26 -81 27 vhcurveto
            2 7 79 9 59 10 61 24 rlinecurve
            34 28 19 46 -9 29 -12 13 -12 10 -14 9 rrcurveto
            181 -107 callsubr
          </CharString>
          <CharString index="125">
            vvcurveto
            30 -54 58 119 callgsubr
            return
          </CharString>
          <CharString index="126">
            rmoveto
            -22 -105 -26 -97 -38 -104 31 -40 86 -14 51 26 9 137 6 111 13 114 44 153 rcurveline
            -39 31 -50 -5 -70 -31 rrcurveto
            return
          </CharString>
          <CharString index="127">
            28 102 682 rmoveto
            59 -112 67 -129 58 -141 -13 -74 -23 -109 -30 -82 33 -37 96 -12 40 28 6 118 10 114 19 88 69 83 73 78 55 72 37 48 17 42 3 57 -38 38 -62 12 -89 -42 41 -155 rcurveline
            -141 -180 -26 -51 rlineto
            -6 hlineto
            -77 209 -20 194 -54 23 -64 -20 -40 -60 rlinecurve
            return
          </CharString>
          <CharString index="128">
            rcurveline
            -17 callsubr
            return
          </CharString>
          <CharString index="129">
            rmoveto
            35 -40 8 -59 4 -59 59 -27 68 24 27 38 -9 84 -48 84 -104 38 -156 -24 -104 -79 -84 -85 -51 -87 -28 -74 -1 -82 rrcurveto
            -162 89 -120 204 -41 vhcurveto
            100 35 104 62 52 59 2 35 -18 31 -44 -6 -45 -42 -66 -43 -81 -31 rrcurveto
            -102 45 -49 65 123 vvcurveto
            127 91 143 129 64 vhcurveto
            endchar
          </CharString>
          <CharString index="130">
            142 callsubr
            607 386 rmoveto
            -127 hlineto
            -24 26 -40 10 -78 -6 -7 -30 rcurveline
            -488 -19 callsubr
            142 hlineto
            -77 -337 -81 -78 -134 -81 -109 -7 callsubr
            122 -107 callsubr
          </CharString>
          <CharString index="131">
            15 callgsubr
            -12 13 rcurveline
            return
          </CharString>
          <CharString index="132">
            rmoveto
            -6 -194 -31 -152 -32 -128 -54 -143 rlinecurve
            9 -45 45 -30 60 -18 329 37 rcurveline
            23 30 13 62 -47 19 -85 -21 -91 -20 -102 -15 54 308 rcurveline
            90 330 -48 24 -62 -9 -65 -35 rlinecurve
            endchar
          </CharString>
          <CharString index="133">
            -29 callsubr
            -29 -31 -55 -63 -49 459 callgsubr
            17 45 -13 32 -17 20 -23 19 -27 16 rrcurveto
            262 -93 callgsubr
          </CharString>
          <CharString index="134">
            -35 callgsubr
            620 412 rmoveto
            return
          </CharString>
          <CharString index="135">
            7 42 5 42 3 39 rrcurveto
            -195 499 callsubr
            18 -10 -39 -12 -36 -14 -32 rrcurveto
            return
          </CharString>
          <CharString index="136">
            35 callsubr
            rlinecurve
            return
          </CharString>
          <CharString index="137">
            -28 -55 -24 -20 callgsubr
            20 53 19 return
          </CharString>
          <CharString index="138">
            4 8 rcurveline
            33 callgsubr
            return
          </CharString>
          <CharString index="139">
            -101 -32 rlinecurve
            -8 11 44 49 53 558 callsubr
            -31 -15 -45 -17 -44 -8 -13 410 callsubr
            -8 72 -44 38 -44 -7 callgsubr
            8 -43 41 -37 50 -24 54 512 callsubr
            -68 -53 -96 379 callsubr
            return
          </CharString>
          <CharString index="140">
            56 -21 36 -83 39 -73 68 -57 457 callsubr
            156 4 return
          </CharString>
          <CharString index="141">
            -18 rrcurveto
            -31 76 callsubr
            return
          </CharString>
          <CharString index="142">
            236 callgsubr
            42 21 return
          </CharString>
          <CharString index="143">
            rmoveto
            -12 12 -12 21 13 vvcurveto
            25 50 44 31 5 vhcurveto
            32 -11 16 419 callsubr
            -14 -20 vhcurveto
            return
          </CharString>
          <CharString index="144">
            rmoveto
            0 vlineto
            -50 193 callsubr
            return
          </CharString>
          <CharString index="145">
            139 callgsubr
            64 return
          </CharString>
          <CharString index="146">
            60 callsubr
            123 hlineto
            return
          </CharString>
          <CharString index="147">
            rlinecurve
            13 -50 45 -28 55 -15 125 -1 98 21 84 28 rrcurveto
            141 88 80 130 150 vvcurveto
            188 -116 139 -222 -83 -91 -11 -22 -68 vhcurveto
            -18 -22 -1 -35 36 -28 rrcurveto
            endchar
          </CharString>
          <CharString index="148">
            hhcurveto
            -96 -93 -123 -71 -46 29 -35 55 563 callsubr
            -48 -25 -116 -43 -54 -5 rlinecurve
            -53 12 -51 49 -42 45 31 callsubr
            return
          </CharString>
          <CharString index="149">
            564 callgsubr
            -49 -1 -48 -48 -104 -66 -59 -29 -17 -12 -11 -29 -2 -23 12 -35 48 -40 59 -14 return
          </CharString>
          <CharString index="150">
            105 258 340 rmoveto
            4 13 170 -2 29 34 -12 39 -32 13 rlinecurve
            -138 -21 20 76 20 79 19 76 rlinecurve
            152 2 62 -105 1 -142 rrcurveto
            -116 -52 -99 -104 -78 vhcurveto
            -57 -17 -52 -6 -64 -2 rrcurveto
            -46 548 rmoveto
            -3 -154 -5 -26 -6 -25 -5 -24 rlinecurve
            -114 12 -27 -23 -1 -38 40 -32 rlinecurve
            84 13 -22 -79 -26 -73 -33 -90 40 callsubr
          </CharString>
          <CharString index="151">
            -25 callsubr
            219 callgsubr
            return
          </CharString>
          <CharString index="152">
            72 callgsubr
            26 -9 26 -35 return
          </CharString>
          <CharString index="153">
            57 34 38 -29 callsubr
            return
          </CharString>
          <CharString index="154">
            336 callsubr
            -30 -129 vvcurveto
            -97 108 53 callgsubr
            -30 -31 -54 -63 -49 -52 -46 15 -44 41 -8 531 callsubr
            62 51 rrcurveto
            108 callsubr
            -17 20 -23 19 -27 16 rrcurveto
            262 -93 callgsubr
          </CharString>
          <CharString index="155">
            66 -82 133 -120 104 -49 162 callsubr
            return
          </CharString>
          <CharString index="156">
            -16 callgsubr
            35 90 callgsubr
            -35 hvcurveto
            return
          </CharString>
          <CharString index="157">
            rmoveto
            -15 42 -55 20 -70 -13 -30 -90 rcurveline
            -68 -94 rlineto
            -20 26 -12 30 vhcurveto
            return
          </CharString>
          <CharString index="158">
            35 callsubr
            48 498 rcurveline
            60 185 397 callsubr
            return
          </CharString>
          <CharString index="159">
            26 -15 51 -28 28 -12 -2 -7 rcurveline
            -121 -2 -113 -75 -87 vvcurveto
            -87 110 -87 110 -14 vhcurveto
            87 2 80 30 46 45 -2 239 callsubr
            16 -2 9 -7 1 -12 -6 426 callsubr
            -76 364 callgsubr
            181 -93 callgsubr
          </CharString>
          <CharString index="160">
            70 225 -85 rmoveto
            -54 -54 28 59 12 2 12 4 12 hvcurveto
            41 -26 59 -31 44 -22 -14 -15 -13 -14 -15 -15 rrcurveto
            -19 194 rmoveto
            34 -31 46 -24 53 -12 -13 -16 -13 -16 -13 -15 -51 25 -51 31 -45 31 11 11 16 10 19 9 rrcurveto
            593 511 rmoveto
            -776 -100 callsubr
            398 0 callgsubr
            -93 -100 -248 -30 -129 vvcurveto
            -19 4 -18 8 -18 vhcurveto
            -119 -39 -52 -77 -71 vvcurveto
            -100 114 -76 148 31 vhcurveto
            53 69 55 78 return
          </CharString>
          <CharString index="161">
            299 callsubr
            257 hlineto
            35 -15 37 -16 20 -23 -3 -7 rcurveline
            -61 -28 -80 -15 -85 -15 -57 -31 -20 -60 20 -44 82 -41 110 -9 81 -35 rrcurveto
            -7 vlineto
            -74 -46 -137 -17 -106 -1 -29 -25 9 -48 47 -37 131 7 170 41 68 45 34 50 6 59 -31 26 -74 31 -111 13 -68 29 3 11 rcurveline
            71 18 89 16 63 31 34 28 16 50 -10 29 -14 14 -16 12 -17 10 rrcurveto
            229 -107 callsubr
          </CharString>
          <CharString index="162">
            4 63 callsubr
            return
          </CharString>
          <CharString index="163">
            -11 41 -14 callgsubr
            return
          </CharString>
          <CharString index="164">
            hlineto
            -61 callsubr
            return
          </CharString>
          <CharString index="165">
            86 callgsubr
            75 19 98 51 50 63 rrcurveto
            return
          </CharString>
          <CharString index="166">
            400 callsubr
            -6 -40 51 -33 hhcurveto
            -47 -6 -44 -51 -8 -51 rrcurveto
            -35 3 26 -24 31 hhcurveto
            return
          </CharString>
          <CharString index="167">
            104 callgsubr
            -79 callsubr
            return
          </CharString>
          <CharString index="168">
            68 callgsubr
            -5 -30 rcurveline
            return
          </CharString>
          <CharString index="169">
            312 167 162 142 callgsubr
            857 454 rmoveto
            -1015 -100 callsubr
            637 hlineto
            41 -24 33 -23 17 -25 -3 -8 rcurveline
            -41 -44 -71 -30 -66 -31 -1 2 rcurveline
            85 callgsubr
            45 10 46 8 47 9 rrcurveto
            -21 -21 -14 -25 -30 vvcurveto
            -97 return
          </CharString>
          <CharString index="170">
            67 callgsubr
            381 callsubr
            return
          </CharString>
          <CharString index="171">
            623 -92 callgsubr
            return
          </CharString>
          <CharString index="172">
            rmoveto
            -7 -4 rlineto
            80 -50 -55 66 -50 472 callsubr
            50 -34 44 -44 28 -47 -5 -5 rcurveline
            -40 38 -40 26 -39 7 -39 409 callgsubr
            2 19 17 4 15 -18 65 -5 34 -3 52 13 9 rcurveline
            36 542 callsubr
            -40 40 -55 22 -75 6 -30 -7 -27 -14 -28 -35 14 -23 19 -32 12 -25 rrcurveto
            endchar
          </CharString>
          <CharString index="173">
            61 -34 28 -51 -5 vhcurveto
            -30 -46 -53 -48 -64 -18 rrcurveto
            -55 23 -26 31 32 vvcurveto
            23 16 18 26 19 vhcurveto
            61 22 69 30 51 33 26 22 17 42 -10 27 -50 callsubr
            13 -15 11 rrcurveto
            262 -107 callsubr
          </CharString>
          <CharString index="174">
            -69 1 -44 -21 -50 -41 -7 -33 16 -22 53 -23 33 31 33 17 31 8 return
          </CharString>
          <CharString index="175">
            58 callgsubr
            28 -38 20 -38 rrcurveto
            return
          </CharString>
          <CharString index="176">
            732 rmoveto
            37 -10 24 -16 29 -24 31 2 20 17 4 15 -18 65 -5 34 -3 52 12 9 rcurveline
            37 542 callsubr
            -41 40 -54 22 -75 6 -30 -7 -28 -14 -27 -35 14 -23 18 -32 12 -25 -6 -4 rcurveline
            80 -50 -56 66 -49 507 callsubr
            60 54 rcurveline
            50 -34 43 -44 28 -47 -4 -5 rcurveline
            -41 38 -40 26 -38 7 -39 323 callgsubr
            39 -20 49 -4 rrcurveto
            return
          </CharString>
          <CharString index="177">
            115 callsubr
            -37 -4 -37 -6 -35 rlinecurve
            -66 -22 -63 -19 -50 -17 181 callsubr
            45 16 63 14 68 return
          </CharString>
          <CharString index="178">
            rmoveto
            39 59 72 63 56 118 callsubr
            return
          </CharString>
          <CharString index="179">
            43 62 callgsubr
            return
          </CharString>
          <CharString index="180">
            -102 callsubr
            205 hlineto
            27 -90 -1 -48 -5 -58 -10 -55 rlinecurve
            -65 -12 -61 -11 -49 -12 -28 -16 -8 -31 -1 -36 30 -54 59 -45 58 376 callgsubr
            16 31 27 hvcurveto
            14 37 12 51 10 55 return
          </CharString>
          <CharString index="181">
            301 callgsubr
            -62 -57 -75 -20 -65 27 -31 42 -1 43 return
          </CharString>
          <CharString index="182">
            4 -8 rcurveline
            -85 -44 -131 -31 -58 vvcurveto
            -56 93 -73 return
          </CharString>
          <CharString index="183">
            -43 88 callsubr
            return
          </CharString>
          <CharString index="184">
            rmoveto
            -5 -2 rlineto
            44 -15 -25 38 -39 41 callsubr
            313 hlineto
            -52 -234 rmoveto
            -34 -20 -39 -27 -30 hhcurveto
            -27 -16 19 27 42 38 64 48 11 hvcurveto
            26 -8 17 -37 8 -37 rrcurveto
            338 268 rmoveto
            -132 103 callsubr
            return
          </CharString>
          <CharString index="185">
            -169 -74 callsubr
          </CharString>
          <CharString index="186">
            rmoveto
            -42 17 -70 -11 -23 -54 86 -81 rcurveline
            60 -86 26 -7 29 9 10 19 rlinecurve
            return
          </CharString>
          <CharString index="187">
            293 callsubr
            -39 47 -34 -1 rlinecurve
            return
          </CharString>
          <CharString index="188">
            367 callsubr
            -47 -204 233 callsubr
            -1 -48 40 -28 74 -15 49 66 rcurveline
            58 -34 44 -33 44 -44 -89 -77 -119 -70 -138 325 callsubr
            return
          </CharString>
          <CharString index="189">
            29 callgsubr
            27 106 39 return
          </CharString>
          <CharString index="190">
            359 callgsubr
            52 callgsubr
            return
          </CharString>
          <CharString index="191">
            285 callsubr
            94 54 119 86 56 262 callgsubr
            return
          </CharString>
          <CharString index="192">
            -26 8 -49 47 -38 130 7 170 44 68 48 34 52 7 61 -31 29 -73 33 -111 381 callgsubr
            return
          </CharString>
          <CharString index="193">
            14 -14 32 38 vvcurveto
            83 56 132 callsubr
            return
          </CharString>
          <CharString index="194">
            rlinecurve
            29 296 52 44 57 47 47 39 rlinecurve
            42 -9 return
          </CharString>
          <CharString index="195">
            429 callgsubr
            42 56 196 97 93 vvcurveto
            16 return
          </CharString>
          <CharString index="196">
            143 callgsubr
            53 21 return
          </CharString>
          <CharString index="197">
            32 88 38 88 32 75 -28 57 -56 36 -45 5 -126 -2 -239 -101 135 callgsubr
            return
          </CharString>
          <CharString index="198">
            -56 callsubr
            -5 -87 callgsubr
            -74 -115 -75 -98 -11 -13 7 -12 8 -11 177 callsubr
            42 -71 79 -105 101 -74 54 17 25 39 -14 45 -70 55 -48 59 -30 457 callsubr
            34 -1 36 7 37 13 rrcurveto
            -19 33 52 -29 25 hhcurveto
            return
          </CharString>
          <CharString index="199">
            hlineto
            153 callsubr
            return
          </CharString>
          <CharString index="200">
            rmoveto
            -17 16 -15 22 17 vvcurveto
            28 44 43 31 5 vhcurveto
            39 -11 19 -46 -48 vvcurveto
            -17 -3 -18 -6 -16 vhcurveto
            return
          </CharString>
          <CharString index="201">
            50 -21 185 callgsubr
            return
          </CharString>
          <CharString index="202">
            vvcurveto
            -97 107 -86 137 -16 vhcurveto
            47 58 40 46 callsubr
            -29 -31 -54 -63 -50 174 callsubr
            167 callsubr
            rrcurveto
            endchar
          </CharString>
          <CharString index="203">
            rmoveto
            56 -117 26 -13 61 -13 44 39 rlinecurve
            -85 156 -33 20 -44 7 -53 -11 rlinecurve
            -173 -159 2 -25 26 -10 29 -1 rlinecurve
            return
          </CharString>
          <CharString index="204">
            rmoveto
            23 41 -1 32 -22 18 -166 -31 rcurveline
            49 156 -37 34 -56 -5 -72 -41 rlinecurve
            9 -162 -137 2 -24 -35 0 -28 24 -28 rlinecurve
            130 23 -27 -131 -27 -102 -46 -156 rlinecurve
            return
          </CharString>
          <CharString index="205">
            43 41 49 44 27 return
          </CharString>
          <CharString index="206">
            -42 -10 callgsubr
            return
          </CharString>
          <CharString index="207">
            32 88 38 88 32 75 rrcurveto
            57 -28 -61 41 -48 hhcurveto
            -85 -151 -134 -96 -56 hvcurveto
            7 -40 39 -27 52 -5 52 84 71 81 56 37 11 -6 rcurveline
            -15 -65 -19 -85 -20 -93 51 callgsubr
            -199 -37 -152 51 callsubr
            return
          </CharString>
          <CharString index="208">
            -6 -72 callsubr
            return
          </CharString>
          <CharString index="209">
            -50 -49 -57 -55 -53 -49 -10 10 rcurveline
            271 callgsubr
            return
          </CharString>
          <CharString index="210">
            hlineto
            -24 26 -41 360 callsubr
            return
          </CharString>
          <CharString index="211">
            126 hlineto
            167 callsubr
            return
          </CharString>
          <CharString index="212">
            570 rmoveto
            40 19 15 18 1 26 rrcurveto
            60 -74 66 -63 -58 -53 -41 -55 -31 vhcurveto
            12 -25 31 -35 20 -15 12 3 18 8 7 11 -16 35 rcurveline
            14 13 17 11 23 hhcurveto
            22 21 -16 -39 7 hvcurveto
            -93 -66 -2 -32 45 -14 25 -15 16 -22 rlinecurve
            -41 -37 -54 -20 -103 -22 -5 -22 11 -31 18 -13 143 12 123 52 5 67 5 48 -50 28 -56 20 rrcurveto
            return
          </CharString>
          <CharString index="213">
            rmoveto
            31 44 34 228 13 109 -10 83 rlinecurve
            -42 9 -55 2 -56 -53 31 -214 rcurveline
            -29 -161 -41 -200 -59 -164 21 -40 88 -13 55 27 12 81 8 71 7 63 50 -92 83 -87 100 -51 68 28 32 62 -31 38 -138 35 -78 62 -50 79 87 58 96 38 100 25 rrcurveto
            40 62 -35 61 -51 7 -111 -60 -76 -62 -88 -86 rrcurveto
            endchar
          </CharString>
          <CharString index="214">
            vlineto
            200 callsubr
            -33 -53 -55 343 callsubr
          </CharString>
          <CharString index="215">
            34 34 17 45 -13 32 return
          </CharString>
          <CharString index="216">
            -31 2 -31 -8 -32 rrcurveto
            return
          </CharString>
          <CharString index="217">
            rmoveto
            19 -8 26 -3 27 2 90 116 rcurveline
            30 61 -20 10 -46 0 -44 -10 rlinecurve
            86 -168 rmoveto
            16 -8 25 -3 24 2 95 116 rcurveline
            30 61 -20 10 -45 0 -46 -10 rlinecurve
            return
          </CharString>
          <CharString index="218">
            171 callgsubr
            -10 hvcurveto
            75 45 59 66 63 -41 callgsubr
            return
          </CharString>
          <CharString index="219">
            10 -7 rcurveline
            -46 209 callsubr
            return
          </CharString>
          <CharString index="220">
            211 callgsubr
            -41 return
          </CharString>
          <CharString index="221">
            8 rcurveline
            34 -1 37 7 36 13 rrcurveto
            -15 32 44 -19 25 hhcurveto
            47 110 40 51 76 hvcurveto
            9 -11 -38 564 callsubr
            return
          </CharString>
          <CharString index="222">
            hlineto
            9 callsubr
            return
          </CharString>
          <CharString index="223">
            -128 hlineto
            -24 26 -41 10 -78 -6 return
          </CharString>
          <CharString index="224">
            -4 -6 -5 -5 -4 return
          </CharString>
          <CharString index="225">
            29 307 callgsubr
            -19 -51 -77 -57 -68 -14 rrcurveto
            return
          </CharString>
          <CharString index="226">
            133 callsubr
            -5 -30 rcurveline
            return
          </CharString>
          <CharString index="227">
            -4 callgsubr
            333 272 rmoveto
            -128 hlineto
            -24 26 -41 10 return
          </CharString>
          <CharString index="228">
            2 7 rcurveline
            422 callsubr
            34 28 19 47 -9 35 -10 15 -12 12 -16 10 rrcurveto
            return
          </CharString>
          <CharString index="229">
            rmoveto
            38 callsubr
            return
          </CharString>
          <CharString index="230">
            61 47 310 -77 callsubr
            return
          </CharString>
          <CharString index="231">
            rmoveto
            -31 -57 -43 -32 -65 -12 -51 41 -27 64 -2 304 callsubr
            -103 23 103 -90 71 hhcurveto
            77 101 42 66 48 hvcurveto
            -15 42 -32 20 -37 -10 rrcurveto
            endchar
          </CharString>
          <CharString index="232" raw="1">
            887e897e cd39f719 651d0b 
          </CharString>
          <CharString index="233">
            455 rmoveto
            -62 -70 -74 -67 -59 -40 -7 265 callgsubr
            -55 24 -24 6 -46 0 -34 -5 -33 -15 -35 -24 -31 -28 -1 1 rcurveline
            -65 -58 -83 -61 -62 -43 198 callsubr
            582 78 callgsubr
            return
          </CharString>
          <CharString index="234">
            -64 -32 -61 -3 -58 11 -21 18 -18 15 -15 20 -46 4 -39 -41 -14 -61 15 -7 20 -11 3 -15 -4 -39 -56 -58 -57 -13 -34 24 -13 46 6 48 5 46 36 44 41 33 rrcurveto
            -1 42 -35 28 -54 -3 -68 -43 -41 -78 -9 -56 -3 -100 72 -97 83 -15 77 -3 189 callgsubr
            -12 28 rcurveline
            5 6 37 -11 return
          </CharString>
          <CharString index="235">
            -84 123 -23 vhcurveto
            111 74 callsubr
            rrcurveto
            28 21 27 32 24 vhcurveto
            70 28 return
          </CharString>
          <CharString index="236">
            rmoveto
            -41 -27 -47 166 callsubr
            56 12 346 callsubr
            return
          </CharString>
          <CharString index="237">
            623 -97 callgsubr
            return
          </CharString>
          <CharString index="238">
            307 callsubr
            -32 -61 rrcurveto
            -50 53 -50 return
          </CharString>
          <CharString index="239">
            533 callgsubr
            27 -37 21 -37 rrcurveto
            return
          </CharString>
          <CharString index="240">
            hlineto
            -78 callsubr
            return
          </CharString>
          <CharString index="241">
            -4 189 callgsubr
            return
          </CharString>
          <CharString index="242">
            -69 -49 rlinecurve
            -7 6 10 16 9 17 9 16 rlinecurve
            -4 51 -25 44 -45 22 -30 9 -50 0 -43 -6 rrcurveto
            -84 -37 -95 -97 -77 vvcurveto
            -72 64 -110 103 -76 vhcurveto
            68 13 28 49 -8 35 -80 53 -31 53 -11 55 1 55 43 60 44 17 30 -7 18 -22 5 -24 -5 -21 -14 -23 -17 -22 1 -33 46 -38 65 -7 return
          </CharString>
          <CharString index="243">
            16 rrcurveto
            261 -107 callsubr
          </CharString>
          <CharString index="244">
            hlineto
            -26 -144 80 callsubr
            return
          </CharString>
          <CharString index="245">
            47 -40 73 -11 41 21 rlinecurve
            41 420 return
          </CharString>
          <CharString index="246">
            hlineto
            141 callsubr
            return
          </CharString>
          <CharString index="247">
            20 -104 callsubr
          </CharString>
          <CharString index="248">
            -99 callgsubr
            rlineto
            39 -29 230 callgsubr
            -125 -44 callgsubr
            103 -3 hvcurveto
            213 callgsubr
            42 43 10 369 callsubr
            return
          </CharString>
          <CharString index="249">
            rmoveto
            -27 11 -22 17 -18 28 37 18 38 18 37 19 -8 -37 551 callsubr
            return
          </CharString>
          <CharString index="250">
            42 callsubr
            269 callsubr
            -2 -14 -4 -25 -6 -28 rlinecurve
            -64 297 callsubr
            44 3 54 21 20 28 13 36 14 51 14 56 rrcurveto
            return
          </CharString>
          <CharString index="251">
            rmoveto
            -29 27 callsubr
            return
          </CharString>
          <CharString index="252">
            428 rmoveto
            -65 -59 -97 -67 -70 -45 -10 5 rcurveline
            13 76 14 50 267 callgsubr
            return
          </CharString>
          <CharString index="253">
            -6 21 callsubr
            return
          </CharString>
          <CharString index="254">
            376 callgsubr
            444 callgsubr
            return
          </CharString>
          <CharString index="255">
            -94 callgsubr
            118 18 165 86 87 return
          </CharString>
          <CharString index="256">
            131 44 110 -32 443 callgsubr
            return
          </CharString>
          <CharString index="257">
            rmoveto
            -82 -70 -44 -70 -23 hvcurveto
            -71 -23 53 -42 71 hhcurveto
            81 71 46 67 23 hvcurveto
            78 27 -59 36 -69 hhcurveto
            -23 -40 rmoveto
            26 7 -28 -46 -12 hvcurveto
            -7 -27 -10 -23 -13 -17 rrcurveto
            -4 -7 -5 -3 -10 hhcurveto
            -26 -8 28 46 14 hvcurveto
            6 26 12 25 11 16 rrcurveto
            4 7 8 3 7 hhcurveto
            return
          </CharString>
          <CharString index="258">
            rcurveline
            75 callgsubr
            return
          </CharString>
          <CharString index="259">
            552 callgsubr
            -42 35 -51 59 -29 66 -11 42 3 53 21 15 28 8 45 2 50 -10 48 return
          </CharString>
          <CharString index="260">
            -3 -2 -3 -3 -3 -2 -16 -33 30 103 callgsubr
            return
          </CharString>
          <CharString index="261">
            425 rmoveto
            80 callsubr
            return
          </CharString>
          <CharString index="262">
            -31 28 8 callsubr
            return
          </CharString>
          <CharString index="263">
            -52 310 callgsubr
            28 105 36 142 32 91 -30 45 -40 21 -51 -7 -20 -36 -27 -46 178 callgsubr
            return
          </CharString>
          <CharString index="264">
            -13 rlinecurve
            -33 -42 33 30 4 hvcurveto
            49 60 175 84 4 119 -1 59 -66 88 370 callsubr
            22 -5 25 -5 26 -4 rrcurveto
            -83 -61 -119 -42 -50 vvcurveto
            -71 106 -74 77 61 110 72 83 80 vhcurveto
            10 -10 -40 -65 return
          </CharString>
          <CharString index="265">
            195 callgsubr
            27 -38 21 -38 rrcurveto
            return
          </CharString>
          <CharString index="266">
            rmoveto
            -71 -65 -79 -60 162 callgsubr
            return
          </CharString>
          <CharString index="267">
            -95 -410 47 -40 72 -11 42 -14 callgsubr
            return
          </CharString>
          <CharString index="268">
            394 callsubr
            54 11 hvcurveto
            25 -8 18 -37 8 -34 rrcurveto
            return
          </CharString>
          <CharString index="269">
            -20 callsubr
            -78 40 -82 68 -61 46 4 8 rcurveline
            return
          </CharString>
          <CharString index="270">
            455 callgsubr
            68 -20 358 callsubr
            return
          </CharString>
          <CharString index="271">
            305 callgsubr
            -40 47 -34 -1 rlinecurve
            return
          </CharString>
          <CharString index="272">
            112 14 175 96 67 64 10 -11 rcurveline
            -27 -36 return
          </CharString>
          <CharString index="273">
            -31 -48 -24 rrcurveto
            -18 14 -8 23 25 vvcurveto
            65 45 80 return
          </CharString>
          <CharString index="274">
            15 15 callgsubr
            return
          </CharString>
          <CharString index="275">
            rmoveto
            0 vlineto
            -57 -84 return
          </CharString>
          <CharString index="276">
            -82 -112 -40 rlinecurve
            286 callgsubr
            95 54 119 86 55 64 10 -7 rcurveline
            -46 -108 44 -33 66 -10 41 20 147 callgsubr
            -41 -27 -47 -27 -50 -26 15 75 11 76 8 70 564 callgsubr
            -49 -1 return
          </CharString>
          <CharString index="277">
            -18 -8 4 -8 3 -7 2 -48 -4 -49 -39 -23 -33 -16 -68 28 -66 29 -62 -74 -54 -94 -49 -80 -18 rrcurveto
            320 184 rmoveto
            -14 36 -10 33 3 27 4 12 6 8 9 3 19 -6 27 -20 5 -19 -6 -22 -17 -25 -26 -27 rrcurveto
            280 309 rmoveto
            return
          </CharString>
          <CharString index="278">
            180 callsubr
            20 -27 -41 vvcurveto
            -73 -44 -56 -98 -71 vhcurveto
            41 -46 rlineto
            121 267 callsubr
            -115 -14 vhcurveto
            -55 -53 return
          </CharString>
          <CharString index="279">
            47 48 39 rlinecurve
            41 -9 21 -27 -41 vvcurveto
            -73 -44 -56 -98 -71 vhcurveto
            40 -46 rlineto
            122 81 return
          </CharString>
          <CharString index="280">
            295 callgsubr
            -44 -45 -41 15 callsubr
          </CharString>
          <CharString index="281">
            459 callgsubr
            18 389 callsubr
            return
          </CharString>
          <CharString index="282">
            hlineto
            289 32 callgsubr
            return
          </CharString>
          <CharString index="283">
            169 callgsubr
            39 19 39 19 38 return
          </CharString>
          <CharString index="284">
            10 4 callgsubr
            return
          </CharString>
          <CharString index="285">
            21 87 callsubr
            return
          </CharString>
          <CharString index="286">
            49 61 179 94 4 126 return
          </CharString>
          <CharString index="287">
            60 68 63 7 553 callgsubr
            -54 -237 47 -40 73 -11 41 178 callsubr
            return
          </CharString>
          <CharString index="288">
            -20 callgsubr
            17 return
          </CharString>
          <CharString index="289">
            -620 -102 callsubr
            return
          </CharString>
          <CharString index="290">
            -84 -6 -91 -87 -10 -65 8 -42 28 -34 42 -28 return
          </CharString>
          <CharString index="291">
            20 -105 -7 -111 2 -109 16 return
          </CharString>
          <CharString index="292">
            2 24 -6 9 -14 return
          </CharString>
          <CharString index="293">
            -101 -32 rlinecurve
            -8 11 43 49 54 558 callsubr
            -32 -15 -45 -17 -44 -8 rrcurveto
            -12 10 -13 10 22 vvcurveto
            403 callsubr
            -65 -16 return
          </CharString>
          <CharString index="294">
            rmoveto
            -65 -57 -135 -54 492 callgsubr
            -11 115 callgsubr
            return
          </CharString>
          <CharString index="295">
            -100 callsubr
            205 338 callsubr
            return
          </CharString>
          <CharString index="296">
            rlinecurve
            -22 2 -28 24 -1 16 25 34 69 31 65 31 15 34 -20 54 -33 15 -105 -7 -107 2 -109 16 -30 -17 3 -64 43 -34 84 6 82 11 73 10 1 -5 rcurveline
            -77 -44 -132 -31 -50 vvcurveto
            -54 85 -73 80 -7 vhcurveto
            return
          </CharString>
          <CharString index="297">
            rmoveto
            -28 -35 callgsubr
            return
          </CharString>
          <CharString index="298">
            hlineto
            -1 -6 7 362 callsubr
            rlinecurve
            125 -20 -36 -53 -63 -42 -69 -10 rlinecurve
            return
          </CharString>
          <CharString index="299">
            rmoveto
            -29 -35 callgsubr
            return
          </CharString>
          <CharString index="300">
            -49 -54 518 callsubr
            return
          </CharString>
          <CharString index="301">
            223 callsubr
            11 -6 rcurveline
            return
          </CharString>
          <CharString index="302">
            217 callsubr
            -41 10 return
          </CharString>
          <CharString index="303">
            -6 -4 -6 -5 -5 148 callgsubr
            return
          </CharString>
          <CharString index="304">
            245 callsubr
            103 51 return
          </CharString>
          <CharString index="305">
            -10 5 rcurveline
            177 callgsubr
            return
          </CharString>
          <CharString index="306">
            14 6 14 10 12 return
          </CharString>
          <CharString index="307">
            357 callsubr
            75 -34 callgsubr
            return
          </CharString>
          <CharString index="308">
            -35 23 -39 rrcurveto
            return
          </CharString>
          <CharString index="309">
            hlineto
            -9 -35 -7 -34 -4 -32 -11 -36 -6 -35 2 -29 -5 -40 4 -38 7 -29 4 -41 7 -32 6 -6 24 11 50 57 16 71 3 10 3 10 3 12 8 49 5 44 2 42 rrcurveto
            6 27 7 28 6 26 rrcurveto
            return
          </CharString>
          <CharString index="310">
            230 110 rmoveto
            -35 21 -12 33 43 vvcurveto
            2 107 60 108 104 46 41 -26 20 -31 24 -42 -26 -107 rcurveline
            return
          </CharString>
          <CharString index="311">
            319 callsubr
            -185 -380 rmoveto
            -28 169 callgsubr
            37 494 callgsubr
            return
          </CharString>
          <CharString index="312">
            72 16 92 22 56 26 112 callgsubr
            return
          </CharString>
          <CharString index="313">
            282 callgsubr
            -42 237 callsubr
            return
          </CharString>
          <CharString index="314">
            vvcurveto
            493 callsubr
            vhcurveto
            213 callgsubr
            return
          </CharString>
          <CharString index="315">
            26 222 callgsubr
            return
          </CharString>
          <CharString index="316">
            -108 291 callsubr
            return
          </CharString>
          <CharString index="317">
            14 -14 277 callgsubr
            return
          </CharString>
          <CharString index="318">
            66 -82 133 -63 callgsubr
            -62 46 5 114 callsubr
            return
          </CharString>
          <CharString index="319">
            -6 rlinecurve
            -43 -27 -49 -27 -53 -28 6 42 5 41 -11 callgsubr
          </CharString>
          <CharString index="320">
            93 56 13 vhcurveto
            return
          </CharString>
          <CharString index="321">
            rmoveto
            28 -52 32 -82 19 -80 32 1 15 6 7 17 -23 57 -15 49 -4 60 12 9 rcurveline
            36 -10 29 -23 29 -36 525 callsubr
            -54 -9 -28 -28 -22 -39 rrcurveto
            endchar
          </CharString>
          <CharString index="322">
            45 78 31 129 -12 58 -21 78 -171 49 -118 45 2 7 rcurveline
            422 callsubr
            34 28 19 47 -10 247 callsubr
            284 -107 callsubr
          </CharString>
          <CharString index="323">
            rmoveto
            -29 15 -14 26 38 vvcurveto
            30 8 27 14 24 vhcurveto
            30 -36 40 -38 31 -27 -26 -19 -27 -21 -27 -19 rrcurveto
            return
          </CharString>
          <CharString index="324">
            176 callgsubr
            -65 -4 -67 -46 -38 557 callsubr
            return
          </CharString>
          <CharString index="325">
            371 -66 rmoveto
            -1 -67 30 -66 49 -51 38 6 20 17 -1 30 -46 51 -13 39 -9 80 -32 29 -21 8 -46 -3 -62 -38 -66 -76 -51 -83 rrcurveto
            -31 26 -33 68 6 vhcurveto
            27 83 32 57 52 46 rrcurveto
            return
          </CharString>
          <CharString index="326">
            328 callgsubr
            3 199 callsubr
            return
          </CharString>
          <CharString index="327">
            rmoveto
            -37 -29 -29 -36 -35 29 -29 37 36 29 29 35 36 -29 29 -36 hvcurveto
            return
          </CharString>
          <CharString index="328">
            31 -37 60 17 27 33 -11 40 return
          </CharString>
          <CharString index="329">
            -82 callsubr
            225 hlineto
            -75 -35 -76 -43 -41 -47 -10 -49 50 -46 47 -18 54 7 38 16 39 12 6 -7 rcurveline
            -62 -49 -101 -41 -32 -60 rrcurveto
            -49 58 -38 68 -17 vhcurveto
            return
          </CharString>
          <CharString index="330">
            242 callgsubr
            20 53 19 78 15 82 45 24 45 25 44 26 return
          </CharString>
          <CharString index="331">
            -50 -18 -58 -7 -50 -2 -15 8 -14 9 -15 11 rrcurveto
            79 45 63 68 65 -41 callgsubr
            return
          </CharString>
          <CharString index="332">
            425 callgsubr
            597 415 rmoveto
            return
          </CharString>
          <CharString index="333">
            -46 rrcurveto
            -29 208 callgsubr
            return
          </CharString>
          <CharString index="334">
            hlineto
            41 374 callgsubr
            return
          </CharString>
          <CharString index="335">
            -52 59 -28 66 return
          </CharString>
          <CharString index="336">
            324 callsubr
            -79 callsubr
            124 hlineto
            14 15 callgsubr
            rrcurveto
            endchar
          </CharString>
          <CharString index="337">
            -2 -6 rcurveline
            -60 -35 -82 -24 -71 -22 rrcurveto
            -49 -37 -32 -39 -50 vvcurveto
            -74 80 -65 113 -22 vhcurveto
            151 4 119 95 -6 115 -23 31 -48 30 -46 20 32 23 13 39 -8 31 -14 return
          </CharString>
          <CharString index="338">
            273 callsubr
            30 64 23 34 35 32 rrcurveto
            return
          </CharString>
          <CharString index="339">
            hlineto
            -48 -365 190 callsubr
            return
          </CharString>
          <CharString index="340">
            16 -26 -10 -10 rlineto
            91 -75 -90 84 -58 hhcurveto
            456 callsubr
            return
          </CharString>
          <CharString index="341">
            -188 rmoveto
            485 callgsubr
            return
          </CharString>
          <CharString index="342">
            -26 -38 vvcurveto
            -69 -31 -62 -95 -75 vhcurveto
            return
          </CharString>
          <CharString index="343">
            4 353 callsubr
            14 143 16 121 11 132 rrcurveto
            endchar
          </CharString>
          <CharString index="344">
            -67 -40 -169 return
          </CharString>
          <CharString index="345">
            336 callgsubr
            66 -10 41 545 callgsubr
            return
          </CharString>
          <CharString index="346">
            41 -27 27 -37 3 -38 -39 -48 -24 -52 -10 -78 23 -38 46 -3 47 22 63 73 40 48 6 return
          </CharString>
          <CharString index="347">
            -5 87 -59 69 -108 -9 113 callsubr
            -43 466 callsubr
            return
          </CharString>
          <CharString index="348">
            -121 439 callsubr
            113 -3 hvcurveto
            return
          </CharString>
          <CharString index="349">
            rmoveto
            41 42 47 34 6 vhcurveto
            35 -6 23 -50 -31 vvcurveto
            return
          </CharString>
          <CharString index="350">
            -19 31 -43 235 callgsubr
            return
          </CharString>
          <CharString index="351">
            319 callgsubr
            -6 -30 rcurveline
            return
          </CharString>
          <CharString index="352">
            vvcurveto
            -77 85 -84 122 363 callgsubr
            return
          </CharString>
          <CharString index="353">
            -1 -6 8 -42 28 -34 42 -28 rlinecurve
            84 -16 return
          </CharString>
          <CharString index="354">
            35 -9 15 -13 12 -15 10 rrcurveto
            return
          </CharString>
          <CharString index="355">
            -13 54 -16 50 -106 32 -76 26 121 callsubr
            179 -107 callsubr
          </CharString>
          <CharString index="356">
            75 callsubr
            80 -7 vhcurveto
            return
          </CharString>
          <CharString index="357">
            -180 rmoveto
            -58 -87 8 -18 18 -9 23 1 rlinecurve
            75 59 52 80 return
          </CharString>
          <CharString index="358" raw="1">
            444a3c4f 465d0b  
          </CharString>
          <CharString index="359">
            546 callgsubr
            -173 -184 rmoveto
            -23 13 -14 27 38 vvcurveto
            39 12 40 20 33 vhcurveto
            28 -35 40 -40 33 514 callgsubr
            return
          </CharString>
          <CharString index="360">
            81 -59 61 -52 -177 -114 -36 -57 9 -43 40 -16 rlinecurve
            108 86 129 95 rlineto
            8 18 4 18 18 vvcurveto
            -172 216 rlineto
            -39 -29 -57 -53 13 hvcurveto
            endchar
          </CharString>
          <CharString index="361">
            110 8 100 65 61 vvcurveto
            27 -20 18 -29 13 vhcurveto
            3 7 22 -7 25 -5 29 1 rlinecurve
            return
          </CharString>
          <CharString index="362">
            40 -82 68 -61 460 callgsubr
            48 return
          </CharString>
          <CharString index="363">
            407 callsubr
            hvcurveto
            return
          </CharString>
          <CharString index="364">
            9 -37 49 -21 66 5 30 151 51 219 46 122 490 callgsubr
            -26 447 callgsubr
            return
          </CharString>
          <CharString index="365">
            327 callsubr
            -93 -100 -248 -30 -129 vvcurveto
            -97 return
          </CharString>
          <CharString index="366">
            299 callsubr
            258 hlineto
            29 -18 20 -14 16 -25 -3 -7 rcurveline
            -54 -42 -121 -48 -76 -44 -22 -19 -14 -33 -3 -32 22 return
          </CharString>
          <CharString index="367">
            -322 111 348 19 callsubr
            return
          </CharString>
          <CharString index="368">
            14 rcurveline
            205 callsubr
            return
          </CharString>
          <CharString index="369">
            534 callgsubr
            -78 40 -82 68 -61 46 4 8 rcurveline
            return
          </CharString>
          <CharString index="370">
            416 callsubr
            32 3 20 2 24 -6 return
          </CharString>
          <CharString index="371">
            -79 -85 6 -20 18 -12 26 -5 rlinecurve
            91 51 71 80 21 83 return
          </CharString>
          <CharString index="372">
            569 rmoveto
            417 callgsubr
            return
          </CharString>
          <CharString index="373">
            -16 55 -53 71 -101 8 -77 -42 -61 -53 -52 -61 return
          </CharString>
          <CharString index="374">
            81 106 309 callgsubr
            -74 60 return
          </CharString>
          <CharString index="375">
            -4 332 callgsubr
            return
          </CharString>
          <CharString index="376">
            102 468 callsubr
            -21 -30 return
          </CharString>
          <CharString index="377">
            3 53 -31 36 -50 14 return
          </CharString>
          <CharString index="378">
            20 20 22 14 21 4 return
          </CharString>
          <CharString index="379">
            462 callgsubr
            -47 -4 -50 -39 -22 -33 -16 -68 28 -67 28 -61 -74 -55 -94 -48 -80 -18 rrcurveto
            321 return
          </CharString>
          <CharString index="380">
            rmoveto
            -47 13 -41 35 283 callgsubr
            -30 27 -24 251 callgsubr
            return
          </CharString>
          <CharString index="381">
            rmoveto
            -14 -103 callsubr
            return
          </CharString>
          <CharString index="382">
            64 -41 callgsubr
            return
          </CharString>
          <CharString index="383">
            29 rcurveline
            5 6 return
          </CharString>
          <CharString index="384">
            -97 252 208 rmoveto
            -41 14 -23 24 -9 23 -10 19 0 16 8 16 22 25 66 24 62 31 30 -17 29 -21 16 -22 -8 -56 -59 -56 -83 -20 rrcurveto
            return
          </CharString>
          <CharString index="385">
            rmoveto
            -27 11 -23 17 -18 29 35 14 37 14 39 14 -9 -33 -11 -31 -12 -28 rrcurveto
            return
          </CharString>
          <CharString index="386">
            hlineto
            362 callgsubr
            12 -35 48 -40 58 -14 103 468 callsubr
            -22 -30 return
          </CharString>
          <CharString index="387">
            -39 -10 -22 -42 hvcurveto
            return
          </CharString>
          <CharString index="388">
            rlinecurve
            42 420 -79 callsubr
            127 -107 callsubr
          </CharString>
          <CharString index="389">
            -8 rcurveline
            -49 -25 -83 209 callgsubr
            return
          </CharString>
          <CharString index="390">
            -81 callsubr
            29 21 return
          </CharString>
          <CharString index="391">
            hlineto
            29 -14 23 -13 19 -23 -4 -8 rcurveline
            -49 -25 -83 -22 return
          </CharString>
          <CharString index="392">
            385 callgsubr
            53 -22 return
          </CharString>
          <CharString index="393">
            428 callsubr
            4 -41 return
          </CharString>
          <CharString index="394">
            -24 6 -25 9 -20 11 rrcurveto
            81 45 64 70 65 -41 callgsubr
            return
          </CharString>
          <CharString index="395">
            hlineto
            -66 callsubr
            return
          </CharString>
          <CharString index="396">
            -16 20 -21 19 -25 16 rrcurveto
            return
          </CharString>
          <CharString index="397">
            47 5 47 375 callsubr
            return
          </CharString>
          <CharString index="398">
            44 535 callsubr
            return
          </CharString>
          <CharString index="399">
            -39 -40 -14 -62 return
          </CharString>
          <CharString index="400">
            -6 -4 -30 46 return
          </CharString>
          <CharString index="401">
            184 rmoveto
            -20 -45 -57 -38 -74 -13 -18 7 -18 9 -16 11 56 39 57 41 40 23 22 -7 19 -13 9 -14 rrcurveto
            294 439 rmoveto
            return
          </CharString>
          <CharString index="402">
            433 rmoveto
            -5 -2 rlineto
            44 -14 -26 38 -39 hhcurveto
            -110 -89 -145 -83 -46 32 -38 57 563 callsubr
            -55 -24 -80 -36 -55 -2 rlinecurve
            return
          </CharString>
          <CharString index="403">
            505 callgsubr
            rrcurveto
            -17 20 -23 19 -27 16 rrcurveto
            262 -93 callgsubr
          </CharString>
          <CharString index="404">
            -6 -62 -15 -52 -26 rrcurveto
            -27 -14 -12 -34 -39 vvcurveto
            31 -56 55 -40 69 -14 return
          </CharString>
          <CharString index="405">
            rmoveto
            -35 -29 -28 -35 -35 29 -28 35 35 90 callgsubr
            -35 hvcurveto
            return
          </CharString>
          <CharString index="406">
            rmoveto
            182 callsubr
            return
          </CharString>
          <CharString index="407">
            -26 -38 vvcurveto
            -72 -35 -62 -97 -75 vhcurveto
            -3 -16 15 -15 return
          </CharString>
          <CharString index="408" raw="1">
            163a0a0b   
          </CharString>
          <CharString index="409">
            396 callgsubr
            -55 -51 return
          </CharString>
          <CharString index="410">
            193 callgsubr
            67 15 vhcurveto
            return
          </CharString>
          <CharString index="411">
            77 -46 20 -43 -19 -31 -49 rrcurveto
            return
          </CharString>
          <CharString index="412">
            375 callgsubr
            -12 return
          </CharString>
          <CharString index="413">
            20 -40 98 -14 50 26 return
          </CharString>
          <CharString index="414">
            -6 rcurveline
            -67 -53 -97 -35 return
          </CharString>
          <CharString index="415">
            116 rcurveline
            161 hlineto
            return
          </CharString>
          <CharString index="416">
            37 27 25 18 44 return
          </CharString>
          <CharString index="417">
            7 2 31 -37 42 -28 86 -19 rlinecurve
            72 30 44 47 25 40 5 27 -31 17 -35 -6 -64 -81 rcurveline
            304 callgsubr
            return
          </CharString>
          <CharString index="418">
            199 326 callsubr
            return
          </CharString>
          <CharString index="419">
            -38 -8 11 rcurveline
            45 49 63 52 57 42 6 56 -39 32 -46 12 -40 -14 -35 -13 -45 -9 -6 10 rcurveline
            51 51 89 54 76 40 rrcurveto
            return
          </CharString>
          <CharString index="420">
            -319 206 600 rmoveto
            43 35 37 42 -1 hvcurveto
            45 -1 -35 34 -43 hhcurveto
            -46 -37 -34 -45 1 hvcurveto
            -42 1 36 -37 47 hhcurveto
            return
          </CharString>
          <CharString index="421">
            440 187 callsubr
            return
          </CharString>
          <CharString index="422">
            -102 373 264 rmoveto
            -18 -32 -53 -35 -57 -10 -15 5 -13 8 -13 8 46 32 47 31 34 21 21 -7 12 -7 9 -14 rrcurveto
            return
          </CharString>
          <CharString index="423">
            50 606 382 rmoveto
            -261 -18 -261 5 -23 -31 -5 -33 15 -16 rlinecurve
            519 344 callgsubr
          </CharString>
          <CharString index="424">
            hlineto
            -25 -113 -62 -70 -74 -68 -61 -40 rlinecurve
            -6 550 callsubr
            return
          </CharString>
          <CharString index="425">
            470 callgsubr
            -74 return
          </CharString>
          <CharString index="426">
            5 -62 hhcurveto
            11 74 8 79 5 68 rrcurveto
            return
          </CharString>
          <CharString index="427">
            -6 44 1 45 21 37 30 rlinecurve
            6 -6 return
          </CharString>
          <CharString index="428">
            hlineto
            417 callgsubr
            return
          </CharString>
          <CharString index="429">
            -51 -28 -31 -33 hvcurveto
            -8 -46 return
          </CharString>
          <CharString index="430">
            305 callsubr
            42 return
          </CharString>
          <CharString index="431">
            192 callgsubr
            138 callsubr
            return
          </CharString>
          <CharString index="432">
            -43 -22 -36 28 356 callgsubr
            61 354 callsubr
            47 -40 73 -11 41 21 rlinecurve
            return
          </CharString>
          <CharString index="433">
            178 95 48 callgsubr
            return
          </CharString>
          <CharString index="434">
            -64 658 623 93 callgsubr
            return
          </CharString>
          <CharString index="435">
            -245 138 callsubr
            return
          </CharString>
          <CharString index="436">
            78 -4 142 84 5 457 callgsubr
            return
          </CharString>
          <CharString index="437">
            517 callsubr
            34 return
          </CharString>
          <CharString index="438">
            13 -49 536 callgsubr
            return
          </CharString>
          <CharString index="439">
            -22 18 -19 29 return
          </CharString>
          <CharString index="440">
            -3 -101 72 -97 return
          </CharString>
          <CharString index="441">
            5 -22 20 -16 19 -30 callgsubr
            return
          </CharString>
          <CharString index="442">
            207 511 36 callsubr
            return
          </CharString>
          <CharString index="443">
            93 callgsubr
            -93 -100 -248 return
          </CharString>
          <CharString index="444">
            463 callgsubr
            -63 -31 -80 -16 -85 -17 return
          </CharString>
          <CharString index="445">
            hlineto
            18 -89 rlineto
            return
          </CharString>
          <CharString index="446">
            6 -189 103 -153 231 -33 285 24 125 176 36 193 -26 202 -52 142 -271 33 return
          </CharString>
          <CharString index="447">
            hlineto
            -278 -323 rmoveto
            139 callgsubr
            65 13 22 rcurveline
            25 -37 37 -38 45 -39 -54 -43 -59 -45 -46 -32 rrcurveto
            return
          </CharString>
          <CharString index="448">
            rlineto
            -124 -56 callsubr
            -125 -528 236 callgsubr
            41 21 rlinecurve
            14 return
          </CharString>
          <CharString index="449">
            rmoveto
            -127 -94 callsubr
            -488 -100 callsubr
            205 hlineto
            return
          </CharString>
          <CharString index="450">
            -245 -74 callsubr
          </CharString>
          <CharString index="451">
            -42 199 callgsubr
            33 61 return
          </CharString>
          <CharString index="452">
            -33 121 -249 54 52 vvcurveto
            return
          </CharString>
          <CharString index="453">
            vhcurveto
            27 -9 25 201 callsubr
            return
          </CharString>
          <CharString index="454">
            6 -70 18 -33 18 5 261 callsubr
            return
          </CharString>
          <CharString index="455">
            rmoveto
            -44 -9 callgsubr
            -22 11 -13 22 40 vvcurveto
            83 60 93 57 13 vhcurveto
            26 -9 26 -35 22 -39 rrcurveto
            return
          </CharString>
          <CharString index="456">
            -12 -13 -15 -17 -13 rrcurveto
            2 -21 40 -25 50 10 rrcurveto
            31 35 return
          </CharString>
          <CharString index="457">
            382 -97 callgsubr
            return
          </CharString>
          <CharString index="458">
            66 41 46 26 62 41 10 -17 rcurveline
            -75 -65 return
          </CharString>
          <CharString index="459">
            hlineto
            -27 -121 -33 -37 -45 -30 -48 -3 rlinecurve
            return
          </CharString>
          <CharString index="460">
            41 -8 18 -43 1 -42 -32 -46 -26 -55 -20 return
          </CharString>
          <CharString index="461">
            65 11 -10 rcurveline
            -37 -51 -28 -119 return
          </CharString>
          <CharString index="462">
            65 180 callgsubr
            return
          </CharString>
          <CharString index="463">
            455 callsubr
            -9 7 rcurveline
            return
          </CharString>
          <CharString index="464">
            -75 73 517 callgsubr
            return
          </CharString>
          <CharString index="465">
            58 330 callsubr
            return
          </CharString>
          <CharString index="466">
            -14 vhcurveto
            -55 -53 -54 -52 return
          </CharString>
          <CharString index="467">
            10 -78 -6 -6 -30 rcurveline
            return
          </CharString>
          <CharString index="468">
            14 18 14 22 12 19 return
          </CharString>
          <CharString index="469">
            -40 37 -46 38 -25 return
          </CharString>
          <CharString index="470">
            hmoveto
            59 callsubr
            return
          </CharString>
          <CharString index="471">
            204 rmoveto
            -28 12 -19 14 -16 25 36 18 35 18 35 19 -10 -33 -11 -34 -12 -33 rrcurveto
            92 401 rmoveto
            return
          </CharString>
          <CharString index="472">
            44 -33 65 -10 42 20 rlinecurve
            41 420 70 -55 callsubr
            123 -93 callgsubr
          </CharString>
          <CharString index="473">
            -11 43 1 56 15 27 28 19 61 17 69 15 71 45 24 44 25 43 27 9 -5 rcurveline
            -51 -220 return
          </CharString>
          <CharString index="474">
            -94 callsubr
            -434 -102 callsubr
            436 hlineto
            return
          </CharString>
          <CharString index="475">
            451 callgsubr
            14 25 380 callsubr
            597 415 rmoveto
            return
          </CharString>
          <CharString index="476">
            -27 callgsubr
            47 -40 73 -11 41 21 rlinecurve
            return
          </CharString>
          <CharString index="477">
            -75 8 183 callsubr
            return
          </CharString>
          <CharString index="478">
            329 callsubr
            27 -6 return
          </CharString>
          <CharString index="479">
            475 callsubr
            86 return
          </CharString>
          <CharString index="480">
            34 228 callsubr
            return
          </CharString>
          <CharString index="481">
            -4 -37 -56 -63 -57 return
          </CharString>
          <CharString index="482">
            5 46 36 45 return
          </CharString>
          <CharString index="483">
            157 498 rmoveto
            40 58 68 59 54 28 307 callgsubr
            -20 -47 -73 -53 -60 -14 rrcurveto
            return
          </CharString>
          <CharString index="484">
            355 rmoveto
            -49 -68 -101 -71 -50 474 callsubr
            return
          </CharString>
          <CharString index="485">
            155 callsubr
            31 37 47 386 callgsubr
            21 -24 -20 4 hvcurveto
            -4 -70 -105 -72 -99 -18 return
          </CharString>
          <CharString index="486">
            -35 -33 -61 rrcurveto
            -50 54 -50 68 -17 vhcurveto
            return
          </CharString>
          <CharString index="487">
            15 208 callsubr
            return
          </CharString>
          <CharString index="488">
            -9 -70 -55 -47 -45 -19 return
          </CharString>
          <CharString index="489">
            -25 18 -17 35 -8 39 return
          </CharString>
          <CharString index="490">
            248 callgsubr
            -3 return
          </CharString>
          <CharString index="491">
            16 -84 -6 rlinecurve
            return
          </CharString>
          <CharString index="492">
            68 -55 callsubr
            return
          </CharString>
          <CharString index="493">
            -51 255 77 rmoveto
            -55 35 -27 53 73 vvcurveto
            85 43 83 90 52 vhcurveto
            45 -27 26 -34 27 -48 return
          </CharString>
          <CharString index="494">
            rmoveto
            -3 47 callgsubr
            44 31 48 34 40 29 rrcurveto
            return
          </CharString>
          <CharString index="495">
            -1 -21 -91 23 -20 54 -4 27 8 rlinecurve
            8 104 64 -2 13 12 8 40 -6 17 rlinecurve
            endchar
          </CharString>
          <CharString index="496">
            45 -13 32 -17 20 -24 19 -26 16 rrcurveto
            261 hlineto
            return
          </CharString>
          <CharString index="497">
            rmoveto
            -382 -14 callsubr
            return
          </CharString>
          <CharString index="498">
            hhcurveto
            -111 -88 -131 134 callgsubr
            return
          </CharString>
          <CharString index="499">
            34 89 callsubr
            16 28 10 return
          </CharString>
          <CharString index="500">
            36 133 callgsubr
            return
          </CharString>
          <CharString index="501">
            hhcurveto
            -25 -16 20 29 49 41 90 return
          </CharString>
          <CharString index="502">
            516 callsubr
            -7 -44 rlinecurve
            return
          </CharString>
          <CharString index="503">
            -78 -175 -86 -123 -57 return
          </CharString>
          <CharString index="504">
            vlineto
            167 callsubr
            return
          </CharString>
          <CharString index="505" raw="1">
            f8800aba 630b  
          </CharString>
          <CharString index="506">
            271 callsubr
            rrcurveto
            return
          </CharString>
          <CharString index="507">
            41 47 29 43 30 hvcurveto
            44 return
          </CharString>
          <CharString index="508" raw="1">
            85196070 590b  
          </CharString>
          <CharString index="509">
            2 14 6 14 return
          </CharString>
          <CharString index="510">
            1 5 2 5 2 5 53 -15 rcurveline
            92 23 126 71 30 83 -9 72 -44 38 -44 -2 return
          </CharString>
          <CharString index="511">
            -56 -24 -28 -19 8 -16 13 -8 18 -2 31 2 33 11 57 13 68 17 47 29 35 rrcurveto
            return
          </CharString>
          <CharString index="512">
            444 callsubr
            -66 -4 -67 -46 return
          </CharString>
          <CharString index="513">
            38 9 -6 rcurveline
            return
          </CharString>
          <CharString index="514">
            35 -28 28 -34 return
          </CharString>
          <CharString index="515">
            56 684 rmoveto
            26 20 22 24 27 -20 20 -26 -27 -20 -20 -27 -24 20 -22 27 hvcurveto
            return
          </CharString>
          <CharString index="516">
            59 52 80 7 77 -17 423 callgsubr
            20 -137 rcurveline
            -58 -87 8 -18 18 -9 return
          </CharString>
          <CharString index="517">
            10 -12 10 -1 22 1 5 2 5 2 5 53 -15 rcurveline
            92 23 126 71 30 83 return
          </CharString>
          <CharString index="518">
            -10 -10 -12 -11 -11 -11 329 callgsubr
            32 -9 29 return
          </CharString>
          <CharString index="519">
            57 43 47 9 -10 rcurveline
            -45 -68 -32 -135 104 callgsubr
            return
          </CharString>
          <CharString index="520">
            -14 -103 callsubr
            203 hlineto
            return
          </CharString>
          <CharString index="521">
            -949 -100 callsubr
            return
          </CharString>
          <CharString index="522">
            10 22 vvcurveto
            1 5 2 5 2 5 53 -15 rcurveline
            return
          </CharString>
          <CharString index="523">
            489 callgsubr
            29 16 return
          </CharString>
          <CharString index="524">
            373 callsubr
            -12 42 3 53 return
          </CharString>
          <CharString index="525">
            534 callsubr
            10 -10 rcurveline
            return
          </CharString>
          <CharString index="526">
            -38 -30 vvcurveto
            -24 -9 -23 return
          </CharString>
          <CharString index="527">
            -410 236 callgsubr
            return
          </CharString>
          <CharString index="528">
            42 3 53 21 16 28 return
          </CharString>
          <CharString index="529">
            79 8 59 15 61 28 return
          </CharString>
          <CharString index="530">
            rmoveto
            -29 11 -17 13 -16 25 35 17 34 17 34 17 -8 -33 -10 -31 -12 -29 rrcurveto
            return
          </CharString>
          <CharString index="531">
            hlineto
            413 callsubr
            18 -89 rlineto
            -31 -2 -31 -5 return
          </CharString>
          <CharString index="532">
            -32 -28 rrcurveto
            505 455 rmoveto
            -128 103 callsubr
            return
          </CharString>
          <CharString index="533">
            349 callsubr
            19 45 36 vvcurveto
            50 return
          </CharString>
          <CharString index="534">
            132 callgsubr
            60 52 50 467 callsubr
            return
          </CharString>
          <CharString index="535">
            -25 -18 -12 -34 return
          </CharString>
          <CharString index="536">
            -120 104 -49 return
          </CharString>
          <CharString index="537">
            -40 72 -11 42 21 rlinecurve
            31 184 callgsubr
            -84 -6 rlinecurve
            return
          </CharString>
          <CharString index="538">
            hlineto
            -48 499 callsubr
            19 -10 -39 return
          </CharString>
          <CharString index="539">
            -31 -40 30 30 -2 hvcurveto
            40 51 196 93 86 vvcurveto
            15 -8 15 -14 15 vhcurveto
            return
          </CharString>
          <CharString index="540">
            -91 105 -98 116 -22 165 callsubr
            return
          </CharString>
          <CharString index="541">
            -1 -16 5 -22 20 -16 19 -46 4 292 callsubr
            15 -6 20 -11 3 -15 return
          </CharString>
          <CharString index="542">
            -28 -17 -8 -30 -1 -38 29 -52 53 -27 62 -14 42 3 51 20 28 28 14 return
          </CharString>
          <CharString index="543">
            rcurveline
            271 callgsubr
            377 -107 callsubr
          </CharString>
          <CharString index="544">
            60 52 50 346 callgsubr
            return
          </CharString>
          <CharString index="545">
            30 487 callsubr
            55 15 32 return
          </CharString>
          <CharString index="546">
            -135 -128 -93 75 -59 return
          </CharString>
          <CharString index="547">
            51 63 55 -1 66 -34 28 return
          </CharString>
          <CharString index="548">
            116 22 126 2 64 return
          </CharString>
          <CharString index="549">
            -5 22 -26 -38 vvcurveto
            return
          </CharString>
          <CharString index="550">
            43 -34 27 -55 -2 return
          </CharString>
          <CharString index="551">
            8 rcurveline
            155 4 155 176 callgsubr
            return
          </CharString>
          <CharString index="552">
            165 callsubr
            -29 -123 47 -40 return
          </CharString>
          <CharString index="553">
            522 callgsubr
            3 199 callsubr
            return
          </CharString>
          <CharString index="554">
            hhcurveto
            -12 -13 -1 -2 -14 hvcurveto
            -200 -279 -1 -20 20 -15 15 -11 rlinecurve
            return
          </CharString>
          <CharString index="555">
            -167 -31 -115 -141 -1 -130 -1 -117 80 -105 145 -18 return
          </CharString>
          <CharString index="556">
            20 -90 64 -90 81 -66 522 callgsubr
            return
          </CharString>
          <CharString index="557">
            -60 399 callgsubr
            return
          </CharString>
          <CharString index="558">
            -90 -1 -30 -2 -30 -4 -29 rlinecurve
            return
          </CharString>
          <CharString index="559">
            28 -23 22 -27 -29 -23 -22 -28 return
          </CharString>
          <CharString index="560">
            26 14 11 15 -1 21 -72 79 return
          </CharString>
          <CharString index="561">
            493 callgsubr
            -51 return
          </CharString>
          <CharString index="562">
            211 callgsubr
            -42 -42 return
          </CharString>
          <CharString index="563">
            -40 -57 -34 -44 -30 hvcurveto
            return
          </CharString>
          <CharString index="564">
            47 4 8 rcurveline
            return
          </CharString>
          <CharString index="565">
            rmoveto
            14 54 34 63 40 5 33 -17 19 -43 5 -35 -17 -46 -36 -40 return
          </CharString>
          <CharString index="566">
            -8 -31 -1 -36 242 callgsubr
            return
          </CharString>
          <CharString index="567">
            -85 -129 -97 rlineto
            -8 -17 -4 -18 -18 vvcurveto
            172 -216 rlineto
            40 return
          </CharString>
          <CharString index="568">
            65 11 18 rcurveline
            34 -38 39 -38 35 -32 -51 -39 -56 -38 -46 -29 rrcurveto
            return
          </CharString>
          <CharString index="569">
            rrcurveto
            -21 11 -10 22 31 vvcurveto
            60 44 65 53 12 vhcurveto
            27 -10 17 -24 return
          </CharString>
          <CharString index="570">
            46 4 8 rcurveline
            34 -1 37 7 37 13 return
          </CharString>
          <CharString index="571">
            485 callgsubr
            209 hlineto
            return
          </CharString>
          <CharString index="572">
            390 rmoveto
            -59 -83 -103 -77 -63 -18 rrcurveto
            return
          </CharString>
          <CharString index="573">
            -9 7 395 callgsubr
            return
          </CharString>
          <CharString index="574">
            8 -9 rcurveline
            -32 -53 return
          </CharString>
          <CharString index="575">
            44 rcurveline
            5 -8 return
          </CharString>
          <CharString index="576">
            71 30 83 506 callgsubr
            return
          </CharString>
          <CharString index="577">
            525 callgsubr
            28 -6 44 1 return
          </CharString>
          <CharString index="578">
            hlineto
            36 -17 39 -17 22 -27 -4 -9 rcurveline
            -62 -31 -80 -16 -86 -17 return
          </CharString>
          <CharString index="579">
            hhcurveto
            -44 -46 -26 -26 -21 hvcurveto
            -7 -51 36 -28 64 -21 59 54 rcurveline
            return
          </CharString>
          <CharString index="580" raw="1">
            f8e4fa94 f8451586 8905b77c 72b1641b
            0b   
          </CharString>
          <CharString index="581">
            -16 -36 370 callgsubr
            return
          </CharString>
          <CharString index="582">
            59 123 82 return
          </CharString>
          <CharString index="583">
            -79 144 -5 return
          </CharString>
          <CharString index="584">
            174 206 rmoveto
            -35 13 -19 20 -15 28 30 16 28 15 return
          </CharString>
          <CharString index="585">
            -6 -4 -30 46 -39 464 callgsubr
            return
          </CharString>
          <CharString index="586">
            -9 72 -44 38 -44 -2 -151 -38 -130 -154 -32 -85 return
          </CharString>
          <CharString index="587">
            20 395 callsubr
            return
          </CharString>
          <CharString index="588">
            hlineto
            -30 -129 -93 -53 -123 -34 return
          </CharString>
          <CharString index="589">
            290 callsubr
            42 32 return
          </CharString>
          <CharString index="590">
            268 callsubr
            -32 hhcurveto
            return
          </CharString>
          <CharString index="591">
            -58 -87 8 -18 17 -9 24 1 rlinecurve
            return
          </CharString>
          <CharString index="592">
            hlineto
            -80 -40 -73 -52 -48 -47 return
          </CharString>
          <CharString index="593">
            456 rmoveto
            -62 -70 -74 -68 return
          </CharString>
          <CharString index="594">
            -54 334 callgsubr
            rrcurveto
            45 return
          </CharString>
          <CharString index="595" raw="1">
            fd4b067c 3d1d0b  
          </CharString>
          <CharString index="596">
            61 112 73 84 80 return
          </CharString>
          <CharString index="597">
            -32 -8 -30 -11 -25 rrcurveto
            return
          </CharString>
          <CharString index="598">
            -11 53 -62 54 -79 -44 return
          </CharString>
          <CharString index="599" raw="1">
            85182cfc 2e0b  
          </CharString>
          <CharString index="600">
            -95 79 -49 103 -3 return
          </CharString>
          <CharString index="601">
            111 -25 37 return
          </CharString>
          <CharString index="602" raw="1">
            7e1df7cd 06570b  
          </CharString>
          <CharString index="603">
            -61 -40 rlinecurve
            -6 550 callsubr
            11 19 rlinecurve
            -5 58 return
          </CharString>
          <CharString index="604">
            428 rmoveto
            -64 -59 -96 -67 -71 -45 -10 5 rcurveline
            13 76 return
          </CharString>
          <CharString index="605">
            392 callsubr
            56 return
          </CharString>
          <CharString index="606">
            -365 266 callgsubr
            return
          </CharString>
          <CharString index="607">
            68 81 135 21 hvcurveto
            18 118 -64 90 -91 1 rrcurveto
            return
          </CharString>
          <CharString index="608">
            -6 -4 rlineto
            37 -26 -32 37 -29 hhcurveto
            -110 -99 -109 return
          </CharString>
          <CharString index="609">
            19 64 68 116 rcurveline
            143 hlineto
            -35 -154 -71 return
          </CharString>
          <CharString index="610">
            560 callsubr
            -21 -15 -23 return
          </CharString>
          <CharString index="611">
            rmoveto
            -789 -82 callsubr
            return
          </CharString>
          <CharString index="612">
            532 callsubr
            rrcurveto
            24 -19 -42 23 -37 hhcurveto
            return
          </CharString>
          <CharString index="613">
            117 callgsubr
            167 callgsubr
            -3 return
          </CharString>
          <CharString index="614">
            545 callsubr
            64 -21 return
          </CharString>
          <CharString index="615">
            272 callgsubr
            -4 -2 rlineto
            39 -30 230 callgsubr
            return
          </CharString>
          <CharString index="616">
            rrcurveto
            153 -107 callsubr
          </CharString>
          <CharString index="617">
            440 rmoveto
            -94 -53 -122 -34 return
          </CharString>
          <CharString index="618">
            vvcurveto
            248 callgsubr
            -2 vhcurveto
            return
          </CharString>
          <CharString index="619">
            8 41 15 34 14 6 -6 rcurveline
            return
          </CharString>
          <CharString index="620">
            40 51 75 hvcurveto
            10 -11 -39 -51 return
          </CharString>
          <CharString index="621">
            -2 -25 40 -32 42 -51 11 rlinecurve
            return
          </CharString>
          <CharString index="622">
            -17 5 -22 20 -15 19 -47 4 return
          </CharString>
          <CharString index="623">
            -95 -1 -44 -3 -46 return
          </CharString>
          <CharString index="624">
            430 callgsubr
            58 return
          </CharString>
          <CharString index="625">
            -51 -48 -46 rrcurveto
            return
          </CharString>
          <CharString index="626">
            -24 31 -48 30 -45 20 31 24 14 38 -9 31 return
          </CharString>
          <CharString index="627">
            -30 33 -32 28 -24 -27 -19 -27 -18 -28 -18 rrcurveto
            return
          </CharString>
          <CharString index="628">
            51 -39 50 -17 59 548 callgsubr
            return
          </CharString>
          <CharString index="629">
            382 callgsubr
            2 199 callsubr
            return
          </CharString>
          <CharString index="630">
            -52 -46 15 -43 41 -9 531 callsubr
            return
          </CharString>
          <CharString index="631">
            -21 65 5 30 151 52 219 45 122 return
          </CharString>
          <CharString index="632">
            60 17 27 33 -11 40 -40 40 -59 24 -70 6 return
          </CharString>
          <CharString index="633">
            494 callgsubr
            -7 490 callsubr
            return
          </CharString>
          <CharString index="634">
            11 -44 512 callgsubr
            62 51 return
          </CharString>
          <CharString index="635">
            52 -34 hhcurveto
            -49 -6 -47 -54 -11 -51 rrcurveto
            -36 3 return
          </CharString>
          <CharString index="636">
            168 10 134 rrcurveto
            return
          </CharString>
          <CharString index="637">
            -64 -30 -64 -28 -55 -24 return
          </CharString>
          <CharString index="638">
            42 324 callgsubr
            return
          </CharString>
          <CharString index="639">
            14 59 11 33 24 36 return
          </CharString>
          <CharString index="640">
            12 16 11 17 10 16 return
          </CharString>
          <CharString index="641">
            56 60 55 57 43 47 return
          </CharString>
          <CharString index="642">
            -33 66 -10 41 20 rlinecurve
            return
          </CharString>
          <CharString index="643">
            rrcurveto
            -29 -17 -8 -32 -37 vvcurveto
            29 -51 52 -28 return
          </CharString>
          <CharString index="644">
            8 9 3 18 -6 27 -20 6 -19 -6 -22 return
          </CharString>
          <CharString index="645">
            -7 -22 -17 -20 -54 19 -32 21 -15 54 -28 return
          </CharString>
          <CharString index="646">
            38 18 38 20 -9 -38 551 callsubr
            return
          </CharString>
          <CharString index="647">
            -6 -4 rlineto
            37 -25 -33 37 -28 hhcurveto
            -111 return
          </CharString>
          <CharString index="648">
            -41 -10 -55 -14 -73 -21 -56 -25 -28 -18 7 return
          </CharString>
          <CharString index="649">
            -12 19 -19 221 callsubr
            return
          </CharString>
          <CharString index="650">
            rcurveline
            261 227 callsubr
            rrcurveto
            return
          </CharString>
          <CharString index="651">
            19 -1 30 2 35 11 55 13 68 17 47 return
          </CharString>
          <CharString index="652">
            hhcurveto
            -44 -46 -26 -26 -21 hvcurveto
            -8 -51 36 -28 return
          </CharString>
          <CharString index="653">
            338 callgsubr
            23 11 return
          </CharString>
          <CharString index="654">
            rmoveto
            -39 -8 -18 -31 8 -51 return
          </CharString>
          <CharString index="655">
            15 -1 21 -71 79 -127 return
          </CharString>
          <CharString index="656">
            22 -2 26 -56 57 -33 57 return
          </CharString>
          <CharString index="657">
            4 14 18 14 22 return
          </CharString>
          <CharString index="658">
            -12 -36 -15 -32 rrcurveto
            return
          </CharString>
          <CharString index="659">
            83 114 vvcurveto
            91 return
          </CharString>
          <CharString index="660">
            45 24 44 26 return
          </CharString>
          <CharString index="661">
            -15 rrcurveto
            -11 -31 15 -26 45 -19 52 31 return
          </CharString>
          <CharString index="662">
            -82 59 -60 53 177 113 37 56 return
          </CharString>
          <CharString index="663">
            6 -19 1 -19 -34 -54 -81 -39 -68 -33 return
          </CharString>
          <CharString index="664">
            -48 rrcurveto
            733 hmoveto
            -128 hlineto
            -24 26 return
          </CharString>
          <CharString index="665">
            49 61 44 rlinecurve
            270 callsubr
            return
          </CharString>
          <CharString index="666">
            hvcurveto
            -40 38 -42 46 -35 44 27 46 rcurveline
            return
          </CharString>
          <CharString index="667">
            60 44 17 30 -7 18 -22 5 -24 -6 return
          </CharString>
          <CharString index="668">
            -262 5 -22 -30 -4 -33 14 -17 rlinecurve
            return
          </CharString>
          <CharString index="669">
            303 callgsubr
            28 return
          </CharString>
          <CharString index="670">
            -3 hvcurveto
            4 -5 return
          </CharString>
          <CharString index="671">
            -51 -56 -243 return
          </CharString>
        <CharString name=".notdef">
          148 171 hmoveto
          410 701 -410 hlineto
          66 -61 rmoveto
          279 -579 -279 hlineto
          endchar
        </CharString>
        <CharString name="A">
          65 285 332 rmoveto
          -83 callgsubr
        </CharString>
        <CharString name="AE">
          248 669 741 rmoveto
          -136 -130 -9 -26 -88 hvcurveto
          -87 -233 -55 -102 rlineto
          -117 hlineto
          -28 -34 -2 -26 22 -26 82 6 rcurveline
          -143 -255 18 -34 81 -13 57 23 rlinecurve
          123 287 149 9 -57 -253 rlineto
          -34 29 28 -21 67 hhcurveto
          77 137 12 16 81 hvcurveto
          15 30 16 64 -46 20 -81 -22 -111 -23 -78 -5 rrcurveto
          69 vlineto
          31 151 93 10 46 0 90 -7 rlinecurve
          28 32 4 49 -26 17 -90 -10 -64 -8 -73 -7 5 183 rcurveline
          29 75 61 8 51 4 50 -9 rlinecurve
          67 -57 60 41 25 64 -36 39 rlinecurve
          3 -46 -64 2 -64 hhcurveto
          -261 -109 rmoveto
          12 3 rlineto
          -262 vlineto
          -126 -7 rlineto
          endchar
        </CharString>
        <CharString name="Aacute">
          65 671 961 50 callsubr
          -204 -462 rmoveto
          -83 callgsubr
        </CharString>
        <CharString name="Abreve">
          65 476 806 rmoveto
          56 callgsubr
          -91 19 68 -49 78 hhcurveto
          -191 -474 rmoveto
          -83 callgsubr
        </CharString>
        <CharString name="Acircumflex">
          65 479 926 96 callsubr
          -50 -467 rmoveto
          -83 callgsubr
        </CharString>
        <CharString name="Adieresis">
          65 571 871 -2 callsubr
          -70 -486 rmoveto
          -83 callgsubr
        </CharString>
        <CharString name="Agrave">
          65 454 799 191 callgsubr
          -109 -553 rmoveto
          -83 callgsubr
        </CharString>
        <CharString name="Amacron">
          65 614 823 182 callgsubr
          -481 vmoveto
          -83 callgsubr
        </CharString>
        <CharString name="Aogonek">
          472 callgsubr
          126 -49 rmoveto
          97 6 25 38 1 30 -21 17 rlinecurve
          -108 -20 -17 198 19 170 -42 19 -101 9 -93 -44 rlinecurve
          -84 -239 -74 -141 -108 -3 -27 -33 -1 -27 23 -26 rlinecurve
          70 8 -111 -212 20 -34 80 -13 56 23 rlinecurve
          102 253 32 4 132 8 -20 -243 10 -8 12 -6 13 -5 rlinecurve
          -60 -35 -55 -52 -59 vvcurveto
          -52 76 -46 75 82 56 30 45 42 vhcurveto
          28 -1 -13 14 -21 hhcurveto
          -24 -31 -40 -15 -38 hhcurveto
          -34 -27 13 23 -14 hvcurveto
          16 56 50 46 55 17 8 2 7 3 6 3 rrcurveto
          endchar
        </CharString>
        <CharString name="Aring">
          65 459 905 44 callgsubr
          -174 -460 rmoveto
          -83 callgsubr
        </CharString>
        <CharString name="Atilde">
          65 285 332 rmoveto
          -77 callgsubr
          -79 493 rmoveto
          304 callgsubr
          37 callgsubr
          rrcurveto
          endchar
        </CharString>
        <CharString name="B">
          54 487 540 rmoveto
          -3 -61 -17 -19 -40 -36 -48 -21 -46 -6 -64 1 40 261 rcurveline
          127 15 56 -62 -5 -72 rrcurveto
          -277 -462 rmoveto
          50 258 97 9 49 -13 49 -33 rlinecurve
          11 -23 4 -20 -18 vvcurveto
          -48 -14 -41 -38 -46 vhcurveto
          -61 -20 -78 -9 -69 4 rrcurveto
          279 301 rmoveto
          99 46 48 47 1 91 rrcurveto
          92 -96 87 -201 -65 -94 -8 -17 -61 vhcurveto
          -16 -19 1 -30 28 -20 42 4 rcurveline
          -9 -185 -24 -121 -31 -107 -47 -143 rlinecurve
          4 -53 57 -31 59 -12 137 -5 87 9 115 38 75 73 21 64 1 63 rrcurveto
          29 -7 28 -20 27 vhcurveto
          -26 20 -35 17 -44 9 rrcurveto
          endchar
        </CharString>
        <CharString name="C">
          39 431 671 22 callsubr
        </CharString>
        <CharString name="CR">
          -169 endchar
        </CharString>
        <CharString name="Cacute">
          39 488 1010 -42 callgsubr
          -57 -339 22 callsubr
        </CharString>
        <CharString name="Ccaron">
          39 487 812 rmoveto
          149 143 -17 44 -63 -4 -33 -10 rlinecurve
          -117 -130 -34 callsubr
          -56 -141 22 callsubr
        </CharString>
        <CharString name="Ccedilla">
          39 431 671 rmoveto
          35 -40 8 -59 4 -59 59 -27 68 24 27 38 -9 84 -48 84 -104 38 -156 -24 -104 -79 -84 -85 -51 -87 -28 -74 -1 -82 rrcurveto
          -151 77 -114 176 -49 vhcurveto
          -53 -108 rlineto
          -59 callgsubr
          47 91 86 36 84 53 45 51 rlinecurve
          2 35 -18 31 -44 -6 -45 -42 -66 -43 -81 -31 rrcurveto
          -102 45 -49 65 123 vvcurveto
          127 91 143 129 64 vhcurveto
          endchar
        </CharString>
        <CharString name="D">
          90 244 340 rmoveto
          28 100 26 105 26 102 152 2 62 -105 1 -142 rrcurveto
          -116 -52 -99 -104 -78 vhcurveto
          -57 -17 -52 -6 -64 -2 rrcurveto
          -46 548 rmoveto
          -3 -154 -29 -147 -34 -97 -52 -141 40 callsubr
        </CharString>
        <CharString name="Dcaron">
          90 590 955 rmoveto
          -17 44 -63 -4 -33 -10 -117 -130 rcurveline
          -34 callsubr
          -197 -472 rmoveto
          28 100 26 105 26 102 152 2 62 -105 1 -142 rrcurveto
          -116 -52 -99 -104 -78 vhcurveto
          -57 -17 -52 -6 -64 -2 rrcurveto
          -46 548 rmoveto
          -3 -154 -29 -147 -34 -97 -52 -141 40 callsubr
        </CharString>
        <CharString name="Dcroat">
          43 callsubr
        </CharString>
        <CharString name="E">
          -16 callsubr
          endchar
        </CharString>
        <CharString name="Eacute">
          -7 478 1010 -42 callgsubr
          5 -363 -88 callgsubr
          endchar
        </CharString>
        <CharString name="Ecaron">
          -7 477 812 rmoveto
          149 143 -17 44 -63 -4 -33 -10 rlinecurve
          -117 -130 -34 callsubr
          6 -165 -88 callgsubr
          endchar
        </CharString>
        <CharString name="Ecircumflex">
          -7 225 835 0 callsubr
          85 -347 -88 callgsubr
          endchar
        </CharString>
        <CharString name="Edieresis">
          -7 301 818 -23 callgsubr
          -34 -224 -88 callgsubr
          endchar
        </CharString>
        <CharString name="Edotaccent">
          -16 callsubr
          -71 175 125 callgsubr
          endchar
        </CharString>
        <CharString name="Egrave">
          -16 callsubr
          -94 367 79 callsubr
          endchar
        </CharString>
        <CharString name="Emacron">
          -16 callsubr
          93 247 42 callgsubr
          endchar
        </CharString>
        <CharString name="Eogonek">
          -11 326 646 rmoveto
          67 10 46 -5 44 -4 79 -64 rcurveline
          61 35 25 65 -33 51 -203 8 -117 -3 -171 -15 -14 -14 -1 -26 10 -25 23 -4 20 -5 15 -8 -5 -150 rcurveline
          -32 -155 -33 -98 -53 -144 3 -47 40 -30 72 -18 189 15 rcurveline
          -58 -37 -42 -49 -48 vvcurveto
          -62 69 -48 88 71 57 30 45 39 vhcurveto
          25 -10 15 -26 -1 vhcurveto
          -27 -33 -41 -15 -38 hhcurveto
          -37 -28 11 20 -17 hvcurveto
          12 67 81 62 65 24 29 38 14 65 -50 16 -90 -21 -108 -19 -101 -14 54 237 rcurveline
          79 2 75 -6 74 -6 22 36 9 47 -25 24 -68 -7 -74 -7 -82 -10 28 151 rcurveline
          endchar
        </CharString>
        <CharString name="Eth">
          43 callsubr
        </CharString>
        <CharString name="Euro">
          116 500 262 rmoveto
          25 32 4 34 -25 10 -221 -30 rcurveline
          -1 8 0 8 9 vvcurveto
          18 2 19 3 19 vhcurveto
          227 13 25 33 4 33 -25 11 rlinecurve
          -215 -30 29 81 59 79 86 58 rlinecurve
          18 4 33 -41 9 -25 12 -53 rlinecurve
          62 -26 63 25 20 44 -31 81 -45 49 -98 29 -118 -28 -106 -68 -84 -89 -24 -46 -19 -42 -13 -41 -92 7 rcurveline
          -22 -25 -4 -30 17 -16 87 5 rcurveline
          -3 -19 -2 -19 -20 vvcurveto
          -8 0 -8 1 -8 vhcurveto
          -90 8 -24 -26 -3 -30 18 -17 rlinecurve
          107 6 27 -119 90 -87 167 -34 rlinecurve
          101 35 104 62 51 59 2 35 -18 31 -44 -6 -53 -48 -66 -42 -73 -26 -74 33 -48 45 -20 71 rrcurveto
          endchar
        </CharString>
        <CharString name="F">
          -18 326 647 rmoveto
          67 9 46 -4 44 -4 79 -65 rcurveline
          61 36 25 65 -33 50 -203 9 -117 -4 -171 -15 -14 -13 -1 -27 10 -25 23 -3 20 -6 15 -7 1 -136 rcurveline
          -28 -162 -28 -126 -59 -179 30 -39 100 -12 38 26 7 123 8 79 11 92 81 2 75 -5 72 -8 27 40 1 49 -20 19 -65 -8 -79 -6 -80 -11 27 172 rcurveline
          endchar
        </CharString>
        <CharString name="G">
          78 551 231 -25 callgsubr
          endchar
        </CharString>
        <CharString name="Gbreve">
          78 551 231 -25 callgsubr
          -221 711 rmoveto
          -91 19 68 -49 78 hhcurveto
          56 callgsubr
          endchar
        </CharString>
        <CharString name="H">
          148 651 442 rmoveto
          80 288 rlineto
          9 454 callgsubr
          -39 -10 -23 -42 hvcurveto
          -7 -192 -6 -33 -5 -31 -6 -29 rlinecurve
          -160 -24 rlineto
          -110 hlineto
          3 26 84 303 rlineto
          9 -19 428 callgsubr
          -33 -38 -10 -23 -42 hvcurveto
          -8 -192 -7 -42 -7 -39 -7 -37 rlinecurve
          -74 hlineto
          -27 -35 -2 -28 22 -28 64 7 rcurveline
          -20 -90 -21 -84 -30 -100 21 -40 97 -14 50 26 11 115 10 108 9 92 8 1 rcurveline
          255 19 -21 -103 -24 -92 -33 -112 rlinecurve
          306 callsubr
          11 127 12 118 9 99 86 6 rcurveline
          27 42 2 32 -25 16 rrcurveto
          endchar
        </CharString>
        <CharString name="I">
          -40 callsubr
          endchar
        </CharString>
        <CharString name="Iacute">
          -40 callsubr
          172 300 379 callgsubr
        </CharString>
        <CharString name="Icircumflex">
          -40 callsubr
          -81 125 0 callsubr
          endchar
        </CharString>
        <CharString name="Idieresis">
          -40 callsubr
          -5 108 -23 callgsubr
          endchar
        </CharString>
        <CharString name="Idotaccent">
          -40 callsubr
          106 112 125 callgsubr
          endchar
        </CharString>
        <CharString name="Igrave">
          -40 callsubr
          83 304 79 callsubr
          endchar
        </CharString>
        <CharString name="Imacron">
          -40 callsubr
          269 184 42 callgsubr
          endchar
        </CharString>
        <CharString name="Iogonek">
          -322 175 9 rmoveto
          4 2 4 1 3 2 14 158 15 146 10 109 84 303 rcurveline
          9 454 callgsubr
          -39 -10 -23 -42 hvcurveto
          -7 -192 -31 -183 -28 -124 -50 -169 rlinecurve
          7 -13 15 -11 19 -7 rrcurveto
          -57 -32 -42 -49 -53 vvcurveto
          -57 60 -50 91 67 64 30 46 36 vhcurveto
          3 26 -12 14 -29 -1 rrcurveto
          -27 -31 -40 -14 -38 hhcurveto
          -30 -28 9 20 -20 hvcurveto
          4 62 72 53 46 19 rrcurveto
          endchar
        </CharString>
        <CharString name="J">
          20 340 647 rmoveto
          -4 -127 -23 -167 -26 -106 -35 -154 rlinecurve
          -18 -7 -38 44 -22 41 -10 69 rlinecurve
          -46 26 -55 -21 -41 -53 25 -76 58 -69 82 -43 101 -12 69 28 40 58 8 140 9 85 9 110 57 240 rcurveline
          186 -24 38 47 -1 34 -18 20 rlinecurve
          -222 12 -120 -4 -212 -14 -16 -32 1 -29 32 -38 rrcurveto
          endchar
        </CharString>
        <CharString name="K">
          55 366 495 84 callgsubr
        </CharString>
        <CharString name="L">
          -78 145 710 25 callsubr
        </CharString>
        <CharString name="Lacute">
          -78 300 1010 -42 callgsubr
          -155 -300 25 callsubr
        </CharString>
        <CharString name="Lcaron">
          -78 418 566 rmoveto
          526 callgsubr
          20 -137 rcurveline
          -58 -87 rlineto
          -18 8 18 -9 23 hhcurveto
          -273 144 25 callsubr
        </CharString>
        <CharString name="Lslash">
          -12 292 379 rmoveto
          163 27 29 41 -22 35 -33 7 rlinecurve
          -120 -41 77 282 -48 24 -62 -9 -65 -35 rlinecurve
          -6 -194 -8 -37 -7 -36 -8 -35 rlinecurve
          -142 -8 -20 -21 7 -42 39 -25 rlinecurve
          100 32 -21 -84 -24 -81 -33 -86 rlinecurve
          9 -45 45 -30 60 -18 329 37 rcurveline
          23 30 13 62 -47 19 -85 -21 -91 -20 -102 -15 rrcurveto
          endchar
        </CharString>
        <CharString name="M">
          199 566 497 rmoveto
          -147 -214 -49 79 -34 113 -22 131 -7 111 rlinecurve
          18 -24 -27 7 -28 hhcurveto
          -32 -32 -8 -19 -31 hvcurveto
          -11 -198 -30 -178 -28 -124 -52 -173 rlinecurve
          306 callsubr
          14 160 17 147 9 106 22 90 rcurveline
          16 -90 24 -95 47 -105 38 -34 39 -9 55 19 187 307 rcurveline
          -4 -40 -27 -161 -24 -102 -48 -165 rlinecurve
          21 -40 96 -14 51 26 12 152 16 143 10 115 82 297 rcurveline
          16 -16 -24 6 -27 hhcurveto
          -32 -32 -11 -10 -24 hvcurveto
          endchar
        </CharString>
        <CharString name="N">
          106 564 514 -70 callsubr
        </CharString>
        <CharString name="NULL">
          endchar
        </CharString>
        <CharString name="Nacute">
          106 657 961 50 callsubr
          89 -280 -70 callsubr
        </CharString>
        <CharString name="Ncaron">
          106 666 955 rmoveto
          -17 44 -63 -4 -33 -10 -117 -130 rcurveline
          -34 callsubr
          47 -298 -70 callsubr
        </CharString>
        <CharString name="Ntilde">
          106 379 878 229 callgsubr
          246 -285 -70 callsubr
        </CharString>
        <CharString name="O">
          123 callsubr
          endchar
        </CharString>
        <CharString name="OE">
          358 555 680 rmoveto
          33 -38 -48 37 -50 hhcurveto
          -187 -185 -222 -218 1 hvcurveto
          -135 1 131 -175 125 hhcurveto
          48 56 29 36 44 hvcurveto
          26 -36 28 -16 49 -13 323 27 rcurveline
          28 39 15 64 -51 16 -98 -21 -103 -20 -92 -10 47 234 rcurveline
          83 1 77 -6 67 -5 22 36 8 47 -25 24 -63 -6 -76 -6 -84 -11 1 188 rcurveline
          35 49 67 16 54 -3 45 -4 rlinecurve
          79 -64 60 35 24 66 -33 50 rlinecurve
          -201 7 -108 -7 -102 -56 rrcurveto
          -364 -355 rmoveto
          132 92 142 128 74 vhcurveto
          87 -86 23 -69 5 -125 -25 -132 -73 -114 -120 -70 -77 55 -41 96 1 97 rrcurveto
          endchar
        </CharString>
        <CharString name="Oacute">
          61 506 1011 -42 callgsubr
          -459 -701 -77 callsubr
          endchar
        </CharString>
        <CharString name="Ocircumflex">
          61 253 836 0 callsubr
          -379 -685 -77 callsubr
          endchar
        </CharString>
        <CharString name="Odieresis">
          61 329 819 -23 callgsubr
          -498 -562 -77 callsubr
          endchar
        </CharString>
        <CharString name="Ograve">
          123 callsubr
          -105 648 79 callsubr
          endchar
        </CharString>
        <CharString name="Ohungarumlaut">
          61 291 806 110 callsubr
          -491 -664 -77 callsubr
          endchar
        </CharString>
        <CharString name="Omacron">
          61 603 895 42 callgsubr
          -556 -585 -77 callsubr
          endchar
        </CharString>
        <CharString name="Oslash">
          134 535 453 rmoveto
          6 -28 4 -28 3 -30 -36 -117 -69 -101 -114 -72 -41 31 -31 45 -19 50 rrcurveto
          -18 65 rmoveto
          -3 18 -2 20 19 vvcurveto
          132 92 142 128 74 vhcurveto
          43 -48 26 -54 17 -59 rrcurveto
          261 148 rmoveto
          -4 46 -37 28 -64 7 -69 -116 rcurveline
          74 -48 -62 51 -54 hhcurveto
          -188 -185 -222 -218 1 hvcurveto
          -43 14 -47 22 -44 vhcurveto
          -106 -86 1 -52 32 -22 61 -16 rlinecurve
          62 100 rlineto
          -58 48 62 -42 61 hhcurveto
          149 206 225 165 -2 hvcurveto
          -1 54 -12 54 -21 50 rrcurveto
          endchar
        </CharString>
        <CharString name="Otilde">
          123 callsubr
          -138 593 rmoveto
          37 callgsubr
          -64 -81 rcurveline
          -5 hlineto
          -27 32 -50 34 -84 23 rrcurveto
          endchar
        </CharString>
        <CharString name="P">
          18 320 663 rmoveto
          118 -1 61 -62 1 -76 rrcurveto
          -61 -29 -58 -45 -35 vhcurveto
          -41 -23 -57 -17 -69 -13 3 37 3 37 3 39 rrcurveto
          -95 221 rmoveto
          -8 -159 -27 -157 -25 -127 -51 -170 rlinecurve
          28 -38 101 -11 39 26 9 83 8 76 7 76 81 9 74 17 63 21 110 57 55 75 1 101 rrcurveto
          110 -117 108 -192 -81 -71 -10 -17 -57 vhcurveto
          -17 -15 1 -31 22 -23 rrcurveto
          endchar
        </CharString>
        <CharString name="Q">
          74 190 325 rmoveto
          132 92 142 128 74 vhcurveto
          74 -85 25 -101 13 -120 -35 -117 -69 -101 -115 -72 rrcurveto
          -72 55 -41 96 97 vvcurveto
          201 -303 rmoveto
          131 60 136 174 -2 134 rrcurveto
          177 -2 -134 183 -102 hhcurveto
          -188 -184 -222 -218 1 hvcurveto
          -135 132 -175 125 vhcurveto
          10 hlineto
          95 -172 65 -14 70 27 3 74 rlinecurve
          -127 56 rlineto
          endchar
        </CharString>
        <CharString name="R">
          47 320 665 -73 callgsubr
          endchar
        </CharString>
        <CharString name="Racute">
          47 568 961 50 callsubr
          -66 -129 -73 callgsubr
          endchar
        </CharString>
        <CharString name="Rcaron">
          47 576 955 rmoveto
          -17 44 -63 -4 -33 -10 -117 -130 rcurveline
          -34 callsubr
          -107 -147 -73 callgsubr
          endchar
        </CharString>
        <CharString name="S">
          30 599 246 rmoveto
          -39 callsubr
          29 -75 110 -81 115 -26 188 25 119 90 20 131 rrcurveto
          endchar
        </CharString>
        <CharString name="Sacute">
          30 478 1010 -42 callgsubr
          121 -764 rmoveto
          -39 callsubr
          29 -75 110 -81 115 -26 188 25 119 90 20 131 rrcurveto
          endchar
        </CharString>
        <CharString name="Scaron">
          30 478 812 rmoveto
          149 143 -17 44 -63 -4 -33 -10 rlinecurve
          -117 -130 -34 callsubr
          121 -566 rmoveto
          -39 callsubr
          29 -75 110 -81 115 -26 188 25 119 90 20 131 rrcurveto
          endchar
        </CharString>
        <CharString name="T">
          16 302 643 54 callgsubr
        </CharString>
        <CharString name="Tcaron">
          16 616 955 rmoveto
          -17 44 -63 -4 -33 -10 -117 -130 rcurveline
          -34 callsubr
          -165 -169 54 callgsubr
        </CharString>
        <CharString name="Thorn">
          8 417 289 rmoveto
          -54 -25 -55 -6 -67 13 8 84 8 87 9 78 32 15 43 13 44 -2 59 -18 38 -43 1 -68 2 -48 -26 -40 -42 -40 rrcurveto
          -81 529 rmoveto
          -49 22 -57 -9 -64 -39 -1 -253 rcurveline
          -38 -197 -32 -151 -51 -152 23 -37 108 -14 41 29 6 56 7 68 7 72 65 -15 72 -1 91 18 109 67 50 57 -1 84 -1 109 -96 71 -125 22 -38 -3 -46 -14 -40 -16 rrcurveto
          endchar
        </CharString>
        <CharString name="U">
          -2 callgsubr
          endchar
        </CharString>
        <CharString name="Uacute">
          38 475 1010 -42 callgsubr
          135 -655 -85 callsubr
          endchar
        </CharString>
        <CharString name="Ucircumflex">
          38 222 835 0 callsubr
          215 -639 -85 callsubr
          endchar
        </CharString>
        <CharString name="Udieresis">
          38 299 818 -23 callgsubr
          95 -516 -85 callsubr
          endchar
        </CharString>
        <CharString name="Ugrave">
          -2 callgsubr
          -223 659 79 callsubr
          endchar
        </CharString>
        <CharString name="Uhungarumlaut">
          -2 callgsubr
          -349 450 110 callsubr
          endchar
        </CharString>
        <CharString name="Umacron">
          -2 callgsubr
          -37 539 42 callgsubr
          endchar
        </CharString>
        <CharString name="Uogonek">
          38 519 492 rmoveto
          -26 -169 -28 -126 -77 -97 -145 -34 -53 89 9 103 7 141 45 169 51 167 rrcurveto
          9 -18 -20 4 -22 hhcurveto
          -34 280 callsubr
          -18 -193 -22 -135 -35 -195 11 -73 57 -82 102 -28 rrcurveto
          -58 -34 -34 -47 -46 vvcurveto
          -60 56 -52 106 64 61 29 46 38 vhcurveto
          -1 26 -12 14 -24 -1 rrcurveto
          -27 -31 -40 -15 -38 hhcurveto
          -33 -30 12 25 -20 hvcurveto
          8 56 53 48 63 20 154 23 67 133 39 195 26 134 18 126 21 120 rrcurveto
          9 292 callgsubr
          -34 280 callsubr
          endchar
        </CharString>
        <CharString name="Uring">
          38 477 1019 150 callsubr
          156 -624 -85 callsubr
          endchar
        </CharString>
        <CharString name="V">
          33 535 512 rmoveto
          -219 -422 -33 211 -9 424 -34 28 -92 -10 -48 -52 rlinecurve
          99 -646 38 -43 73 -12 60 17 rlinecurve
          57 147 72 126 63 97 72 123 rlinecurve
          33 59 24 75 -7 76 -37 33 -84 12 -60 -49 rrcurveto
          endchar
        </CharString>
        <CharString name="W">
          329 837 514 rmoveto
          -183 -424 -41 240 -1 345 -59 28 -61 -21 -40 -42 rlinecurve
          41 -218 -170 -324 -36 204 -13 427 -36 26 -87 -7 -51 -54 rlinecurve
          107 -649 41 -43 70 -12 60 17 rlinecurve
          51 142 84 164 30 -271 36 -40 71 -12 60 17 rlinecurve
          46 149 181 347 34 66 19 72 -5 72 rlinecurve
          -41 32 -80 14 -61 -49 rrcurveto
          endchar
        </CharString>
        <CharString name="X">
          85 384 430 rmoveto
          -26 118 -64 130 -82 68 -83 -9 -42 -58 7 -68 87 -43 95 -88 60 -109 -92 -91 -112 -103 -108 -74 -6 -48 24 -46 93 -9 220 309 rcurveline
          26 -105 69 -134 68 -70 94 18 37 60 -17 56 -80 48 -89 111 -56 81 123 118 102 92 88 68 -3 58 -29 42 -71 -5 rrcurveto
          endchar
        </CharString>
        <CharString name="Y">
          20 callsubr
          endchar
        </CharString>
        <CharString name="Yacute">
          20 callsubr
          374 327 379 callgsubr
        </CharString>
        <CharString name="Ydieresis">
          20 callsubr
          198 135 -23 callgsubr
          endchar
        </CharString>
        <CharString name="Z">
          56 157 58 -56 callgsubr
          endchar
        </CharString>
        <CharString name="Zacute">
          56 486 1010 -42 callgsubr
          -329 -952 -56 callgsubr
          endchar
        </CharString>
        <CharString name="Zcaron">
          56 486 812 rmoveto
          149 143 -17 44 -63 -4 -33 -10 rlinecurve
          -117 -130 -34 callsubr
          -329 -754 -56 callgsubr
          endchar
        </CharString>
        <CharString name="Zdotaccent">
          56 157 58 -56 callgsubr
          269 768 125 callgsubr
          endchar
        </CharString>
        <CharString name="a">
          20 408 262 -91 callsubr
          endchar
        </CharString>
        <CharString name="aacute">
          20 624 764 50 callsubr
          -34 -335 -91 callsubr
          endchar
        </CharString>
        <CharString name="abreve">
          20 429 609 rmoveto
          56 callgsubr
          -91 19 68 -49 78 hhcurveto
          -21 -347 -91 callsubr
          endchar
        </CharString>
        <CharString name="acircumflex">
          20 432 729 96 callsubr
          120 -340 -91 callsubr
          endchar
        </CharString>
        <CharString name="acute">
          -374 184 813 379 callgsubr
        </CharString>
        <CharString name="adieresis">
          20 524 674 -2 callsubr
          100 -359 -91 callsubr
          endchar
        </CharString>
        <CharString name="ae">
          326 637 87 rmoveto
          -58 27 -24 40 -8 53 106 21 121 43 97 47 29 115 -39 103 -133 23 -87 -17 -60 -45 -45 -56 36 92 rcurveline
          -13 24 -48 2 -43 -10 rrcurveto
          -13 -25 -5 -31 -50 vvcurveto
          -25 43 -29 42 -36 22 -186 -4 -139 -186 2 -159 1 -103 63 476 callsubr
          45 49 45 51 44 46 10 -10 rcurveline
          -40 -111 15 -33 51 -16 48 15 rlinecurve
          16 114 23 -50 46 -42 74 -27 rlinecurve
          78 11 123 52 46 48 7 46 -16 17 -37 -1 -46 -39 -68 -28 -72 -19 rrcurveto
          53 391 rmoveto
          45 -28 18 -41 -8 -67 -60 -29 -66 -25 -75 -21 3 75 52 81 74 49 rrcurveto
          -322 -7 rmoveto
          38 -24 24 -29 21 -41 -11 -29 -15 -46 -4 -39 -53 -47 -58 -50 -58 -50 rrcurveto
          -35 21 -12 33 43 vvcurveto
          108 59 104 104 46 vhcurveto
          endchar
        </CharString>
        <CharString name="agrave">
          20 407 602 191 callgsubr
          61 -426 -91 callsubr
          endchar
        </CharString>
        <CharString name="amacron">
          20 567 626 182 callgsubr
          170 -354 -91 callsubr
          endchar
        </CharString>
        <CharString name="ampersand">
          63 611 173 rmoveto
          17 59 -32 47 -61 -12 -51 -54 -60 -41 -89 -32 -50 19 -44 32 -13 45 58 70 83 29 103 15 16 46 -4 34 -39 14 -20 -9 -29 -8 -34 -4 -48 15 -37 21 -21 41 rrcurveto
          49 55 55 43 94 7 63 -88 rcurveline
          82 19 21 26 -14 51 rrcurveto
          36 -36 -50 34 -73 hhcurveto
          -144 -133 -71 -113 -66 hvcurveto
          13 -58 69 -47 90 -11 -94 -23 -61 -53 -40 -85 28 -78 79 -58 132 -27 136 23 71 35 84 56 rrcurveto
          -130 565 rmoveto
          49 180 -39 33 -40 -3 -67 -37 rlinecurve
          1 -162 19 -21 32 -1 45 11 rlinecurve
          -189 -739 rmoveto
          -49 -179 39 -33 40 3 66 37 rlinecurve
          -1 162 -19 21 -32 1 -44 -12 rlinecurve
          endchar
        </CharString>
        <CharString name="aogonek">
          17 408 262 rmoveto
          -55 -47 -62 -53 -60 -52 rrcurveto
          -36 21 -12 33 43 vvcurveto
          108 60 104 103 46 vhcurveto
          39 -24 25 -30 20 -42 rrcurveto
          69 -365 rmoveto
          10 2 9 4 7 4 rrcurveto
          123 3 113 10 99 vhcurveto
          85 158 -20 44 -44 9 -90 -11 rlinecurve
          -12 -25 -5 -33 -49 vvcurveto
          -1 vlineto
          -25 43 -34 43 -38 23 -185 -4 -139 -186 2 -159 rrcurveto
          -103 63 476 callsubr
          vhcurveto
          45 48 54 54 44 46 13 -13 rcurveline
          -44 -108 8 -7 10 -7 10 -5 rlinecurve
          -69 -38 -42 -58 -51 vvcurveto
          -57 52 -47 92 63 58 557 callgsubr
          -49 -41 -68 -10 -56 28 10 66 56 51 74 20 rrcurveto
          endchar
        </CharString>
        <CharString name="apostrophemod">
          -264 212 632 rmoveto
          145 callgsubr
          endchar
        </CharString>
        <CharString name="approxequal">
          31 227 495 rmoveto
          -47 -77 -43 -37 -29 hvcurveto
          -3 -37 33 -18 39 -5 rrcurveto
          30 31 38 47 28 36 120 -83 77 hhcurveto
          58 76 65 35 21 hvcurveto
          -3 33 -26 18 -47 -5 -72 -83 rcurveline
          -5 hlineto
          15 -60 -109 68 -79 hhcurveto
          -22 -172 rmoveto
          -48 -77 -42 -38 -29 hvcurveto
          -3 -37 33 -17 39 -6 rrcurveto
          30 31 38 47 28 37 119 -82 78 hhcurveto
          57 76 64 35 21 hvcurveto
          -3 33 -25 19 -48 -6 -72 -82 rcurveline
          -5 hlineto
          14 -60 -109 68 -78 hhcurveto
          endchar
        </CharString>
        <CharString name="aring">
          20 412 708 44 callgsubr
          -4 -333 -91 callsubr
          endchar
        </CharString>
        <CharString name="asciicircum">
          -70 54 420 rmoveto
          4 -22 25 -12 30 2 207 341 rcurveline
          85 -328 26 -13 60 -13 45 39 rlinecurve
          -115 367 -32 20 -43 7 -55 -11 rlinecurve
          endchar
        </CharString>
        <CharString name="asciitilde">
          45 195 434 rmoveto
          -68 -32 -46 -39 -38 -46 -4 -29 48 -20 42 5 67 76 rcurveline
          7 3 59 -45 67 -29 116 -12 rlinecurve
          83 30 44 34 43 56 1 27 -38 17 -43 -6 -76 -76 rcurveline
          -6 hlineto
          -73 46 -54 29 -131 11 rrcurveto
          endchar
        </CharString>
        <CharString name="asterisk">
          -220 321 798 rmoveto
          102 69 -8 21 -13 15 -21 11 rlinecurve
          -80 -95 32 116 -21 6 -23 0 -23 -6 rlinecurve
          5 -115 -59 94 -23 -10 -16 -15 -13 -22 rlinecurve
          87 -69 -114 18 -11 -23 -2 -22 5 -22 rlinecurve
          117 18 -101 -69 9 -22 14 -15 19 -10 rlinecurve
          80 95 -31 -116 23 -7 23 0 20 7 rlinecurve
          -5 115 59 -94 24 9 17 14 12 24 rlinecurve
          -86 69 112 -18 11 22 3 23 -6 22 rlinecurve
          endchar
        </CharString>
        <CharString name="at">
          464 684 369 rmoveto
          -23 -107 -1 -5 -54 -46 -59 -51 -58 -50 rlinecurve
          -35 21 -12 33 43 vvcurveto
          108 59 104 104 46 vhcurveto
          36 -23 25 -29 20 -39 rrcurveto
          191 133 rmoveto
          -22 44 -40 10 -92 -12 -13 -25 -5 -31 1 -45 -24 41 -33 40 -36 21 -185 -4 -139 -186 2 -159 rrcurveto
          -103 64 -79 143 -5 vhcurveto
          48 50 56 57 45 47 11 -7 rcurveline
          -18 -54 11 -49 78 -37 rrcurveto
          173 63 154 157 149 vvcurveto
          213 -181 182 -217 -309 -319 -247 -299 -237 198 -168 253 -37 vhcurveto
          94 21 93 36 60 49 3 46 -17 25 -59 3 -36 -38 -68 -44 -76 -28 rrcurveto
          -196 46 -122 129 195 vvcurveto
          230 231 223 273 26 vhcurveto
          197 -51 100 -89 18 -205 -30 -116 -79 -85 -113 -72 11 82 10 86 16 82 rrcurveto
          endchar
        </CharString>
        <CharString name="atilde">
          20 408 262 -91 callsubr
          76 231 rmoveto
          304 callgsubr
          37 callgsubr
          rrcurveto
          endchar
        </CharString>
        <CharString name="b">
          -7 184 81 rmoveto
          15 75 12 74 9 83 50 56 44 44 44 35 54 -23 24 -32 11 -65 -20 -111 -94 -100 -149 -36 rrcurveto
          16 323 rmoveto
          38 65 16 102 60 248 -46 20 -47 -4 -74 -37 rlinecurve
          -3 -259 -27 -144 -38 -159 -37 -130 rlinecurve
          12 -46 40 -43 92 -17 188 38 160 97 51 188 -23 130 -48 69 -161 28 -49 -51 -45 -50 -46 -58 rrcurveto
          endchar
        </CharString>
        <CharString name="backslash">
          -109 65 846 rmoveto
          284 -960 45 -14 28 3 19 33 rlinecurve
          -178 459 -104 504 -46 19 -30 -10 -18 -34 rlinecurve
          endchar
        </CharString>
        <CharString name="bar">
          -313 129 553 rmoveto
          -27 -191 -65 -345 -52 -172 20 -40 91 -14 51 24 17 168 58 367 12 98 124 533 rcurveline
          8 454 callgsubr
          -33 -10 -23 -42 hvcurveto
          endchar
        </CharString>
        <CharString name="braceleft">
          48 556 759 rmoveto
          36 13 21 23 33 vvcurveto
          41 -53 -61 31 -65 hhcurveto
          -55 -61 -26 -44 -39 hvcurveto
          -170 84 -94 -171 -122 hhcurveto
          -27 -90 57 -24 44 -73 -3 -74 rlinecurve
          -2 -82 -40 -74 -76 -52 23 -70 63 -50 67 -17 71 4 66 19 47 19 2 23 -14 27 -19 13 -134 -27 rcurveline
          -23 33 73 63 50 75 3 84 rlinecurve
          1 79 -40 63 -80 49 5 18 rcurveline
          92 1 72 62 22 94 17 62 -8 81 -35 82 34 20 rcurveline
          endchar
        </CharString>
        <CharString name="braceright">
          49 469 562 rmoveto
          3 82 39 73 76 53 -23 69 -65 62 -72 6 -64 -3 -67 -18 -45 -21 -2 -24 14 -27 18 -12 134 26 rcurveline
          25 -33 -75 -62 -50 -75 -1 -85 rlinecurve
          -3 -78 40 -63 80 -49 -5 -18 rcurveline
          -91 -1 -72 -62 -23 -95 -17 -62 7 -80 36 -83 -34 -20 rcurveline
          -101 68 rlineto
          -37 -12 -20 -23 -33 vvcurveto
          56 -40 56 -25 67 -11 62 5 56 23 37 46 rrcurveto
          170 -83 94 170 121 hhcurveto
          28 90 -58 25 -44 73 3 74 rlinecurve
          endchar
        </CharString>
        <CharString name="bracketleft">
          -23 506 823 rmoveto
          105 -7 20 30 4 20 -5 24 rlinecurve
          -352 -6 -65 -464 -114 -446 4 -24 17 -20 30 -18 rlinecurve
          296 42 22 27 3 22 -11 16 rlinecurve
          -194 -27 46 285 68 362 49 180 rlineto
          endchar
        </CharString>
        <CharString name="bracketright">
          -5 409 235 rmoveto
          138 563 -3 34 -10 23 -22 22 rlinecurve
          -338 11 -13 -18 5 -20 21 -33 rlinecurve
          190 5 -70 -402 -74 -424 -213 -4 -16 -35 2 -23 16 -25 rlinecurve
          370 46 rlineto
          endchar
        </CharString>
        <CharString name="breve">
          -252 101 749 rmoveto
          -91 19 68 -49 78 hhcurveto
          56 callgsubr
          endchar
        </CharString>
        <CharString name="brokenbar">
          -308 172 761 rmoveto
          -17 -93 -19 -59 -31 -113 29 -29 85 -9 48 25 8 94 12 94 3 44 76 258 rcurveline
          14 -16 -26 10 -32 hhcurveto
          -29 -30 -5 -16 -36 hvcurveto
          -148 -875 rmoveto
          -18 -92 -19 -63 -32 -112 24 -30 91 -19 48 31 8 93 12 103 3 44 69 248 rcurveline
          14 -19 -23 8 -28 hhcurveto
          -27 -31 -4 -13 -33 hvcurveto
          endchar
        </CharString>
        <CharString name="bullet">
          -165 183 232 rmoveto
          72 86 51 77 54 hvcurveto
          80 -12 -72 90 -59 hhcurveto
          -84 -10 -80 -93 -15 -89 rrcurveto
          -63 8 45 -43 57 hhcurveto
          endchar
        </CharString>
        <CharString name="c">
          -55 356 555 27 callgsubr
        </CharString>
        <CharString name="cacute">
          -55 423 813 -42 callgsubr
          -67 -258 27 callgsubr
        </CharString>
        <CharString name="caron">
          -201 328 615 rmoveto
          149 143 -17 44 -63 -4 -33 -10 rlinecurve
          -117 -130 -34 callsubr
          endchar
        </CharString>
        <CharString name="ccaron">
          -55 423 615 rmoveto
          149 143 -17 44 -63 -4 -33 -10 rlinecurve
          -117 -130 -34 callsubr
          -67 -60 27 callgsubr
        </CharString>
        <CharString name="ccedilla">
          -55 195 -99 rmoveto
          -59 callgsubr
          48 93 68 23 66 37 34 36 rlinecurve
          9 42 -14 22 -38 -1 -46 -40 -73 -33 -61 -18 -74 43 -19 57 4 79 2 65 43 85 75 56 24 5 rcurveline
          29 -34 16 -32 -2 -62 67 -14 57 17 22 44 -17 81 -42 61 -104 18 -113 -24 -90 -73 -62 -73 -30 -42 -23 -45 -1 -60 -3 -104 54 -101 156 -31 rrcurveto
          endchar
        </CharString>
        <CharString name="cedilla">
          -246 98 26 rmoveto
          -61 -125 rlineto
          -59 callgsubr
          52 101 rlineto
          endchar
        </CharString>
        <CharString name="cent">
          -51 308 472 rmoveto
          -65 -364 -47 40 -13 51 3 66 rlinecurve
          2 65 42 85 76 56 rrcurveto
          110 168 rmoveto
          -14 31 -24 11 -34 -11 -22 -124 rcurveline
          -98 -30 -78 -65 -55 -66 -31 -42 -22 -45 -1 -60 -4 -96 47 -94 131 -38 -38 -103 rcurveline
          15 -31 28 -14 32 8 23 133 rcurveline
          91 16 95 49 45 46 9 42 -15 22 -37 -1 -43 -38 -66 -31 -65 -19 63 371 rcurveline
          21 -26 15 -32 6 -54 59 -12 55 17 24 48 -20 71 -44 56 -83 22 rrcurveto
          endchar
        </CharString>
        <CharString name="circumflex">
          -185 80 638 0 callsubr
          endchar
        </CharString>
        <CharString name="colon">
          -325 78 hmoveto
          40 48 29 43 29 hvcurveto
          44 -5 -41 51 -33 hhcurveto
          -47 -6 -43 -51 -10 -51 rrcurveto
          -35 5 25 -24 32 hhcurveto
          56 342 callgsubr
          endchar
        </CharString>
        <CharString name="comma">
          -348 178 52 rmoveto
          491 callsubr
          -2 -155 rcurveline
          264 callsubr
          rrcurveto
          endchar
        </CharString>
        <CharString name="copyright">
          224 42 370 rmoveto
          339 callsubr
          560 callgsubr
          rrcurveto
          725 16 rmoveto
          -32 -163 -96 -158 -252 -25 348 callgsubr
          rrcurveto
          -138 91 rmoveto
          -14 70 -36 51 -87 15 -97 -19 -76 -63 -51 -62 -26 -37 -18 -37 -1 -50 -3 -90 47 -87 139 -25 77 11 89 44 40 41 8 36 -13 19 -32 -1 -38 -34 -62 -29 -52 -15 rrcurveto
          -63 37 -16 49 3 66 2 56 36 73 65 47 21 4 rcurveline
          24 -29 14 -27 -1 -53 55 -11 47 14 19 36 rrcurveto
          endchar
        </CharString>
        <CharString name="currency">
          141 359 177 rmoveto
          -48 41 -26 54 -3 66 13 89 52 86 92 59 52 -53 31 -65 7 -75 -21 -90 -51 -63 -98 -49 rrcurveto
          197 414 rmoveto
          31 -32 -36 21 -33 hhcurveto
          -66 -65 -33 -47 -52 hvcurveto
          -97 121 -83 -3 -23 -46 22 -44 rlinecurve
          131 -81 rlineto
          -45 -58 -28 -65 -52 vvcurveto
          -44 16 -43 23 -36 vhcurveto
          -126 -72 -23 -43 21 -48 82 -5 rlinecurve
          97 111 rlineto
          -30 35 40 -18 36 hhcurveto
          54 58 24 37 51 hvcurveto
          99 -113 83 5 21 48 -24 43 rlinecurve
          -120 68 rlineto
          51 54 34 65 58 vvcurveto
          -1 40 -20 49 -29 45 121 68 rcurveline
          24 44 -21 47 -83 6 rrcurveto
          endchar
        </CharString>
        <CharString name="d">
          -16 203 callsubr
          68 277 rmoveto
          -7 -33 -7 -31 -8 -32 79 callgsubr
          64 235 rcurveline
          -44 21 -48 -5 -77 -37 rrcurveto
          endchar
        </CharString>
        <CharString name="dagger">
          -123 348 592 rmoveto
          72 218 -44 24 -60 -4 -68 -33 rlinecurve
          -16 -212 -128 17 -28 -35 -4 -30 22 -26 rlinecurve
          133 10 rlineto
          -1 vlineto
          -129 -830 22 -14 20 -2 18 10 rlinecurve
          172 843 149 -8 29 38 4 35 -20 19 rlinecurve
          endchar
        </CharString>
        <CharString name="daggerdbl">
          -112 341 539 rmoveto
          150 -8 29 38 3 35 -19 19 rlinecurve
          -147 -19 67 221 -42 24 -54 -3 -69 -34 rlinecurve
          -13 -216 -131 18 -28 -35 -3 -31 21 -26 rlinecurve
          135 11 -32 -276 -63 -282 -151 8 -28 -38 -4 -35 20 -19 rlinecurve
          147 19 -68 -221 43 -25 53 4 68 34 rlinecurve
          14 216 131 -18 28 35 3 30 -20 27 rlinecurve
          -136 -11 32 282 rlineto
          endchar
        </CharString>
        <CharString name="danda">
          -191 256 464 274 callgsubr
        </CharString>
        <CharString name="dcaron">
          79 203 callsubr
          68 277 rmoveto
          -7 -33 -7 -31 -8 -32 79 callgsubr
          64 235 rcurveline
          -44 21 -48 -5 -77 -37 rrcurveto
          246 -29 rmoveto
          -58 -88 rlineto
          -18 8 17 -8 24 hhcurveto
          74 59 52 81 7 77 -17 45 -63 39 -65 -50 rrcurveto
          endchar
        </CharString>
        <CharString name="dcroat">
          -16 203 callsubr
          198 424 rmoveto
          36 133 -44 21 -48 -5 -77 -37 rlinecurve
          1 -116 -91 3 -23 -30 -4 -23 15 -16 rlinecurve
          104 3 1 -80 -7 -33 -7 -31 -8 -32 rlinecurve
          79 callgsubr
          11 39 rcurveline
          111 3 29 33 4 28 -18 10 rlinecurve
          endchar
        </CharString>
        <CharString name="degree">
          -126 331 768 rmoveto
          -120 -113 -113 -90 1 hvcurveto
          -69 1 88 -69 67 hhcurveto
          109 130 103 81 -3 hvcurveto
          62 -1 -90 95 -69 hhcurveto
          -15 -50 rmoveto
          27 -33 20 -39 5 -45 -12 -56 -29 -37 -59 -31 -23 26 -16 32 -2 40 5 55 32 52 52 36 rrcurveto
          endchar
        </CharString>
        <CharString name="dieresis">
          -226 157 621 -23 callgsubr
          endchar
        </CharString>
        <CharString name="divide">
          147 717 397 rmoveto
          -321 -18 -323 5 -22 -31 -4 -32 14 -17 rlinecurve
          640 9 28 34 4 39 -16 11 rlinecurve
          -385 -303 rmoveto
          34 40 25 35 25 hvcurveto
          38 -5 -35 42 -27 hhcurveto
          -39 -6 -37 -43 -7 -42 rrcurveto
          -29 4 21 -20 26 hhcurveto
          62 365 rmoveto
          34 41 25 36 24 hvcurveto
          36 -4 -35 43 -28 hhcurveto
          -39 -5 -37 -43 -6 -42 rrcurveto
          -30 3 21 -20 26 hhcurveto
          endchar
        </CharString>
        <CharString name="dollar">
          30 348 304 rmoveto
          55 -29 42 -25 -27 vvcurveto
          -61 -57 -52 -78 -26 vhcurveto
          22 378 rmoveto
          -58 34 -45 30 -1 29 -1 38 76 54 68 24 rrcurveto
          33 -35 rmoveto
          8 23 26 -28 21 -35 15 -62 rlinecurve
          83 -14 43 25 12 56 -34 64 -59 50 -76 26 36 97 rcurveline
          -14 30 -24 11 -34 -11 -21 -117 rcurveline
          -129 -16 -124 -78 -51 -113 16 -104 113 -64 96 -51 -37 -202 rcurveline
          -10 -29 -51 48 -24 41 -18 71 rlinecurve
          -77 24 -39 -38 -33 -58 26 -66 89 -72 100 -33 -34 -104 rcurveline
          15 -31 27 -14 33 8 23 134 rcurveline
          173 29 110 88 19 125 -31 82 -106 61 -91 51 rrcurveto
          endchar
        </CharString>
        <CharString name="dotaccent">
          -433 163 625 125 callgsubr
          endchar
        </CharString>
        <CharString name="dotlessi">
          260 callsubr
          endchar
        </CharString>
        <CharString name="dottedcircle">
          55 139 517 rmoveto
          -26 18 -19 26 26 18 19 26 25 -18 19 -26 -26 -18 -19 -25 vhcurveto
          -82 -110 rmoveto
          -25 20 -19 26 24 20 19 25 25 -20 19 -24 -26 -20 -19 -25 vhcurveto
          -13 -126 rmoveto
          -25 19 -18 25 26 18 18 556 callgsubr
          52 -116 rmoveto
          -26 18 -18 26 25 19 18 26 25 -19 19 -25 -26 -18 -19 -25 vhcurveto
          101 -75 rmoveto
          -26 19 -20 26 25 19 20 26 24 -19 20 -25 -26 -19 -20 -24 vhcurveto
          127 -16 rmoveto
          -26 18 -18 26 26 19 18 26 26 -19 18 -26 -26 -18 -18 -26 vhcurveto
          121 53 rmoveto
          -26 19 -18 25 25 20 18 26 25 -20 19 -25 -25 -19 -19 -25 vhcurveto
          73 98 rmoveto
          -25 19 -19 26 24 19 19 25 26 -19 19 -24 -26 -19 -19 -26 vhcurveto
          10 134 rmoveto
          -26 18 -18 26 25 19 18 26 26 -19 18 -25 -26 -18 -18 -26 vhcurveto
          -50 118 rmoveto
          -25 19 -19 25 26 18 19 556 callgsubr
          -95 68 rmoveto
          -24 19 -20 26 25 18 20 24 26 -18 19 -25 -26 -19 -19 -26 vhcurveto
          -126 15 rmoveto
          -26 18 -18 26 26 18 18 26 26 -18 18 -26 -26 -18 -18 -26 vhcurveto
          endchar
        </CharString>
        <CharString name="doubledanda">
          53 499 464 rmoveto
          -26 -142 -27 -117 -45 -172 29 -31 63 -12 48 22 12 154 16 135 15 127 70 289 rcurveline
          -29 30 -44 -5 -66 -31 rrcurveto
          -259 -247 274 callgsubr
        </CharString>
        <CharString name="dvA">
          311 callsubr
          768 528 rmoveto
          -128 -76 callgsubr
          14 10 -85 callgsubr
          15 rrcurveto
          endchar
        </CharString>
        <CharString name="dvAA">
          474 326 callsubr
          1044 528 rmoveto
          -122 hlineto
          -84 callsubr
          rrcurveto
          endchar
        </CharString>
        <CharString name="dvAI">
          -42 372 822 rmoveto
          55 -51 31 -47 32 -66 rrcurveto
          23 18 8 13 7 hvcurveto
          105 -39 -95 164 -69 hhcurveto
          -47 -51 -29 -31 -33 hvcurveto
          -8 -46 36 -39 75 -28 rrcurveto
          399 -152 -29 callgsubr
        </CharString>
        <CharString name="dvAU">
          474 878 874 rmoveto
          54 -30 44 -52 26 -46 -4 -5 rcurveline
          -40 38 -44 29 -36 7 -42 -6 -28 -22 -19 -31 7 -36 39 -20 49 -4 31 36 rcurveline
          37 -10 23 -16 30 121 callgsubr
          -8 -51 36 -28 64 -21 rrcurveto
          -640 -725 48 callgsubr
          1044 528 rmoveto
          -122 hlineto
          -84 callsubr
          rrcurveto
          endchar
        </CharString>
        <CharString name="dvAbbreviationsign">
          -243 213 411 rmoveto
          -86 -77 -78 -63 hvcurveto
          -47 1 61 -48 47 hhcurveto
          77 91 71 56 -2 hvcurveto
          43 -1 -63 66 -48 hhcurveto
          -11 -35 rmoveto
          18 -24 14 -26 4 -31 -9 -38 -20 -25 -40 -22 -15 18 -12 22 -1 27 3 37 23 37 35 25 rrcurveto
          endchar
        </CharString>
        <CharString name="dvAcandra">
          311 callsubr
          640 528 rmoveto
          -24 26 -40 -62 callgsubr
          -100 -102 callsubr
          102 hlineto
          -27 -116 -74 -41 -77 -39 -74 -38 rlinecurve
          -33 17 -42 11 -49 4 -2 6 rcurveline
          99 27 87 55 25 97 -16 51 -33 41 -63 16 -88 5 -76 -21 -76 -52 -19 -33 30 -43 55 -17 52 46 55 22 58 -4 4 -7 rcurveline
          -16 -62 -46 -43 -77 -31 -22 -3 -23 -3 -22 -2 -23 -29 7 -56 45 -29 20 3 19 3 18 3 18 -3 18 -4 17 -5 5 -3 rcurveline
          -181 -73 -138 -35 -59 vvcurveto
          -41 78 -57 82 -7 vhcurveto
          117 -1 214 102 117 vvcurveto
          21 -10 21 -18 19 vhcurveto
          61 29 60 30 58 29 5 -8 rcurveline
          -35 -42 -67 -296 -4 callsubr
          -12 13 rcurveline
          -46 233 rmoveto
          224 callgsubr
          415 callgsubr
          rrcurveto
          endchar
        </CharString>
        <CharString name="dvAnusvara">
          -22 711 rmoveto
          39 32 33 38 40 -32 32 -39 -41 -33 -32 -40 -38 33 -33 41 hvcurveto
          endchar
        </CharString>
        <CharString name="dvAnusvara.amI">
          -24 682 rmoveto
          40 31 33 38 40 -31 32 -40 -41 -32 -32 -40 -38 32 -33 41 hvcurveto
          endchar
        </CharString>
        <CharString name="dvAvagraha">
          -48 274 522 rmoveto
          96 18 162 10 126 -7 33 30 -1 36 -28 14 -135 6 -211 -18 -113 -32 -67 -41 -45 -91 -1 -34 -2 -79 286 -54 -2 -55 -1 -53 -67 -75 -76 -24 -60 14 -63 37 -46 45 rrcurveto
          -33 -1 -12 -18 -1 -36 rrcurveto
          -39 33 107 -75 71 hhcurveto
          96 174 130 112 4 hvcurveto
          3 94 -194 38 -89 63 9 32 16 30 31 23 rrcurveto
          endchar
        </CharString>
        <CharString name="dvB">
          -321 293 254 rmoveto
          210 callgsubr
          -24 13 -14 25 40 vvcurveto
          39 13 40 20 34 vhcurveto
          28 -35 40 -40 33 -30 rrcurveto
          116 126 rmoveto
          -26 50 -47 76 -61 9 rrcurveto
          61 callgsubr
          61 66 79 81 49 54 -33 27 rcurveline
          411 callsubr
          -39 22 -40 rrcurveto
          139 272 rmoveto
          -489 -102 callsubr
          489 -93 callgsubr
        </CharString>
        <CharString name="dvBA">
          -46 362 318 rmoveto
          -10 -10 -12 -11 -11 -11 -39 37 -36 40 -30 38 20 20 22 14 21 4 32 387 callgsubr
          28 -35 40 -40 34 -29 -31 -29 -33 -29 425 callsubr
          -405 -102 callsubr
          409 hlineto
          -27 -145 -4 -2 -26 40 -32 42 -51 11 rlinecurve
          61 callgsubr
          418 callsubr
          -46 -68 -32 -135 48 -40 72 -104 callgsubr
        </CharString>
        <CharString name="dvBH">
          -189 198 204 rmoveto
          -28 12 -18 14 -17 24 35 17 35 18 35 18 -10 -32 -11 -33 -11 -32 347 callgsubr
          244 -84 rmoveto
          -46 -28 -51 -29 -54 -29 15 80 12 78 7 69 42 callsubr
          269 callsubr
          -3 -16 -4 -17 -4 -16 rlinecurve
          -63 -31 -63 -28 -57 -23 -28 -12 -10 -37 -1 -26 29 -52 59 -39 59 -11 41 -1 57 16 31 29 21 65 19 72 17 74 65 35 64 37 63 37 rrcurveto
          99 137 rmoveto
          -159 -100 callsubr
          159 -107 callsubr
        </CharString>
        <CharString name="dvBHA">
          77 198 204 rmoveto
          -28 12 -19 14 -16 25 36 18 35 18 35 18 -10 -33 -11 -33 -12 -33 347 callgsubr
          -5 -146 rmoveto
          5 -8 -21 -30 -3 -15 -3 -15 -4 -16 rlinecurve
          -63 -31 -63 -29 -58 -25 -28 -12 -10 256 callgsubr
          25 43 25 44 26 9 -5 rcurveline
          -96 420 callsubr
          41 21 147 callgsubr
          -41 -27 -47 -27 -50 -27 15 78 12 76 7 68 42 callsubr
          rrcurveto
          618 199 rmoveto
          157 callgsubr
        </CharString>
        <CharString name="dvBH_LA">
          584 207 199 rmoveto
          -35 16 -24 19 -17 31 35 21 39 13 41 8 -9 -40 -11 -38 -9 -23 rrcurveto
          83 405 -17 callgsubr
          1040 9 -92 callgsubr
          -561 -100 callsubr
          564 312 callgsubr
          -53 -24 -57 -48 -36 -51 -46 10 -50 7 -53 2 27 441 callsubr
          564 callgsubr
          -49 -1 -48 -48 -104 -66 -59 -29 rrcurveto
          -17 -12 -11 -29 -2 -23 12 -35 48 -40 59 -14 269 callsubr
          -2 -14 -4 -25 -6 -28 rlinecurve
          -64 297 callsubr
          44 3 54 21 20 28 13 36 14 51 14 56 rrcurveto
          47 46 -5 -7 42 hvcurveto
          -7 -17 -4 -16 -16 vvcurveto
          357 callsubr
          74 13 31 50 -21 432 callgsubr
          -10 -19 -15 427 callsubr
          -55 -245 47 -97 callsubr
        </CharString>
        <CharString name="dvBH_NA">
          491 631 255 callgsubr
          -439 -20 rmoveto
          -35 15 -24 20 -18 30 37 23 41 13 43 7 -10 -42 -12 -40 -10 -19 rrcurveto
          85 416 -17 callgsubr
          -5 -146 rmoveto
          5 -8 -21 -30 -1 -17 -4 -28 -6 -30 rlinecurve
          -66 -7 -64 -16 -53 -27 rrcurveto
          -27 -15 -12 -33 -39 vvcurveto
          31 -57 55 -39 70 -14 43 3 54 21 20 28 12 35 15 51 15 57 rrcurveto
          49 49 -6 -7 45 hvcurveto
          -12 -19 -6 -26 3 -30 498 callsubr
          -1 68 -19 358 callsubr
          9 144 callgsubr
          -110 -71 -156 -78 -120 -56 -52 18 -64 12 -66 2 27 119 24 131 2 64 42 callsubr
          rrcurveto
          1054 199 rmoveto
          -755 -100 callsubr
          755 -107 callsubr
        </CharString>
        <CharString name="dvBH_R">
          -189 203 217 rmoveto
          -31 12 -16 13 -14 21 34 16 33 16 34 17 -9 -29 -9 -29 -12 -31 rrcurveto
          87 388 -17 callgsubr
          244 -84 rmoveto
          -45 -28 -52 -29 -54 -28 14 77 12 77 8 72 42 callsubr
          269 callsubr
          -3 -15 -3 -15 -3 -15 rlinecurve
          -62 -28 -60 -25 -53 -21 536 callsubr
          63 -11 43 1 56 15 27 28 18 60 18 68 15 70 65 35 65 37 62 37 rrcurveto
          -87 -232 rmoveto
          -74 -79 -135 -100 -131 -43 286 callgsubr
          118 68 130 105 71 93 rrcurveto
          endchar
        </CharString>
        <CharString name="dvBH_RA">
          77 203 217 rmoveto
          -31 12 -16 13 -14 22 34 17 34 17 34 16 -9 -29 -10 -30 -12 -32 rrcurveto
          87 388 -17 callgsubr
          -5 -146 rmoveto
          5 -8 -21 -30 -3 -14 -3 -14 -3 -13 rlinecurve
          -60 -28 -61 -27 -54 -23 536 callsubr
          63 366 callsubr
          -83 -77 -130 169 callsubr
          -48 -48 -104 -66 -59 -29 -17 -12 -11 -29 -2 -23 12 -35 48 -40 59 -14 rrcurveto
          618 199 rmoveto
          157 callgsubr
        </CharString>
        <CharString name="dvBH_R_YA">
          476 894 28 callgsubr
          -64 -18 rrcurveto
          -32 76 callsubr
          -8 16 -15 15 vhcurveto
          121 hlineto
          -730 -345 rmoveto
          -30 12 -15 15 -15 23 32 13 32 10 33 7 -8 -24 -8 -24 -10 -27 rrcurveto
          85 382 -17 callgsubr
          931 9 -92 callgsubr
          -504 380 callgsubr
          93 92 callsubr
          -6 -68 -110 -48 -79 -46 -54 13 -53 7 -51 3 22 101 18 106 10 98 rrcurveto
          42 callsubr
          269 callsubr
          -5 -23 -4 -22 -5 -22 rlinecurve
          -66 -6 -57 -15 -44 -22 rrcurveto
          -29 -17 -8 -31 -37 vvcurveto
          29 -52 51 -31 62 -11 43 1 57 15 26 29 13 40 12 43 11 45 rrcurveto
          36 38 -3 -6 41 hvcurveto
          -15 -14 -10 -13 -15 vvcurveto
          -10 3 -10 5 -11 vhcurveto
          -77 -74 -123 -87 -119 -39 286 callgsubr
          107 62 117 92 74 86 rrcurveto
          -36 38 55 -29 39 hhcurveto
          35 callgsubr
          hvcurveto
          12 -11 -42 -67 -40 78 callsubr
        </CharString>
        <CharString name="dvBH_VA">
          417 824 319 233 callgsubr
          28 -38 20 -38 rrcurveto
          -625 -152 rmoveto
          -35 16 -24 19 -17 31 35 21 39 13 41 8 -9 -40 -11 -38 -9 -23 rrcurveto
          83 405 -17 callgsubr
          873 9 61 callsubr
          -402 -82 callsubr
          407 137 callsubr
          -99 -92 -75 -91 -40 hvcurveto
          -44 10 -50 6 -51 2 27 441 callsubr
          143 callsubr
          49 48 -6 -6 44 hvcurveto
          -4 -18 -2 -17 -17 vvcurveto
          358 callgsubr
          72 callsubr
          -43 -61 -31 -135 48 -40 72 -104 callgsubr
        </CharString>
        <CharString name="dvBH_YA">
          476 894 28 callgsubr
          -64 -18 rrcurveto
          -32 76 callsubr
          -8 16 -15 15 vhcurveto
          121 hlineto
          -727 -370 rmoveto
          -35 16 -24 19 -17 31 35 21 39 13 41 8 -9 -40 -11 -38 -9 -23 rrcurveto
          83 405 -17 callgsubr
          931 9 -92 callgsubr
          -467 -82 callsubr
          56 92 callsubr
          -6 -67 -109 -48 -79 -46 -48 11 -55 8 -57 2 27 441 callsubr
          rrcurveto
          143 callsubr
          40 39 -4 -5 37 hvcurveto
          -16 -14 -9 -13 -15 229 callsubr
        </CharString>
        <CharString name="dvB_BA">
          238 646 318 rmoveto
          411 callsubr
          241 callgsubr
          40 -40 34 514 callgsubr
          -284 hmoveto
          36 callgsubr
          90 271 rmoveto
          23 -6 22 -23 18 -26 -16 -26 -13 -29 -7 -28 -33 33 -31 34 -26 33 399 callsubr
          699 184 rmoveto
          -128 103 callsubr
          -689 -102 callsubr
          693 hlineto
          -27 -145 -4 -2 -26 40 -32 42 -50 11 rlinecurve
          -67 -64 -36 -53 -47 hvcurveto
          -27 41 -36 42 -44 6 rrcurveto
          61 callgsubr
          32 35 38 39 35 37 19 -71 69 -37 91 -3 418 callsubr
          -46 -68 -32 -135 48 -40 72 -104 callgsubr
        </CharString>
        <CharString name="dvB_BHA">
          344 474 204 rmoveto
          -27 12 -19 14 -17 25 36 18 35 18 35 19 -9 -33 -11 -33 -12 -34 rrcurveto
          -282 -14 216 callsubr
          119 89 rmoveto
          -39 35 -36 40 -32 37 18 16 20 12 20 5 32 -8 26 -69 10 -54 rrcurveto
          235 312 387 callsubr
          -549 9 274 callsubr
          358 279 callsubr
          -3 -15 -4 -16 -3 -15 rlinecurve
          -50 -25 -50 -23 -47 -21 -18 80 -38 98 -70 16 318 callgsubr
          31 38 36 36 34 30 -50 57 -37 58 562 callgsubr
          74 16 74 44 25 44 25 43 26 9 -5 21 callsubr
          -42 -27 -47 -27 -49 -27 15 77 11 77 8 68 -19 31 -44 508 callgsubr
          -300 -102 callsubr
          300 -93 callgsubr
        </CharString>
        <CharString name="dvB_BH_RA">
          323 471 217 rmoveto
          -31 12 -15 13 -15 22 34 17 34 17 34 16 -9 -29 -10 -30 -12 -32 rrcurveto
          -278 -27 216 callsubr
          135 100 rmoveto
          -16 -11 -39 35 -36 40 -32 37 rlinecurve
          18 16 20 12 20 5 32 -8 26 -68 10 -54 rrcurveto
          227 311 -17 callgsubr
          -540 9 274 callsubr
          350 hlineto
          -12 -14 -8 -23 -2 -19 12 -35 48 -40 59 -14 269 callsubr
          -3 -14 -2 -13 -3 -14 rlinecurve
          -49 -23 -49 -21 -46 -20 -18 78 -38 91 -67 15 318 callgsubr
          32 40 37 37 34 29 -49 52 -27 61 366 callsubr
          -82 -77 -131 169 callsubr
          -30 -30 -51 -36 -48 -31 rrcurveto
          625 hmoveto
          157 callgsubr
        </CharString>
        <CharString name="dvB_DA">
          128 callgsubr
          -43 24 -41 -19 -13 -15 -16 -10 -17 -36 34 -33 37 -29 35 17 16 20 12 19 4 rrcurveto
          675 207 rmoveto
          -934 -102 callsubr
          555 0 callgsubr
          -55 -59 -108 -35 -80 -44 -29 54 -50 78 240 callgsubr
          35 24 -81 97 -67 119 -14 46 58 41 57 34 38 26 callsubr
        </CharString>
        <CharString name="dvB_DA_mU">
          128 callgsubr
          -42 23 -41 -18 -14 -15 -16 -10 -17 -35 34 -34 36 -29 36 17 16 20 12 19 4 rrcurveto
          675 207 rmoveto
          -934 -102 callsubr
          555 0 callgsubr
          -52 -55 -111 -34 -81 -47 -29 54 -49 76 240 callgsubr
          34 23 -81 101 -69 116 -11 -98 callsubr
        </CharString>
        <CharString name="dvB_DA_mUU">
          128 callgsubr
          -42 23 -41 -18 -14 -15 -16 -10 -17 -35 34 -34 36 -29 36 17 16 20 12 19 4 rrcurveto
          675 207 rmoveto
          -934 -102 callsubr
          555 0 callgsubr
          -52 -55 -111 -34 -81 -47 -29 54 -49 76 240 callgsubr
          34 23 -81 101 -69 116 -11 -96 callsubr
        </CharString>
        <CharString name="dvB_DHA">
          351 197 232 123 callgsubr
          653 127 -97 callgsubr
          -62 -82 callsubr
          65 hlineto
          -42 -183 -60 -78 -136 -98 39 callgsubr
          85 19 137 88 86 83 10 -11 rcurveline
          -40 -50 -40 -176 47 -40 73 -104 callgsubr
        </CharString>
        <CharString name="dvB_DH_VA">
          653 1059 302 callsubr
          -47 -46 rrcurveto
          -29 86 callsubr
          -870 -121 123 callgsubr
          954 127 76 callgsubr
          -366 -82 callsubr
          371 137 callsubr
          -85 -79 -55 -72 -46 hvcurveto
          -2 1 -60 -78 -137 -99 39 callgsubr
          75 17 116 71 85 73 1 -92 73 -59 113 -3 42 62 callgsubr
          -42 -61 -31 -135 -74 callsubr
        </CharString>
        <CharString name="dvB_JA">
          416 197 168 rmoveto
          36 callgsubr
          90 271 rmoveto
          22 -6 20 -20 18 -25 -14 -26 -8 -26 -4 -23 rrcurveto
          -6 0 -7 -6 vvcurveto
          -35 34 -34 38 -28 35 399 callsubr
          876 184 -97 callgsubr
          -865 -102 callsubr
          867 hlineto
          -27 -123 -34 -36 -45 -29 -47 -3 rlinecurve
          -16 5 -22 20 -16 19 -60 callsubr
          rrcurveto
          -24 -16 -21 -19 -17 -21 -26 38 -35 37 -41 6 rrcurveto
          61 callgsubr
          40 43 48 50 42 45 25 -66 53 -51 59 -10 77 -4 143 84 5 457 callgsubr
          27 320 callsubr
          -40 -67 -57 -244 48 -40 72 -104 callgsubr
        </CharString>
        <CharString name="dvB_JHA">
          472 903 450 rmoveto
          -77 -61 -120 -60 -89 -36 -45 347 callsubr
          251 hlineto
          -733 -401 rmoveto
          36 callgsubr
          90 271 rmoveto
          28 -8 25 -30 21 -34 -7 -19 -2 -19 4 -17 -9 -8 -9 -9 -9 -9 329 callgsubr
          rrcurveto
          932 184 -92 callgsubr
          -922 -102 callsubr
          544 hlineto
          36 -18 37 -21 21 -25 -3 -7 rcurveline
          -55 -23 -104 -23 -62 -11 -12 -7 -10 -9 -9 -10 -27 45 -39 48 -48 7 rrcurveto
          61 callgsubr
          59 63 75 78 49 53 81 -37 112 -7 46 -33 2 -8 rcurveline
          -29 -37 -60 -31 -66 -3 -29 15 -23 21 -18 23 -51 13 -51 -49 -25 -60 62 -70 68 -103 40 -88 65 -2 44 30 1 31 -46 67 -53 65 -50 49 7 7 rcurveline
          19 -15 22 -14 23 -10 82 -4 76 28 48 31 rrcurveto
          35 39 23 39 34 vvcurveto
          27 -14 21 -30 15 vhcurveto
          61 26 76 38 68 43 7 -9 rcurveline
          -38 -47 -64 -278 -28 callsubr
        </CharString>
        <CharString name="dvB_J_YA">
          824 1243 25 callgsubr
          -105 -78 -64 34 callsubr
          -9 16 -14 516 callgsubr
          -1086 -401 rmoveto
          36 callgsubr
          132 118 rmoveto
          329 callgsubr
          28 -8 26 -32 21 -35 -14 -25 -10 -25 -5 -23 rrcurveto
          1239 332 -92 callgsubr
          -1275 -102 callsubr
          862 hlineto
          -3 -2 -3 -3 -3 -2 -15 234 callgsubr
          -5 -64 -100 -47 -78 -44 -56 -21 -59 -4 -44 19 -18 13 -21 15 -12 20 rrcurveto
          -47 4 -39 -40 -14 -62 16 -6 19 206 callgsubr
          42 32 -2 443 callsubr
          -22 -14 -19 -18 -16 -19 rrcurveto
          -27 46 -41 53 -50 7 rrcurveto
          61 callgsubr
          41 44 48 50 42 45 18 -79 61 -68 68 -11 329 callsubr
          35 -16 18 -4 20 -2 20 1 rlinecurve
          -61 2 111 -80 64 hhcurveto
          58 123 82 86 80 hvcurveto
          12 -11 -43 -67 -39 -169 47 -97 callsubr
        </CharString>
        <CharString name="dvB_JxA">
          416 442 53 rmoveto
          -36 -29 -28 -35 -35 29 -28 36 34 90 callgsubr
          -34 hvcurveto
          -245 115 rmoveto
          36 callgsubr
          90 271 rmoveto
          22 -6 20 -20 18 -25 -14 -26 -8 -26 -4 -23 rrcurveto
          -6 0 -7 -6 vvcurveto
          -35 34 -34 38 -28 35 399 callsubr
          876 184 -97 callgsubr
          -865 -102 callsubr
          867 hlineto
          -27 -123 -34 -36 -45 -29 -47 -3 rlinecurve
          -16 5 -22 20 -16 19 -60 callsubr
          rrcurveto
          -24 -16 -21 -19 -17 -21 -26 38 -35 37 -41 6 rrcurveto
          61 callgsubr
          40 43 48 50 42 45 25 -66 53 -51 59 -10 77 -4 143 84 5 457 callgsubr
          27 320 callsubr
          -40 -67 -57 -244 48 -40 72 -104 callgsubr
        </CharString>
        <CharString name="dvB_LA">
          395 290 253 rmoveto
          -2 vlineto
          -30 -27 -32 -28 -31 -28 rrcurveto
          -24 13 -14 25 40 vvcurveto
          39 13 40 20 34 vhcurveto
          27 -34 38 -39 33 -30 rrcurveto
          -3 183 rmoveto
          24 -7 23 -24 19 -29 -20 -22 -17 -24 -11 -23 -30 30 -27 31 -24 30 399 callsubr
          856 184 -97 callgsubr
          -845 -102 callsubr
          847 365 callgsubr
          -24 6 -45 0 -35 -5 -28 -12 -29 -20 -27 -23 -28 45 -39 49 -48 7 rrcurveto
          61 callgsubr
          30 32 34 36 33 34 25 -67 62 -77 79 -48 74 13 30 94 callsubr
          52 68 41 9 31 -7 19 -28 6 -31 -11 -19 -14 -16 -17 -18 rrcurveto
          -5 -37 42 -38 72 -8 58 47 67 437 callsubr
          48 -40 72 -104 callgsubr
        </CharString>
        <CharString name="dvB_L_YA">
          747 1165 465 callsubr
          -31 -44 35 29 4 hvcurveto
          42 56 196 -69 callsubr
          -1008 -401 rmoveto
          36 callgsubr
          90 271 rmoveto
          30 -8 27 -35 22 -37 -18 -23 -14 -24 -7 -24 -38 36 -35 40 -30 37 399 callsubr
          1208 184 -97 callgsubr
          -1197 -102 callsubr
          785 -67 callgsubr
          -7 -81 -157 -54 -74 -55 -30 -13 -28 -11 -27 -9 -7 5 rcurveline
          15 21 10 23 10 16 -4 55 -27 45 -54 21 -28 6 -47 -1 -36 -6 -35 -15 -36 -25 -31 -30 -27 49 -44 61 -54 8 rrcurveto
          61 callgsubr
          37 40 44 46 40 42 18 -74 69 -92 87 -54 68 13 30 49 -10 35 -86 48 -37 54 -11 59 2 55 42 503 callsubr
          -19 -22 rrcurveto
          -2 -34 47 -38 66 -6 483 callgsubr
          81 -51 51 hhcurveto
          35 callgsubr
          hvcurveto
          12 -11 -42 237 callsubr
          48 -40 72 -104 callgsubr
        </CharString>
        <CharString name="dvB_NA">
          329 470 405 callgsubr
          -277 -12 216 callsubr
          119 89 rmoveto
          -39 35 -36 40 -32 37 18 16 20 12 20 5 32 -8 26 -69 10 -54 rrcurveto
          -22 -84 rmoveto
          373 callsubr
          -11 43 13 callgsubr
          -110 -71 -155 -78 -120 -56 -18 78 -38 91 -67 15 318 callgsubr
          32 39 36 37 34 rrcurveto
          758 402 rmoveto
          -1057 -102 callsubr
          1056 -107 callsubr
        </CharString>
        <CharString name="dvB_R">
          -328 275 274 rmoveto
          -29 -20 -29 -19 -24 -15 rrcurveto
          -25 17 -11 23 25 vvcurveto
          27 11 29 18 25 vhcurveto
          25 -29 33 -35 31 -28 rrcurveto
          130 102 rmoveto
          -28 48 -48 78 -55 12 rrcurveto
          -143 -6 -100 -130 -106 vvcurveto
          -67 43 -59 94 -11 vhcurveto
          52 43 65 45 51 39 12 -15 rcurveline
          -83 -89 -138 -82 -125 -44 422 callgsubr
          168 102 138 113 37 100 -24 34 rcurveline
          0 vlineto
          -22 36 -40 -28 -34 34 -31 35 -27 34 rlinecurve
          18 15 20 10 21 5 33 -11 29 -40 21 -37 rrcurveto
          144 276 rmoveto
          -489 -102 callsubr
          489 -93 callgsubr
        </CharString>
        <CharString name="dvB_RA">
          -56 354 329 rmoveto
          -37 -26 -38 35 -28 31 -29 35 rlinecurve
          17 16 21 11 22 4 30 -9 24 201 callsubr
          -192 -70 rmoveto
          26 8 28 13 25 vhcurveto
          27 520 callsubr
          -18 14 -9 21 27 vvcurveto
          525 341 244 callsubr
          -395 -102 callsubr
          399 hlineto
          -27 -145 -4 -2 rlineto
          40 -26 -40 51 -35 hhcurveto
          -127 -115 -130 -111 -73 55 -54 82 -10 hvcurveto
          71 54 53 41 64 46 10 -10 rcurveline
          -85 -99 -146 -87 -133 -48 -13 -35 17 -30 52 -22 95 94 callgsubr
          65 -10 42 140 callsubr
        </CharString>
        <CharString name="dvB_SA">
          472 899 439 rmoveto
          -64 -57 -134 151 callgsubr
          -724 -385 487 callgsubr
          29 9 31 15 27 vhcurveto
          31 -35 39 -38 30 -26 -28 -25 -28 -25 -26 -22 537 callgsubr
          -16 -11 -12 -16 -9 -19 -37 34 -34 37 -29 36 18 18 21 14 22 5 rrcurveto
          937 188 22 callgsubr
          -921 -102 callsubr
          429 hlineto
          -6 -4 -6 -5 -5 -4 -12 378 callsubr
          -14 5 -14 7 -12 9 -31 54 -59 112 410 callgsubr
          42 40 41 70 -80 118 -103 94 -44 49 17 30 56 -21 36 -78 152 callgsubr
          513 callsubr
          -56 -243 48 -97 callsubr
        </CharString>
        <CharString name="dvB_SHA">
          426 549 500 93 callsubr
          -436 -291 487 callgsubr
          30 10 31 15 28 vhcurveto
          29 -34 39 -39 32 -28 -28 -25 -29 -24 -26 -23 537 callgsubr
          -15 -11 -13 -16 -9 -18 -36 34 -34 38 -29 36 18 17 21 13 21 5 rrcurveto
          -261 188 rmoveto
          -102 callgsubr
          407 191 callsubr
          -13 6 -13 7 -13 8 -31 55 -59 111 410 callgsubr
          43 40 40 67 -77 111 -100 96 -50 48 17 31 33 callsubr
          154 217 callsubr
          -40 10 -78 -6 -7 -30 rcurveline
          -77 -82 callsubr
          80 hlineto
          -120 -528 47 -97 callsubr
        </CharString>
        <CharString name="dvB_TA">
          287 209 179 rmoveto
          -30 16 -15 33 40 vvcurveto
          32 11 33 17 28 vhcurveto
          30 -36 42 -41 33 -30 -29 -25 -30 -26 -29 -24 rrcurveto
          124 107 rmoveto
          -39 37 -37 41 -32 39 19 19 21 13 20 4 30 -8 36 -58 22 -41 -12 -9 -9 -13 -9 -15 rrcurveto
          692 328 -97 callgsubr
          -737 -102 callsubr
          739 hlineto
          -30 -129 -86 -49 -110 -33 -97 -9 rlinecurve
          -26 49 -54 108 -66 9 rrcurveto
          -128 -122 -132 -119 -100 78 -60 114 -3 hvcurveto
          31 32 36 37 33 35 26 -76 61 -68 82 -63 219 callsubr
          64 17 106 40 81 49 401 callgsubr
          -64 -276 48 -40 72 -104 callgsubr
        </CharString>
        <CharString name="dvB_VA">
          235 641 302 callsubr
          -47 -46 rrcurveto
          -29 86 callsubr
          -452 -185 rmoveto
          36 callgsubr
          90 271 rmoveto
          23 -6 21 -22 19 -27 -17 -26 -12 -28 -7 -29 -33 32 -30 35 -27 33 399 callsubr
          695 184 76 callgsubr
          -687 -102 callsubr
          691 164 callsubr
          -67 -65 -35 -52 -47 hvcurveto
          -27 42 -36 41 -44 6 rrcurveto
          61 callgsubr
          33 36 39 41 37 38 20 -67 67 -41 94 -2 42 62 callgsubr
          -42 -61 -31 -135 -74 callsubr
        </CharString>
        <CharString name="dvB_YA">
          319 737 390 rmoveto
          -59 -83 -103 -77 -63 -75 callsubr
          -571 -391 rmoveto
          -28 15 -14 31 38 vvcurveto
          34 8 33 15 28 vhcurveto
          29 -34 538 callgsubr
          77 262 rmoveto
          31 -8 32 -49 16 -45 -21 -12 -18 -12 -12 -13 -34 32 -31 35 -27 33 18 18 21 14 25 7 rrcurveto
          784 183 -97 callgsubr
          -769 -102 callsubr
          357 -67 callgsubr
          -5 -59 -85 -45 -74 -41 -22 73 -48 72 -57 14 rrcurveto
          -139 -8 -110 -129 -127 511 callsubr
          28 30 36 40 35 39 rrcurveto
          -47 36 72 -43 47 hhcurveto
          35 callgsubr
          hvcurveto
          12 -11 -42 237 callsubr
          48 -40 72 -104 callgsubr
        </CharString>
        <CharString name="dvC">
          -165 628 569 rmoveto
          14 24 callsubr
          -630 -82 callsubr
          60 -201 rmoveto
          361 callgsubr
          249 callsubr
          109 24 128 114 73 99 -39 41 rcurveline
          -64 -88 -101 -72 -70 -15 83 callsubr
          383 callgsubr
          rrcurveto
          endchar
        </CharString>
        <CharString name="dvCA">
          110 858 64 callsubr
          -569 -82 callsubr
          572 hlineto
          -39 -173 -64 -88 -101 -72 -70 -15 rlinecurve
          -23 2 -29 25 -3 18 231 callgsubr
          80 -7 vhcurveto
          85 19 97 74 73 78 13 -10 rcurveline
          -40 -70 -38 -168 47 -97 callsubr
        </CharString>
        <CharString name="dvCH">
          103 498 404 20 callgsubr
        </CharString>
        <CharString name="dvCHA">
          103 203 139 rmoveto
          40 55 59 64 53 41 15 250 callgsubr
          95 77 96 272 callsubr
          183 rmoveto
          -15 36 411 callgsubr
          -27 rrcurveto
          279 310 504 callsubr
          228 485 callsubr
          -16 -48 43 -55 53 -26 163 callgsubr
          rrcurveto
          -56 57 -43 63 -19 vhcurveto
          82 14 116 59 97 70 8 -20 6 -20 1 -19 -34 -54 -81 -39 -68 -33 -18 -32 15 -37 65 -31 92 49 114 84 8 78 4 39 -17 46 -21 48 64 56 44 57 1 43 rrcurveto
          1 29 -24 31 -32 25 14 31 12 31 -1 30 rrcurveto
          152 -107 callsubr
        </CharString>
        <CharString name="dvCH_R">
          103 218 callsubr
          133 466 20 callgsubr
        </CharString>
        <CharString name="dvCH_RA">
          103 505 411 rmoveto
          5 9 10 9 12 4 18 -6 27 -20 6 -19 -5 -22 -18 -26 -26 -27 -17 33 -13 34 1 31 rrcurveto
          308 212 504 callsubr
          227 hlineto
          -80 -41 -74 -52 -46 -46 -16 -48 43 -55 53 -26 163 callgsubr
          rrcurveto
          -56 57 -43 63 -19 vhcurveto
          65 20 103 58 52 40 6 -6 rcurveline
          -61 -65 -133 -100 -66 -38 -5 -39 21 -27 59 -12 81 67 140 138 62 108 10 -16 13 -22 9 -20 -27 -74 -43 -57 -62 -56 5 -37 28 -32 66 3 63 79 43 83 15 92 rrcurveto
          -11 42 -26 41 -26 40 49 47 47 57 1 44 1 52 -78 60 -59 19 -47 -2 -53 -45 -23 -35 -11 -75 26 -55 33 -53 -72 -56 -98 -53 -82 -19 -10 9 rcurveline
          40 55 59 64 53 41 15 250 callgsubr
          95 77 96 43 rrcurveto
          404 -107 callsubr
        </CharString>
        <CharString name="dvCH_R_YA">
          705 218 callsubr
          750 421 -38 callsubr
        </CharString>
        <CharString name="dvCH_YA">
          728 1115 359 -38 callsubr
        </CharString>
        <CharString name="dvC_CA">
          597 1345 623 22 callgsubr
          -1056 -82 callsubr
          1059 hlineto
          -39 -173 -64 -88 -101 -72 -70 -15 rlinecurve
          83 callsubr
          -24 -16 -1 -48 27 -36 -68 -79 -91 -73 -69 -12 -27 202 callgsubr
          83 -7 vhcurveto
          113 18 133 136 76 98 -1 1 rcurveline
          71 5 70 10 61 9 249 callsubr
          85 19 97 74 73 78 13 -10 rcurveline
          -40 -70 -38 -168 47 -97 callsubr
        </CharString>
        <CharString name="dvC_CHA">
          558 659 458 callgsubr
          -46 -15 -36 -4 -7 12 rcurveline
          50 50 95 77 96 43 rrcurveto
          175 hlineto
          2 -18 -2 -19 -6 170 callsubr
          -1257 -82 callsubr
          696 485 callsubr
          -7 -22 5 -24 13 -22 -63 -72 -84 -56 -61 -13 63 callgsubr
          249 callsubr
          96 21 112 92 74 89 10 -7 10 -7 11 -5 92 callgsubr
        </CharString>
        <CharString name="dvC_CH_VA">
          570 655 172 rmoveto
          37 50 54 53 53 38 12 63 -33 29 -47 17 -35 -9 -40 -9 -33 -5 -6 10 rcurveline
          53 49 81 69 97 42 rrcurveto
          93 hlineto
          -30 -15 -27 -24 -16 -22 -15 -72 23 -66 25 -71 -70 -60 -88 -54 -81 -21 rrcurveto
          307 201 rmoveto
          -10 42 -7 36 7 29 5 11 5 8 8 2 18 -6 25 -19 5 -18 -8 -23 -20 -30 -28 -32 rrcurveto
          -80 -413 rmoveto
          -44 -39 -55 -40 -42 -36 -21 11 -7 22 3 31 7 60 52 65 54 12 27 -10 19 -26 15 -31 -7 -20 rcurveline
          379 672 rmoveto
          -1257 -82 callsubr
          693 hlineto
          -75 -39 -66 -50 -50 -45 -8 -23 4 -23 13 -21 -63 -75 -87 -59 -63 -13 63 callgsubr
          249 callsubr
          99 22 115 96 75 92 8 -5 8 -5 8 -4 43 10 46 14 35 11 4 -8 rcurveline
          -65 -39 -75 -62 -31 -60 -3 -54 53 -39 60 -18 85 19 109 62 93 71 8 -27 7 -28 4 -30 -7 -31 -10 -35 -11 -36 rrcurveto
          36 -23 -31 36 -29 hhcurveto
          -110 -111 -109 -102 -10 hvcurveto
          -6 -76 57 -48 94 -1 38 35 37 32 36 32 -15 -38 -16 -35 -16 -30 1 -31 35 -15 46 3 52 124 57 170 22 120 -5 49 -13 48 -13 44 70 64 50 66 4 45 rrcurveto
          2 43 -49 47 -49 26 rrcurveto
          233 -93 callgsubr
        </CharString>
        <CharString name="dvC_MA">
          473 590 204 144 callsubr
          -1208 -82 callsubr
          640 474 callgsubr
          -5 -3 -5 -3 -4 -4 -56 -39 -54 -28 -48 -9 63 callgsubr
          249 callsubr
          64 16 62 36 53 41 32 -47 54 -32 53 -10 rrcurveto
          46 55 444 callgsubr
          20 53 19 78 15 82 45 24 45 25 44 26 10 -6 rcurveline
          -95 96 callgsubr
        </CharString>
        <CharString name="dvC_NA">
          444 584 164 callgsubr
          10 -31 2 -31 -9 -32 rrcurveto
          -292 179 rmoveto
          -85 -44 -131 -31 -58 vvcurveto
          -56 93 -73 80 -7 vhcurveto
          63 16 62 36 53 40 35 -49 57 -26 64 -11 42 3 52 21 16 28 11 56 -1 68 -19 58 97 callgsubr
          -122 396 callsubr
          -4 -3 -4 -4 -4 -4 -57 -39 -54 -28 -49 -10 63 callgsubr
          rrcurveto
          894 228 rmoveto
          -1180 -82 callsubr
          1180 -107 callsubr
        </CharString>
        <CharString name="dvC_R">
          -165 571 366 rmoveto
          -27 52 -68 -89 -108 -80 -73 -16 189 callsubr
          85 20 95 70 74 75 15 -15 rcurveline
          -65 -104 -150 -92 -142 -55 -12 -35 408 callgsubr
          148 96 124 88 98 147 -37 74 rcurveline
          97 273 rmoveto
          -643 -82 callsubr
          643 -107 callsubr
        </CharString>
        <CharString name="dvC_RA">
          110 858 64 callsubr
          -569 -82 callsubr
          572 hlineto
          -37 -162 -64 -83 -104 -76 -69 -15 189 callsubr
          91 21 102 79 75 80 14 -13 rcurveline
          -56 -105 -169 -108 -145 -55 -12 -35 17 -30 52 -22 95 94 callgsubr
          65 -10 42 20 -96 callgsubr
        </CharString>
        <CharString name="dvC_YA">
          480 899 -53 callgsubr
          289 54 rmoveto
          -128 133 callsubr
          -7 -30 rcurveline
          -939 -82 callsubr
          527 hlineto
          -3 -2 -3 -3 -3 -2 -15 234 callgsubr
          -8 -89 -191 -56 -60 -62 -61 -40 -64 -32 -48 -5 -23 202 callgsubr
          80 -7 vhcurveto
          72 15 71 42 63 46 rrcurveto
          -51 32 80 -50 51 hhcurveto
          308 callgsubr
          hvcurveto
          12 -11 -43 -67 -39 -169 47 -97 callsubr
        </CharString>
        <CharString name="dvCandrabindu">
          4 279 callgsubr
          103 46 124 callsubr
        </CharString>
        <CharString name="dvD">
          -64 144 -139 547 callsubr
          111 -21 86 -32 90 -52 22 13 9 14 -3 19 -66 61 -112 66 -88 22 rrcurveto
          514 762 47 callsubr
        </CharString>
        <CharString name="dvDA">
          -64 658 623 47 callsubr
        </CharString>
        <CharString name="dvDA_mU">
          327 callsubr
          -87 -92 -254 -33 -138 vvcurveto
          -95 113 -88 132 -12 vhcurveto
          -98 callsubr
        </CharString>
        <CharString name="dvDA_mUU">
          327 callsubr
          -87 -92 -254 -33 -138 vvcurveto
          -95 113 -88 132 -12 vhcurveto
          -96 callsubr
        </CharString>
        <CharString name="dvDA_mvR">
          258 callsubr
          110 -90 143 -12 vhcurveto
          47 58 40 57 34 38 8 -6 rcurveline
          -19 -54 -26 -58 -31 -76 -88 -38 -96 -77 -3 -57 rrcurveto
          -39 -1 57 -56 51 hhcurveto
          82 96 17 59 65 hvcurveto
          8 29 -24 27 -51 11 -46 -40 -53 -33 -76 2 -14 20 rcurveline
          33 55 63 36 85 34 38 113 22 63 39 93 -32 59 -60 18 -40 -12 -30 -31 -54 -63 -49 -52 -46 15 -44 41 -8 42 296 callsubr
        </CharString>
        <CharString name="dvDD">
          -107 130 187 callgsubr
          510 642 -88 callsubr
        </CharString>
        <CharString name="dvDDA">
          -107 640 623 -88 callsubr
        </CharString>
        <CharString name="dvDDH">
          -11 206 -19 rmoveto
          -46 -6 -24 -34 5 450 callsubr
          453 callsubr
          -126 89 -103 35 rrcurveto
          226 203 -64 callgsubr
        </CharString>
        <CharString name="dvDDHA">
          -11 432 184 -64 callgsubr
        </CharString>
        <CharString name="dvDDH_DDHA">
          315 callsubr
          -65 -409 rmoveto
          -18 -32 -53 -35 -57 -10 -14 6 -14 7 -12 8 45 32 47 31 33 22 22 -8 12 -7 9 -14 rrcurveto
          332 768 259 callsubr
          -79 93 -71 87 -5 9 -8 9 -9 7 -12 170 callgsubr
          -10 10 -11 8 -12 8 72 26 79 52 3 45 rrcurveto
          212 callgsubr
        </CharString>
        <CharString name="dvDDH_R">
          -11 274 -46 273 callsubr
          29 64 24 34 35 32 rrcurveto
          -118 -238 rmoveto
          98 404 callgsubr
          8 -51 rrcurveto
          271 484 rmoveto
          -18 -43 -52 -36 -66 -12 -17 6 -16 9 -15 10 58 40 48 35 37 22 17 -6 16 -12 8 -13 rrcurveto
          304 421 rmoveto
          -695 -82 callsubr
          259 hlineto
          41 -25 29 -18 21 -32 -4 -10 rcurveline
          -66 -51 -140 -57 -86 -51 rrcurveto
          -29 -25 -12 -35 -39 vvcurveto
          34 -91 111 -84 109 -4 rrcurveto
          88 179 90 73 40 -73 64 -95 -1 hvcurveto
          -65 -49 -55 -41 -67 -48 rrcurveto
          -16 19 -10 21 20 vvcurveto
          56 200 63 78 71 vhcurveto
          26 31 12 28 -11 29 -20 22 -27 18 -30 16 rrcurveto
          315 -93 callgsubr
        </CharString>
        <CharString name="dvDDH_RA">
          -11 279 -101 rmoveto
          -67 30 -66 49 -50 vhcurveto
          38 5 20 17 -1 30 -47 51 -12 39 -9 80 -32 29 -22 8 -45 -2 297 callgsubr
          rrcurveto
          159 281 -64 callgsubr
        </CharString>
        <CharString name="dvDDH_VA">
          315 callsubr
          -118 -307 rmoveto
          -40 -39 -44 -40 -38 -34 462 callsubr
          17 -30 rrcurveto
          380 642 259 callsubr
          -80 95 -72 88 -3 rrcurveto
          17 22 4 8 23 hvcurveto
          -20 -101 540 callsubr
          -99 -109 -102 2 314 callgsubr
          164 27 21 20 23 1 22 rlinecurve
          212 callgsubr
        </CharString>
        <CharString name="dvDDH_YA">
          586 984 377 callsubr
          39 -45 26 -62 12 -106 -9 -114 -18 -110 -34 1 8 -3 7 -2 8 -19 20 -30 20 -34 18 rrcurveto
          641 hlineto
          -600 -385 rmoveto
          -23 -46 -55 -40 -73 -10 -19 7 -18 9 -16 11 55 37 59 41 40 25 21 -8 19 -12 10 -14 rrcurveto
          889 439 22 callgsubr
          -1013 -82 callsubr
          257 hlineto
          43 -26 34 -21 23 -33 -4 -10 rcurveline
          -68 -53 -148 -60 -92 -54 rrcurveto
          -26 -22 -16 -40 -40 vvcurveto
          34 -95 119 -86 108 -5 rrcurveto
          101 2 172 94 72 vvcurveto
          46 -72 58 -94 3 vhcurveto
          -64 -49 -68 -50 -66 -50 rrcurveto
          -21 23 -13 25 23 vvcurveto
          54 196 81 98 61 vhcurveto
          137 45 136 18 92 -9 439 callgsubr
          65 330 callgsubr
          -36 -152 48 -97 callsubr
        </CharString>
        <CharString name="dvDDHxA">
          -11 225 -22 220 callsubr
          207 206 -64 callgsubr
        </CharString>
        <CharString name="dvDD_DDA">
          -107 640 623 173 callgsubr
          53 2 58 7 55 10 25 -9 22 -11 15 -14 -3 -6 rcurveline
          -63 -25 -74 -11 -79 -12 -52 -26 -19 -53 20 -38 76 -34 103 -7 75 -30 rrcurveto
          -6 vlineto
          -38 -78 -127 -10 -96 hhcurveto
          -30 -22 10 -44 46 -31 124 6 158 31 67 38 32 43 8 52 -32 24 -69 26 -103 11 -62 24 1 6 rcurveline
          67 15 86 12 60 26 33 25 16 45 -12 25 -17 16 -19 12 -22 10 40 11 33 12 23 13 32 43 8 52 -32 23 258 callgsubr
        </CharString>
        <CharString name="dvDD_DDHA">
          -102 308 -145 rmoveto
          -18 -32 -53 -35 -57 -10 -14 6 -14 7 -12 8 45 32 47 31 33 22 22 -8 12 -7 9 -14 rrcurveto
          332 768 173 callgsubr
          46 2 50 5 49 8 18 -12 14 -13 11 -18 170 callgsubr
          -14 16 -17 13 -19 11 52 13 44 15 29 16 32 43 8 52 -32 23 rrcurveto
          258 callgsubr
        </CharString>
        <CharString name="dvDD_R">
          -107 217 -46 rmoveto
          -47 12 -41 36 283 callgsubr
          -31 27 -23 251 callgsubr
          29 64 24 34 35 32 rrcurveto
          -119 -238 rmoveto
          99 404 callgsubr
          7 -51 rrcurveto
          547 905 54 callsubr
        </CharString>
        <CharString name="dvDD_RA">
          -107 207 -93 rmoveto
          -1 -67 30 -66 49 -51 38 6 20 17 -1 30 -46 51 -13 39 -9 80 -32 29 -22 8 -45 -3 -63 -38 515 callgsubr
          69 6 26 83 33 57 51 46 rrcurveto
          440 712 -88 callsubr
        </CharString>
        <CharString name="dvDD_VA">
          -102 260 -42 rmoveto
          -40 -40 -44 -39 -38 -35 -22 11 -9 22 -1 31 rrcurveto
          60 44 65 54 12 vhcurveto
          26 -10 17 -24 18 -30 rrcurveto
          384 642 rmoveto
          -629 -102 callsubr
          281 hlineto
          36 -12 35 -14 20 -20 -2 -6 rcurveline
          -63 -25 -72 -11 -78 -12 -52 -26 -19 -53 20 -39 75 -35 102 -6 73 -31 1 -6 rcurveline
          -38 -78 -125 -9 -95 hhcurveto
          -29 -22 9 -45 46 -31 69 3 80 11 68 17 -20 -116 rcurveline
          501 callsubr
          -102 1 hvcurveto
          1 -75 63 -49 94 -1 40 42 36 37 37 39 6 -6 rcurveline
          -33 -45 -22 -87 39 -32 58 -11 35 19 rlinecurve
          24 308 60 157 11 6 32 43 8 52 -32 23 rlinecurve
          -68 27 -102 11 -61 25 1 5 rcurveline
          66 16 85 12 59 26 33 25 16 45 -12 25 -13 12 -13 10 -15 8 rrcurveto
          214 -107 callsubr
        </CharString>
        <CharString name="dvDD_YA">
          495 906 355 rmoveto
          -49 -68 -100 -71 -51 474 callsubr
          36 -44 29 -56 12 -109 -10 -89 -20 -97 -31 2 14 0 13 -3 10 -16 18 -19 14 -19 12 rrcurveto
          567 175 callsubr
          -946 -102 callsubr
          253 hlineto
          36 -17 38 -17 22 -27 -3 -67 callsubr
          73 24 84 29 85 24 113 31 117 25 88 -5 rrcurveto
          -3 -104 -245 -40 -78 vvcurveto
          -58 106 -73 64 330 callgsubr
          -35 -152 47 -97 callsubr
        </CharString>
        <CharString name="dvDDxA">
          -107 179 -21 220 callsubr
          461 644 -88 callsubr
        </CharString>
        <CharString name="dvDH">
          -194 152 492 71 callsubr
          16 -307 rmoveto
          86 callgsubr
          92 23 126 71 30 83 -9 72 -44 38 -44 -22 callsubr
          109 24 194 139 62 94 -49 42 rcurveline
          -60 -78 -137 -99 -101 -32 rrcurveto
          440 445 rmoveto
          -150 320 callgsubr
          152 -93 callgsubr
        </CharString>
        <CharString name="dvDHA">
          81 152 492 71 callsubr
          653 127 -97 callgsubr
          -61 320 callgsubr
          65 hlineto
          -42 -183 -60 -78 -136 -98 -101 -32 rlinecurve
          -8 11 43 49 54 49 61 44 rlinecurve
          24 callgsubr
          92 23 126 71 30 83 -9 72 -44 38 -44 -22 callsubr
          85 19 136 88 86 83 10 -11 rcurveline
          -39 -50 -41 -176 48 -40 72 -104 callgsubr
        </CharString>
        <CharString name="dvDH_MA">
          427 611 355 callgsubr
          530 callsubr
          -6 -3 -5 -5 -4 -4 -54 -42 -72 -48 -80 -27 -8 11 rcurveline
          58 callsubr
          185 378 callgsubr
          -402 281 71 callsubr
          998 127 rmoveto
          -744 hlineto
          -11 66 -42 34 -42 -22 callsubr
          68 16 82 52 64 50 32 -44 52 -30 51 -10 rrcurveto
          46 55 444 callgsubr
          20 53 19 78 15 82 45 24 45 25 44 26 11 -6 rcurveline
          -96 420 callsubr
          41 21 rlinecurve
          32 361 65 111 -25 37 -41 16 -85 212 callsubr
        </CharString>
        <CharString name="dvDH_NA">
          397 152 492 71 callsubr
          362 -295 225 callsubr
          -715 hlineto
          -11 66 -42 34 -42 -22 callsubr
          67 16 82 51 63 50 35 -46 56 -25 62 -10 42 13 callgsubr
          -121 396 callsubr
          -5 -4 -4 -4 -4 -4 -53 -43 -73 -48 -82 -28 -8 11 rcurveline
          58 callsubr
          723 -107 callsubr
        </CharString>
        <CharString name="dvDH_N_YA">
          821 1239 -59 callsubr
          -1087 -380 rmoveto
          58 callsubr
          458 -67 callgsubr
          -6 -75 -135 -51 -79 -51 -134 31 -212 -12 -98 -62 -3 -2 -2 -2 -3 -3 rrcurveto
          -58 -36 -64 -38 -73 -26 rrcurveto
          320 -1 360 callgsubr
          29 24 15 26 12 28 9 8 -29 1 -30 -8 -31 rrcurveto
          -378 309 71 callsubr
          1393 127 -97 callgsubr
          -861 hlineto
          -11 66 -42 34 -42 -22 callsubr
          61 15 68 40 62 42 35 -48 58 -26 63 -12 42 3 52 21 16 28 8 45 1 50 -9 48 55 4 56 -3 52 -6 rrcurveto
          -7 -9 -3 -8 -9 192 callgsubr
          48 -40 72 -104 callgsubr
        </CharString>
        <CharString name="dvDH_R">
          -195 376 callsubr
          316 -95 rmoveto
          -61 -78 -137 -99 -101 -31 -8 10 rcurveline
          44 50 53 48 59 43 127 callgsubr
          83 22 130 87 82 81 10 -15 rcurveline
          -73 -114 -146 -82 -135 -50 286 callgsubr
          144 94 126 88 97 147 -41 62 rcurveline
          10 13 8 12 6 12 rrcurveto
          87 250 rmoveto
          -143 320 callgsubr
          144 -107 callsubr
        </CharString>
        <CharString name="dvDH_RA">
          82 376 callsubr
          642 119 -97 callgsubr
          -61 320 callgsubr
          65 hlineto
          -36 -160 -61 -78 -137 -99 -101 -31 rlinecurve
          -8 10 44 50 53 48 59 43 rlinecurve
          127 callgsubr
          86 19 137 95 85 86 9 -9 rcurveline
          -39 -63 -82 -77 -133 -82 -112 -40 rlinecurve
          286 callgsubr
          95 54 119 86 55 262 callgsubr
          123 hlineto
          167 callsubr
          rrcurveto
          endchar
        </CharString>
        <CharString name="dvDH_VA">
          383 790 319 233 callgsubr
          28 -38 20 -38 rrcurveto
          -646 141 71 callsubr
          955 127 61 callsubr
          -365 320 callgsubr
          371 137 callsubr
          -85 -79 -55 -72 -46 hvcurveto
          -2 1 -60 -78 -137 -99 -101 -32 rlinecurve
          -8 11 43 49 54 49 61 44 rlinecurve
          24 callgsubr
          92 23 126 71 30 83 -9 72 -44 38 -44 -22 callsubr
          75 17 115 70 85 74 1 -93 75 -58 111 -3 72 callsubr
          -43 -61 -31 -135 48 -40 72 -104 callgsubr
        </CharString>
        <CharString name="dvDH_YA">
          421 840 -53 callgsubr
          -688 -380 rmoveto
          58 callsubr
          58 hlineto
          -3 -2 -3 -3 -3 -2 -15 234 callgsubr
          -7 -81 -159 -54 -73 -56 -1 1 rcurveline
          -60 -49 -85 -61 -83 -27 rrcurveto
          -48 314 71 callsubr
          993 127 -92 callgsubr
          -462 hlineto
          -11 66 -42 34 -42 -22 callsubr
          73 18 86 54 70 54 rrcurveto
          -48 34 75 -46 49 hhcurveto
          308 callgsubr
          hvcurveto
          12 -11 -43 -67 -39 -169 47 -97 callsubr
        </CharString>
        <CharString name="dvD_BA">
          53 callsubr
          48 59 rrcurveto
          0 vlineto
          42 50 34 50 31 35 26 callsubr
        </CharString>
</ttFont>
